  0
SECTION
  2
HEADER
  9
$ACADVER
  1
AC1027
  9
$ACADMAINTVER
 70
105
  9
$DWGCODEPAGE
  3
ANSI_1252
  9
$LASTSAVEDBY
  1
ezdxf
  9
$REQUIREDVERSIONS
160
0
  9
$INSBASE
 10
0.0
 20
0.0
 30
0.0
  9
$EXTMIN
 10
1e+20
 20
1e+20
 30
1e+20
  9
$EXTMAX
 10
-1e+20
 20
-1e+20
 30
-1e+20
  9
$LIMMIN
 10
0.0
 20
0.0
  9
$LIMMAX
 10
420.0
 20
297.0
  9
$ORTHOMODE
 70
0
  9
$REGENMODE
 70
1
  9
$FILLMODE
 70
1
  9
$QTEXTMODE
 70
0
  9
$MIRRTEXT
 70
1
  9
$LTSCALE
 40
1.0
  9
$ATTMODE
 70
1
  9
$TEXTSIZE
 40
2.5
  9
$TRACEWID
 40
1.0
  9
$TEXTSTYLE
  7
Standard
  9
$CLAYER
  8
0
  9
$CELTYPE
  6
ByLayer
  9
$CECOLOR
 62
256
  9
$CELTSCALE
 40
1.0
  9
$DISPSILH
 70
0
  9
$DIMSCALE
 40
1.0
  9
$DIMASZ
 40
2.5
  9
$DIMEXO
 40
0.625
  9
$DIMDLI
 40
3.75
  9
$DIMRND
 40
0.0
  9
$DIMDLE
 40
0.0
  9
$DIMEXE
 40
1.25
  9
$DIMTP
 40
0.0
  9
$DIMTM
 40
0.0
  9
$DIMTXT
 40
2.5
  9
$DIMCEN
 40
2.5
  9
$DIMTSZ
 40
0.0
  9
$DIMTOL
 70
0
  9
$DIMLIM
 70
0
  9
$DIMTIH
 70
0
  9
$DIMTOH
 70
0
  9
$DIMSE1
 70
0
  9
$DIMSE2
 70
0
  9
$DIMTAD
 70
1
  9
$DIMZIN
 70
8
  9
$DIMBLK
  1

  9
$DIMASO
 70
1
  9
$DIMSHO
 70
1
  9
$DIMPOST
  1

  9
$DIMAPOST
  1

  9
$DIMALT
 70
0
  9
$DIMALTD
 70
3
  9
$DIMALTF
 40
0.03937007874
  9
$DIMLFAC
 40
1.0
  9
$DIMTOFL
 70
1
  9
$DIMTVP
 40
0.0
  9
$DIMTIX
 70
0
  9
$DIMSOXD
 70
0
  9
$DIMSAH
 70
0
  9
$DIMBLK1
  1

  9
$DIMBLK2
  1

  9
$DIMSTYLE
  2
ISO-25
  9
$DIMCLRD
 70
0
  9
$DIMCLRE
 70
0
  9
$DIMCLRT
 70
0
  9
$DIMTFAC
 40
1.0
  9
$DIMGAP
 40
0.625
  9
$DIMJUST
 70
0
  9
$DIMSD1
 70
0
  9
$DIMSD2
 70
0
  9
$DIMTOLJ
 70
0
  9
$DIMTZIN
 70
8
  9
$DIMALTZ
 70
0
  9
$DIMALTTZ
 70
0
  9
$DIMUPT
 70
0
  9
$DIMDEC
 70
2
  9
$DIMTDEC
 70
2
  9
$DIMALTU
 70
2
  9
$DIMALTTD
 70
3
  9
$DIMTXSTY
  7
Standard
  9
$DIMAUNIT
 70
0
  9
$DIMADEC
 70
0
  9
$DIMALTRND
 40
0.0
  9
$DIMAZIN
 70
0
  9
$DIMDSEP
 70
44
  9
$DIMATFIT
 70
3
  9
$DIMFRAC
 70
0
  9
$DIMLDRBLK
  1

  9
$DIMLUNIT
 70
2
  9
$DIMLWD
 70
-2
  9
$DIMLWE
 70
-2
  9
$DIMTMOVE
 70
0
  9
$DIMFXL
 40
1.0
  9
$DIMFXLON
 70
0
  9
$DIMJOGANG
 40
0.785398163397
  9
$DIMTFILL
 70
0
  9
$DIMTFILLCLR
 70
0
  9
$DIMARCSYM
 70
0
  9
$DIMLTYPE
  6

  9
$DIMLTEX1
  6

  9
$DIMLTEX2
  6

  9
$DIMTXTDIRECTION
 70
0
  9
$LUNITS
 70
2
  9
$LUPREC
 70
4
  9
$SKETCHINC
 40
1.0
  9
$FILLETRAD
 40
10.0
  9
$AUNITS
 70
0
  9
$AUPREC
 70
2
  9
$MENU
  1
.
  9
$ELEVATION
 40
0.0
  9
$PELEVATION
 40
0.0
  9
$THICKNESS
 40
0.0
  9
$LIMCHECK
 70
0
  9
$CHAMFERA
 40
0.0
  9
$CHAMFERB
 40
0.0
  9
$CHAMFERC
 40
0.0
  9
$CHAMFERD
 40
0.0
  9
$SKPOLY
 70
0
  9
$TDCREATE
 40
2461296.7739467593
  9
$TDUCREATE
 40
2458532.153996898
  9
$TDUPDATE
 40
2461296.7739467593
  9
$TDUUPDATE
 40
2458532.1544311
  9
$TDINDWG
 40
0.0
  9
$TDUSRTIMER
 40
0.0
  9
$USRTIMER
 70
1
  9
$ANGBASE
 50
0.0
  9
$ANGDIR
 70
0
  9
$PDMODE
 70
0
  9
$PDSIZE
 40
0.0
  9
$PLINEWID
 40
0.0
  9
$SPLFRAME
 70
0
  9
$SPLINETYPE
 70
6
  9
$SPLINESEGS
 70
8
  9
$HANDSEED
  5
2C2
  9
$SURFTAB1
 70
6
  9
$SURFTAB2
 70
6
  9
$SURFTYPE
 70
6
  9
$SURFU
 70
6
  9
$SURFV
 70
6
  9
$UCSBASE
  2

  9
$UCSNAME
  2

  9
$UCSORG
 10
0.0
 20
0.0
 30
0.0
  9
$UCSXDIR
 10
1.0
 20
0.0
 30
0.0
  9
$UCSYDIR
 10
0.0
 20
1.0
 30
0.0
  9
$UCSORTHOREF
  2

  9
$UCSORTHOVIEW
 70
0
  9
$UCSORGTOP
 10
0.0
 20
0.0
 30
0.0
  9
$UCSORGBOTTOM
 10
0.0
 20
0.0
 30
0.0
  9
$UCSORGLEFT
 10
0.0
 20
0.0
 30
0.0
  9
$UCSORGRIGHT
 10
0.0
 20
0.0
 30
0.0
  9
$UCSORGFRONT
 10
0.0
 20
0.0
 30
0.0
  9
$UCSORGBACK
 10
0.0
 20
0.0
 30
0.0
  9
$PUCSBASE
  2

  9
$PUCSNAME
  2

  9
$PUCSORG
 10
0.0
 20
0.0
 30
0.0
  9
$PUCSXDIR
 10
1.0
 20
0.0
 30
0.0
  9
$PUCSYDIR
 10
0.0
 20
1.0
 30
0.0
  9
$PUCSORTHOREF
  2

  9
$PUCSORTHOVIEW
 70
0
  9
$PUCSORGTOP
 10
0.0
 20
0.0
 30
0.0
  9
$PUCSORGBOTTOM
 10
0.0
 20
0.0
 30
0.0
  9
$PUCSORGLEFT
 10
0.0
 20
0.0
 30
0.0
  9
$PUCSORGRIGHT
 10
0.0
 20
0.0
 30
0.0
  9
$PUCSORGFRONT
 10
0.0
 20
0.0
 30
0.0
  9
$PUCSORGBACK
 10
0.0
 20
0.0
 30
0.0
  9
$USERI1
 70
0
  9
$USERI2
 70
0
  9
$USERI3
 70
0
  9
$USERI4
 70
0
  9
$USERI5
 70
0
  9
$USERR1
 40
0.0
  9
$USERR2
 40
0.0
  9
$USERR3
 40
0.0
  9
$USERR4
 40
0.0
  9
$USERR5
 40
0.0
  9
$WORLDVIEW
 70
1
  9
$SHADEDGE
 70
3
  9
$SHADEDIF
 70
70
  9
$TILEMODE
 70
1
  9
$MAXACTVP
 70
64
  9
$PINSBASE
 10
0.0
 20
0.0
 30
0.0
  9
$PLIMCHECK
 70
0
  9
$PEXTMIN
 10
1e+20
 20
1e+20
 30
1e+20
  9
$PEXTMAX
 10
-1e+20
 20
-1e+20
 30
-1e+20
  9
$PLIMMIN
 10
0.0
 20
0.0
  9
$PLIMMAX
 10
420.0
 20
297.0
  9
$UNITMODE
 70
0
  9
$VISRETAIN
 70
1
  9
$PLINEGEN
 70
0
  9
$PSLTSCALE
 70
1
  9
$TREEDEPTH
 70
3020
  9
$CMLSTYLE
  2
Standard
  9
$CMLJUST
 70
0
  9
$CMLSCALE
 40
20.0
  9
$PROXYGRAPHICS
 70
1
  9
$MEASUREMENT
 70
1
  9
$CELWEIGHT
370
-1
  9
$ENDCAPS
280
0
  9
$JOINSTYLE
280
0
  9
$LWDISPLAY
290
0
  9
$INSUNITS
 70
4
  9
$HYPERLINKBASE
  1

  9
$STYLESHEET
  1

  9
$XEDIT
290
1
  9
$CEPSNTYPE
380
0
  9
$PSTYLEMODE
290
1
  9
$FINGERPRINTGUID
  2
{C71B40FE-ACA1-41E2-BA10-0E541860369A}
  9
$VERSIONGUID
  2
{E34D595B-E473-47CE-8AEE-B1C28B9EDF65}
  9
$EXTNAMES
290
1
  9
$PSVPSCALE
 40
0.0
  9
$OLESTARTUP
290
0
  9
$SORTENTS
280
127
  9
$INDEXCTL
280
0
  9
$HIDETEXT
280
1
  9
$XCLIPFRAME
280
1
  9
$HALOGAP
280
0
  9
$OBSCOLOR
 70
257
  9
$OBSLTYPE
280
0
  9
$INTERSECTIONDISPLAY
280
0
  9
$INTERSECTIONCOLOR
 70
257
  9
$DIMASSOC
280
2
  9
$PROJECTNAME
  1

  9
$CAMERADISPLAY
290
0
  9
$LENSLENGTH
 40
50.0
  9
$CAMERAHEIGHT
 40
0.0
  9
$STEPSPERSEC
 40
24.0
  9
$STEPSIZE
 40
100.0
  9
$3DDWFPREC
 40
2.0
  9
$PSOLWIDTH
 40
0.005
  9
$PSOLHEIGHT
 40
0.08
  9
$LOFTANG1
 40
1.570796326795
  9
$LOFTANG2
 40
1.570796326795
  9
$LOFTMAG1
 40
0.0
  9
$LOFTMAG2
 40
0.0
  9
$LOFTPARAM
 70
7
  9
$LOFTNORMALS
280
1
  9
$LATITUDE
 40
37.795
  9
$LONGITUDE
 40
-122.394
  9
$NORTHDIRECTION
 40
0.0
  9
$TIMEZONE
 70
-8000
  9
$LIGHTGLYPHDISPLAY
280
1
  9
$TILEMODELIGHTSYNCH
280
1
  9
$CMATERIAL
347
20
  9
$SOLIDHIST
280
0
  9
$SHOWHIST
280
1
  9
$DWFFRAME
280
2
  9
$DGNFRAME
280
2
  9
$REALWORLDSCALE
290
1
  9
$INTERFERECOLOR
 62
256
  9
$CSHADOW
280
0
  9
$SHADOWPLANELOCATION
 40
0.0
  0
ENDSEC
  0
SECTION
  2
CLASSES
  0
CLASS
  1
ACDBDICTIONARYWDFLT
  2
AcDbDictionaryWithDefault
  3
ObjectDBX Classes
 90
0
 91
0
280
0
281
0
  0
CLASS
  1
SUN
  2
AcDbSun
  3
SCENEOE
 90
1153
 91
0
280
0
281
0
  0
CLASS
  1
VISUALSTYLE
  2
AcDbVisualStyle
  3
ObjectDBX Classes
 90
4095
 91
0
280
0
281
0
  0
CLASS
  1
MATERIAL
  2
AcDbMaterial
  3
ObjectDBX Classes
 90
1153
 91
0
280
0
281
0
  0
CLASS
  1
SCALE
  2
AcDbScale
  3
ObjectDBX Classes
 90
1153
 91
0
280
0
281
0
  0
CLASS
  1
TABLESTYLE
  2
AcDbTableStyle
  3
ObjectDBX Classes
 90
4095
 91
0
280
0
281
0
  0
CLASS
  1
MLEADERSTYLE
  2
AcDbMLeaderStyle
  3
ACDB_MLEADERSTYLE_CLASS
 90
4095
 91
0
280
0
281
0
  0
CLASS
  1
DICTIONARYVAR
  2
AcDbDictionaryVar
  3
ObjectDBX Classes
 90
0
 91
0
280
0
281
0
  0
CLASS
  1
CELLSTYLEMAP
  2
AcDbCellStyleMap
  3
ObjectDBX Classes
 90
1152
 91
0
280
0
281
0
  0
CLASS
  1
MENTALRAYRENDERSETTINGS
  2
AcDbMentalRayRenderSettings
  3
SCENEOE
 90
1024
 91
0
280
0
281
0
  0
CLASS
  1
ACDBDETAILVIEWSTYLE
  2
AcDbDetailViewStyle
  3
ObjectDBX Classes
 90
1025
 91
0
280
0
281
0
  0
CLASS
  1
ACDBSECTIONVIEWSTYLE
  2
AcDbSectionViewStyle
  3
ObjectDBX Classes
 90
1025
 91
0
280
0
281
0
  0
CLASS
  1
RASTERVARIABLES
  2
AcDbRasterVariables
  3
ISM
 90
0
 91
0
280
0
281
0
  0
CLASS
  1
LAYOUT
  2
AcDbLayout
  3
ObjectDBX Classes
 90
0
 91
0
280
0
281
0
  0
CLASS
  1
ACDBPLACEHOLDER
  2
AcDbPlaceHolder
  3
ObjectDBX Classes
 90
0
 91
0
280
0
281
0
  0
ENDSEC
  0
SECTION
  2
TABLES
  0
TABLE
  2
VPORT
  5
8
330
0
100
AcDbSymbolTable
 70
1
  0
VPORT
  5
2BE
330
8
100
AcDbSymbolTableRecord
100
AcDbViewportTableRecord
  2
*Active
 70
0
 10
0.0
 20
0.0
 11
1.0
 21
1.0
 12
0.0
 22
2.086798
 13
0.0
 23
0.0
 14
0.5
 24
0.5
 15
0.5
 25
0.5
 16
0.0
 26
0.0
 36
1.0
 17
0.0
 27
0.0
 37
0.0
 40
24.438428
 41
1.34
 42
50.0
 43
0.0
 44
0.0
 50
0.0
 51
0.0
 71
0
 72
1000
 73
1
 74
3
 75
0
 76
0
 77
0
 78
0
281
0
 65
1
110
0.0
120
0.0
130
0.0
111
1.0
121
0.0
131
0.0
112
0.0
122
1.0
132
0.0
 79
0
146
0.0
  0
ENDTAB
  0
TABLE
  2
LTYPE
  5
2
330
0
100
AcDbSymbolTable
 70
3
  0
LTYPE
  5
24
330
2
100
AcDbSymbolTableRecord
100
AcDbLinetypeTableRecord
  2
ByBlock
 70
0
  3

 72
65
 73
0
 40
0.0
  0
LTYPE
  5
25
330
2
100
AcDbSymbolTableRecord
100
AcDbLinetypeTableRecord
  2
ByLayer
 70
0
  3

 72
65
 73
0
 40
0.0
  0
LTYPE
  5
26
330
2
100
AcDbSymbolTableRecord
100
AcDbLinetypeTableRecord
  2
Continuous
 70
0
  3

 72
65
 73
0
 40
0.0
  0
ENDTAB
  0
TABLE
  2
LAYER
  5
1
330
0
100
AcDbSymbolTable
 70
2
  0
LAYER
  5
27
330
1
100
AcDbSymbolTableRecord
100
AcDbLayerTableRecord
  2
0
 70
0
 62
7
  6
Continuous
370
-3
390
13
347
21
  0
LAYER
  5
28
330
1
100
AcDbSymbolTableRecord
100
AcDbLayerTableRecord
  2
Defpoints
 70
0
 62
7
  6
Continuous
290
0
370
-3
390
13
347
21
  0
ENDTAB
  0
TABLE
  2
STYLE
  5
5
330
0
100
AcDbSymbolTable
 70
1
  0
STYLE
  5
29
330
5
100
AcDbSymbolTableRecord
100
AcDbTextStyleTableRecord
  2
Standard
 70
0
 40
0.0
 41
1.0
 50
0.0
 71
0
 42
2.5
  3
txt
  4

  0
ENDTAB
  0
TABLE
  2
VIEW
  5
7
330
0
100
AcDbSymbolTable
 70
0
  0
ENDTAB
  0
TABLE
  2
UCS
  5
6
330
0
100
AcDbSymbolTable
 70
0
  0
ENDTAB
  0
TABLE
  2
APPID
  5
3
330
0
100
AcDbSymbolTable
 70
3
  0
APPID
  5
2A
330
3
100
AcDbSymbolTableRecord
100
AcDbRegAppTableRecord
  2
ACAD
 70
0
  0
APPID
  5
2BF
330
3
100
AcDbSymbolTableRecord
100
AcDbRegAppTableRecord
  2
HATCHBACKGROUNDCOLOR
 70
0
  0
APPID
  5
2C0
330
3
100
AcDbSymbolTableRecord
100
AcDbRegAppTableRecord
  2
EZDXF
 70
0
  0
ENDTAB
  0
TABLE
  2
DIMSTYLE
  5
4
330
0
100
AcDbSymbolTable
 70
1
100
AcDbDimStyleTable
  0
DIMSTYLE
105
2B
330
4
100
AcDbSymbolTableRecord
100
AcDbDimStyleTableRecord
  2
Standard
 70
0
 40
1.0
 41
2.5
 42
0.625
 43
3.75
 44
1.25
 45
0.0
 46
0.0
 47
0.0
 48
0.0
 49
2.5
140
2.5
141
2.5
142
0.0
143
0.03937007874
144
1.0
145
0.0
146
1.0
147
0.625
148
0.0
 69
0
 70
0
 71
0
 72
0
 73
0
 74
0
 75
0
 76
0
 77
1
 78
8
 79
3
170
0
171
3
172
1
173
0
174
0
175
0
176
0
177
0
178
0
179
2
271
2
272
2
273
2
274
3
275
0
276
0
277
2
278
44
279
0
280
0
281
0
282
0
283
0
284
8
285
0
286
0
288
0
289
3
290
0
371
-2
372
-2
  0
ENDTAB
  0
TABLE
  2
BLOCK_RECORD
  5
9
330
0
100
AcDbSymbolTable
 70
2
  0
BLOCK_RECORD
  5
17
330
9
100
AcDbSymbolTableRecord
100
AcDbBlockTableRecord
  2
*Model_Space
340
1A
 70
0
280
1
281
0
  0
BLOCK_RECORD
  5
1B
330
9
100
AcDbSymbolTableRecord
100
AcDbBlockTableRecord
  2
*Paper_Space
340
1E
 70
0
280
1
281
0
  0
ENDTAB
  0
ENDSEC
  0
SECTION
  2
BLOCKS
  0
BLOCK
  5
18
330
17
100
AcDbEntity
  8
0
100
AcDbBlockBegin
  2
*Model_Space
 70
0
 10
0.0
 20
0.0
 30
0.0
  3
*Model_Space
  1

  0
ENDBLK
  5
19
330
17
100
AcDbEntity
  8
0
100
AcDbBlockEnd
  0
BLOCK
  5
1C
330
1B
100
AcDbEntity
  8
0
100
AcDbBlockBegin
  2
*Paper_Space
 70
0
 10
0.0
 20
0.0
 30
0.0
  3
*Paper_Space
  1

  0
ENDBLK
  5
1D
330
1B
100
AcDbEntity
  8
0
100
AcDbBlockEnd
  0
ENDSEC
  0
SECTION
  2
ENTITIES
  0
LINE
  5
2F
330
17
100
AcDbEntity
  8
0
100
AcDbLine
 10
-10.830138
 20
-6.668274
 30
8.270000000000001
 11
-10.830138
 21
-7.28533
 31
8.270000000000001
  0
LINE
  5
30
330
17
100
AcDbEntity
  8
0
100
AcDbLine
 10
-10.830138
 20
-7.28533
 30
8.270000000000001
 11
-10.573882
 21
-7.190048
 31
8.270000000000001
  0
LINE
  5
31
330
17
100
AcDbEntity
  8
0
100
AcDbLine
 10
-10.573882
 20
-7.190048
 30
8.270000000000001
 11
-10.326338
 21
-7.12198
 31
8.270000000000001
  0
LINE
  5
32
330
17
100
AcDbEntity
  8
0
100
AcDbLine
 10
-10.326338
 20
-7.12198
 30
8.270000000000001
 11
-10.20679
 21
-7.0981760000000005
 31
8.270000000000001
  0
LINE
  5
33
330
17
100
AcDbEntity
  8
0
100
AcDbLine
 10
-10.20679
 20
-7.0981760000000005
 30
8.270000000000001
 11
-9.977748
 21
-7.07094
 31
8.270000000000001
  0
LINE
  5
34
330
17
100
AcDbEntity
  8
0
100
AcDbLine
 10
-9.977748
 20
-7.07094
 30
8.270000000000001
 11
-9.868276
 21
-7.067552
 31
8.270000000000001
  0
LINE
  5
35
330
17
100
AcDbEntity
  8
0
100
AcDbLine
 10
-9.868276
 20
-7.067552
 30
8.270000000000001
 11
-9.759926
 21
-7.071182
 31
8.270000000000001
  0
LINE
  5
36
330
17
100
AcDbEntity
  8
0
100
AcDbLine
 10
-9.759926
 20
-7.071182
 30
8.270000000000001
 11
-9.587886000000001
 21
-7.1002220000000005
 31
8.270000000000001
  0
LINE
  5
37
330
17
100
AcDbEntity
  8
0
100
AcDbLine
 10
-9.587886000000001
 20
-7.1002220000000005
 30
8.270000000000001
 11
-9.524196
 21
-7.12561
 31
8.270000000000001
  0
LINE
  5
38
330
17
100
AcDbEntity
  8
0
100
AcDbLine
 10
-9.524196
 20
-7.12561
 30
8.270000000000001
 11
-9.475268
 21
-7.158522
 31
8.270000000000001
  0
LINE
  5
39
330
17
100
AcDbEntity
  8
0
100
AcDbLine
 10
-9.475268
 20
-7.158522
 30
8.270000000000001
 11
-9.419388
 21
-7.247446
 31
8.270000000000001
  0
LINE
  5
3A
330
17
100
AcDbEntity
  8
0
100
AcDbLine
 10
-9.419388
 20
-7.247446
 30
8.270000000000001
 11
-9.412392
 21
-7.30348
 31
8.270000000000001
  0
LINE
  5
3B
330
17
100
AcDbEntity
  8
0
100
AcDbLine
 10
-9.412392
 20
-7.30348
 30
8.270000000000001
 11
-9.417694
 21
-7.349614
 31
8.270000000000001
  0
LINE
  5
3C
330
17
100
AcDbEntity
  8
0
100
AcDbLine
 10
-9.417694
 20
-7.349614
 30
8.270000000000001
 11
-9.460176
 21
-7.4247440000000005
 31
8.270000000000001
  0
LINE
  5
3D
330
17
100
AcDbEntity
  8
0
100
AcDbLine
 10
-9.460176
 20
-7.4247440000000005
 30
8.270000000000001
 11
-9.497334
 21
-7.45374
 31
8.270000000000001
  0
LINE
  5
3E
330
17
100
AcDbEntity
  8
0
100
AcDbLine
 10
-9.497334
 20
-7.45374
 30
8.270000000000001
 11
-9.548242
 21
-7.477874
 31
8.270000000000001
  0
LINE
  5
3F
330
17
100
AcDbEntity
  8
0
100
AcDbLine
 10
-9.548242
 20
-7.477874
 30
8.270000000000001
 11
-9.70068
 21
-7.516352
 31
8.270000000000001
  0
LINE
  5
40
330
17
100
AcDbEntity
  8
0
100
AcDbLine
 10
-9.70068
 20
-7.516352
 30
8.270000000000001
 11
-9.802209999999999
 21
-7.530696
 31
8.270000000000001
  0
LINE
  5
41
330
17
100
AcDbEntity
  8
0
100
AcDbLine
 10
-9.802209999999999
 20
-7.530696
 30
8.270000000000001
 11
-9.945232
 21
-7.551024
 31
8.270000000000001
  0
LINE
  5
42
330
17
100
AcDbEntity
  8
0
100
AcDbLine
 10
-9.945232
 20
-7.551024
 30
8.270000000000001
 11
-10.231782
 21
-7.596982
 31
8.270000000000001
  0
LINE
  5
43
330
17
100
AcDbEntity
  8
0
100
AcDbLine
 10
-10.231782
 20
-7.596982
 30
8.270000000000001
 11
-10.565676
 21
-7.68991
 31
8.270000000000001
  0
LINE
  5
44
330
17
100
AcDbEntity
  8
0
100
AcDbLine
 10
-10.565676
 20
-7.68991
 30
8.270000000000001
 11
-10.724274
 21
-7.767856
 31
8.270000000000001
  0
LINE
  5
45
330
17
100
AcDbEntity
  8
0
100
AcDbLine
 10
-10.724274
 20
-7.767856
 30
8.270000000000001
 11
-10.7844
 21
-7.811614
 31
8.270000000000001
  0
LINE
  5
46
330
17
100
AcDbEntity
  8
0
100
AcDbLine
 10
-10.7844
 20
-7.811614
 30
8.270000000000001
 11
-10.834934
 21
-7.860234
 31
8.270000000000001
  0
LINE
  5
47
330
17
100
AcDbEntity
  8
0
100
AcDbLine
 10
-10.834934
 20
-7.860234
 30
8.270000000000001
 11
-10.915784
 21
-7.976834
 31
8.270000000000001
  0
LINE
  5
48
330
17
100
AcDbEntity
  8
0
100
AcDbLine
 10
-10.915784
 20
-7.976834
 30
8.270000000000001
 11
-10.969684
 21
-8.119284
 31
8.270000000000001
  0
LINE
  5
49
330
17
100
AcDbEntity
  8
0
100
AcDbLine
 10
-10.969684
 20
-8.119284
 30
8.270000000000001
 11
-10.996634
 21
-8.287606
 31
8.270000000000001
  0
LINE
  5
4A
330
17
100
AcDbEntity
  8
0
100
AcDbLine
 10
-10.996634
 20
-8.287606
 30
8.270000000000001
 11
-11.0
 21
-8.38148
 31
8.270000000000001
  0
LINE
  5
4B
330
17
100
AcDbEntity
  8
0
100
AcDbLine
 10
-11.0
 20
-8.38148
 30
8.270000000000001
 11
-10.995314
 21
-8.479776
 31
8.270000000000001
  0
LINE
  5
4C
330
17
100
AcDbEntity
  8
0
100
AcDbLine
 10
-10.995314
 20
-8.479776
 30
8.270000000000001
 11
-10.957848
 21
-8.657536
 31
8.270000000000001
  0
LINE
  5
4D
330
17
100
AcDbEntity
  8
0
100
AcDbLine
 10
-10.957848
 20
-8.657536
 30
8.270000000000001
 11
-10.882894
 21
-8.810172
 31
8.270000000000001
  0
LINE
  5
4E
330
17
100
AcDbEntity
  8
0
100
AcDbLine
 10
-10.882894
 20
-8.810172
 30
8.270000000000001
 11
-10.770452
 21
-8.937662
 31
8.270000000000001
  0
LINE
  5
4F
330
17
100
AcDbEntity
  8
0
100
AcDbLine
 10
-10.770452
 20
-8.937662
 30
8.270000000000001
 11
-10.700184
 21
-8.99198
 31
8.270000000000001
  0
LINE
  5
50
330
17
100
AcDbEntity
  8
0
100
AcDbLine
 10
-10.700184
 20
-8.99198
 30
8.270000000000001
 11
-10.620808
 21
-9.039786
 31
8.270000000000001
  0
LINE
  5
51
330
17
100
AcDbEntity
  8
0
100
AcDbLine
 10
-10.620808
 20
-9.039786
 30
8.270000000000001
 11
-10.434424
 21
-9.11628
 31
8.270000000000001
  0
LINE
  5
52
330
17
100
AcDbEntity
  8
0
100
AcDbLine
 10
-10.434424
 20
-9.11628
 30
8.270000000000001
 11
-10.211212
 21
-9.167276
 31
8.270000000000001
  0
LINE
  5
53
330
17
100
AcDbEntity
  8
0
100
AcDbLine
 10
-10.211212
 20
-9.167276
 30
8.270000000000001
 11
-9.95115
 21
-9.192774
 31
8.270000000000001
  0
LINE
  5
54
330
17
100
AcDbEntity
  8
0
100
AcDbLine
 10
-9.95115
 20
-9.192774
 30
8.270000000000001
 11
-9.807292
 21
-9.195964
 31
8.270000000000001
  0
LINE
  5
55
330
17
100
AcDbEntity
  8
0
100
AcDbLine
 10
-9.807292
 20
-9.195964
 30
8.270000000000001
 11
-9.551036
 21
-9.185976
 31
8.270000000000001
  0
LINE
  5
56
330
17
100
AcDbEntity
  8
0
100
AcDbLine
 10
-9.551036
 20
-9.185976
 30
8.270000000000001
 11
-9.28609
 21
-9.156034
 31
8.270000000000001
  0
LINE
  5
57
330
17
100
AcDbEntity
  8
0
100
AcDbLine
 10
-9.28609
 20
-9.156034
 30
8.270000000000001
 11
-9.013686
 21
-9.106314
 31
8.270000000000001
  0
LINE
  5
58
330
17
100
AcDbEntity
  8
0
100
AcDbLine
 10
-9.013686
 20
-9.106314
 30
8.270000000000001
 11
-8.733648
 21
-9.036992
 31
8.270000000000001
  0
LINE
  5
59
330
17
100
AcDbEntity
  8
0
100
AcDbLine
 10
-8.733648
 20
-9.036992
 30
8.270000000000001
 11
-8.733648
 21
-8.419958
 31
8.270000000000001
  0
LINE
  5
5A
330
17
100
AcDbEntity
  8
0
100
AcDbLine
 10
-8.733648
 20
-8.419958
 30
8.270000000000001
 11
-8.855968
 21
-8.475112
 31
8.270000000000001
  0
LINE
  5
5B
330
17
100
AcDbEntity
  8
0
100
AcDbLine
 10
-8.855968
 20
-8.475112
 30
8.270000000000001
 11
-9.104964
 21
-8.563684
 31
8.270000000000001
  0
LINE
  5
5C
330
17
100
AcDbEntity
  8
0
100
AcDbLine
 10
-9.104964
 20
-8.563684
 30
8.270000000000001
 11
-9.23164
 21
-8.59708
 31
8.270000000000001
  0
LINE
  5
5D
330
17
100
AcDbEntity
  8
0
100
AcDbLine
 10
-9.23164
 20
-8.59708
 30
8.270000000000001
 11
-9.359856
 21
-8.622798
 31
8.270000000000001
  0
LINE
  5
5E
330
17
100
AcDbEntity
  8
0
100
AcDbLine
 10
-9.359856
 20
-8.622798
 30
8.270000000000001
 11
-9.619016
 21
-8.652212
 31
8.270000000000001
  0
LINE
  5
5F
330
17
100
AcDbEntity
  8
0
100
AcDbLine
 10
-9.619016
 20
-8.652212
 30
8.270000000000001
 11
-9.74996
 21
-8.655886
 31
8.270000000000001
  0
LINE
  5
60
330
17
100
AcDbEntity
  8
0
100
AcDbLine
 10
-9.74996
 20
-8.655886
 30
8.270000000000001
 11
-9.861918
 21
-8.651794
 31
8.270000000000001
  0
LINE
  5
61
330
17
100
AcDbEntity
  8
0
100
AcDbLine
 10
-9.861918
 20
-8.651794
 30
8.270000000000001
 11
-10.04124
 21
-8.619124
 31
8.270000000000001
  0
LINE
  5
62
330
17
100
AcDbEntity
  8
0
100
AcDbLine
 10
-10.04124
 20
-8.619124
 30
8.270000000000001
 11
-10.10856
 21
-8.590546
 31
8.270000000000001
  0
LINE
  5
63
330
17
100
AcDbEntity
  8
0
100
AcDbLine
 10
-10.10856
 20
-8.590546
 30
8.270000000000001
 11
-10.161272
 21
-8.55352
 31
8.270000000000001
  0
LINE
  5
64
330
17
100
AcDbEntity
  8
0
100
AcDbLine
 10
-10.161272
 20
-8.55352
 30
8.270000000000001
 11
-10.22153
 21
-8.45551
 31
8.270000000000001
  0
LINE
  5
65
330
17
100
AcDbEntity
  8
0
100
AcDbLine
 10
-10.22153
 20
-8.45551
 30
8.270000000000001
 11
-10.229054
 21
-8.394548
 31
8.270000000000001
  0
LINE
  5
66
330
17
100
AcDbEntity
  8
0
100
AcDbLine
 10
-10.229054
 20
-8.394548
 30
8.270000000000001
 11
-10.223884
 21
-8.343596
 31
8.270000000000001
  0
LINE
  5
67
330
17
100
AcDbEntity
  8
0
100
AcDbLine
 10
-10.223884
 20
-8.343596
 30
8.270000000000001
 11
-10.182523999999999
 21
-8.262658
 31
8.270000000000001
  0
LINE
  5
68
330
17
100
AcDbEntity
  8
0
100
AcDbLine
 10
-10.182523999999999
 20
-8.262658
 30
8.270000000000001
 11
-10.146312
 21
-8.23265
 31
8.270000000000001
  0
LINE
  5
69
330
17
100
AcDbEntity
  8
0
100
AcDbLine
 10
-10.146312
 20
-8.23265
 30
8.270000000000001
 11
-10.094634
 21
-8.207614
 31
8.270000000000001
  0
LINE
  5
6A
330
17
100
AcDbEntity
  8
0
100
AcDbLine
 10
-10.094634
 20
-8.207614
 30
8.270000000000001
 11
-9.92948
 21
-8.166232
 31
8.270000000000001
  0
LINE
  5
6B
330
17
100
AcDbEntity
  8
0
100
AcDbLine
 10
-9.92948
 20
-8.166232
 30
8.270000000000001
 11
-9.816004000000001
 21
-8.149908
 31
8.270000000000001
  0
LINE
  5
6C
330
17
100
AcDbEntity
  8
0
100
AcDbLine
 10
-9.816004000000001
 20
-8.149908
 30
8.270000000000001
 11
-9.673004
 21
-8.131758
 31
8.270000000000001
  0
LINE
  5
6D
330
17
100
AcDbEntity
  8
0
100
AcDbLine
 10
-9.673004
 20
-8.131758
 30
8.270000000000001
 11
-9.422138
 21
-8.09042
 31
8.270000000000001
  0
LINE
  5
6E
330
17
100
AcDbEntity
  8
0
100
AcDbLine
 10
-9.422138
 20
-8.09042
 30
8.270000000000001
 11
-9.121926
 21
-8.001364
 31
8.270000000000001
  0
LINE
  5
6F
330
17
100
AcDbEntity
  8
0
100
AcDbLine
 10
-9.121926
 20
-8.001364
 30
8.270000000000001
 11
-8.97248
 21
-7.923968
 31
8.270000000000001
  0
LINE
  5
70
330
17
100
AcDbEntity
  8
0
100
AcDbLine
 10
-8.97248
 20
-7.923968
 30
8.270000000000001
 11
-8.912948
 21
-7.879858
 31
8.270000000000001
  0
LINE
  5
71
330
17
100
AcDbEntity
  8
0
100
AcDbLine
 10
-8.912948
 20
-7.879858
 30
8.270000000000001
 11
-8.861908
 21
-7.830952
 31
8.270000000000001
  0
LINE
  5
72
330
17
100
AcDbEntity
  8
0
100
AcDbLine
 10
-8.861908
 20
-7.830952
 30
8.270000000000001
 11
-8.780244
 21
-7.715276
 31
8.270000000000001
  0
LINE
  5
73
330
17
100
AcDbEntity
  8
0
100
AcDbLine
 10
-8.780244
 20
-7.715276
 30
8.270000000000001
 11
-8.725794
 21
-7.575708
 31
8.270000000000001
  0
LINE
  5
74
330
17
100
AcDbEntity
  8
0
100
AcDbLine
 10
-8.725794
 20
-7.575708
 30
8.270000000000001
 11
-8.69858
 21
-7.412292
 31
8.270000000000001
  0
LINE
  5
75
330
17
100
AcDbEntity
  8
0
100
AcDbLine
 10
-8.69858
 20
-7.412292
 30
8.270000000000001
 11
-8.695170000000001
 21
-7.32163
 31
8.270000000000001
  0
LINE
  5
76
330
17
100
AcDbEntity
  8
0
100
AcDbLine
 10
-8.695170000000001
 20
-7.32163
 30
8.270000000000001
 11
-8.699504000000001
 21
-7.223972
 31
8.270000000000001
  0
LINE
  5
77
330
17
100
AcDbEntity
  8
0
100
AcDbLine
 10
-8.699504000000001
 20
-7.223972
 30
8.270000000000001
 11
-8.734066
 21
-7.048302
 31
8.270000000000001
  0
LINE
  5
78
330
17
100
AcDbEntity
  8
0
100
AcDbLine
 10
-8.734066
 20
-7.048302
 30
8.270000000000001
 11
-8.803212
 21
-6.8987680000000005
 31
8.270000000000001
  0
LINE
  5
79
330
17
100
AcDbEntity
  8
0
100
AcDbLine
 10
-8.803212
 20
-6.8987680000000005
 30
8.270000000000001
 11
-8.906942
 21
-6.775348
 31
8.270000000000001
  0
LINE
  5
7A
330
17
100
AcDbEntity
  8
0
100
AcDbLine
 10
-8.906942
 20
-6.775348
 30
8.270000000000001
 11
-8.971753999999999
 21
-6.72345
 31
8.270000000000001
  0
LINE
  5
7B
330
17
100
AcDbEntity
  8
0
100
AcDbLine
 10
-8.971753999999999
 20
-6.72345
 30
8.270000000000001
 11
-9.045674
 21
-6.67769
 31
8.270000000000001
  0
LINE
  5
7C
330
17
100
AcDbEntity
  8
0
100
AcDbLine
 10
-9.045674
 20
-6.67769
 30
8.270000000000001
 11
-9.22108
 21
-6.604452
 31
8.270000000000001
  0
LINE
  5
7D
330
17
100
AcDbEntity
  8
0
100
AcDbLine
 10
-9.22108
 20
-6.604452
 30
8.270000000000001
 11
-9.433226000000001
 21
-6.5556339999999995
 31
8.270000000000001
  0
LINE
  5
7E
330
17
100
AcDbEntity
  8
0
100
AcDbLine
 10
-9.433226000000001
 20
-6.5556339999999995
 30
8.270000000000001
 11
-9.682134
 21
-6.531236
 31
8.270000000000001
  0
LINE
  5
7F
330
17
100
AcDbEntity
  8
0
100
AcDbLine
 10
-9.682134
 20
-6.531236
 30
8.270000000000001
 11
-9.82036
 21
-6.5281780000000005
 31
8.270000000000001
  0
LINE
  5
80
330
17
100
AcDbEntity
  8
0
100
AcDbLine
 10
-9.82036
 20
-6.5281780000000005
 30
8.270000000000001
 11
-10.050854000000001
 21
-6.536714
 31
8.270000000000001
  0
LINE
  5
81
330
17
100
AcDbEntity
  8
0
100
AcDbLine
 10
-10.050854000000001
 20
-6.536714
 30
8.270000000000001
 11
-10.292216
 21
-6.5623
 31
8.270000000000001
  0
LINE
  5
82
330
17
100
AcDbEntity
  8
0
100
AcDbLine
 10
-10.292216
 20
-6.5623
 30
8.270000000000001
 11
-10.550474000000001
 21
-6.605486
 31
8.270000000000001
  0
LINE
  5
83
330
17
100
AcDbEntity
  8
0
100
AcDbLine
 10
-10.550474000000001
 20
-6.605486
 30
8.270000000000001
 11
-10.830138
 21
-6.668274
 31
8.270000000000001
  0
LINE
  5
84
330
17
100
AcDbEntity
  8
0
100
AcDbLine
 10
-8.089751999999999
 20
-7.68023
 30
8.270000000000001
 11
-8.089751999999999
 21
-9.129898
 31
8.270000000000001
  0
LINE
  5
85
330
17
100
AcDbEntity
  8
0
100
AcDbLine
 10
-8.089751999999999
 20
-9.129898
 30
8.270000000000001
 11
-7.270912
 21
-9.129898
 31
8.270000000000001
  0
LINE
  5
86
330
17
100
AcDbEntity
  8
0
100
AcDbLine
 10
-7.270912
 20
-9.129898
 30
8.270000000000001
 11
-7.270912
 21
-8.753148
 31
8.270000000000001
  0
LINE
  5
87
330
17
100
AcDbEntity
  8
0
100
AcDbLine
 10
-7.270912
 20
-8.753148
 30
8.270000000000001
 11
-7.1866520000000005
 21
-8.86108
 31
8.270000000000001
  0
LINE
  5
88
330
17
100
AcDbEntity
  8
0
100
AcDbLine
 10
-7.1866520000000005
 20
-8.86108
 30
8.270000000000001
 11
-7.002622
 21
-9.029864
 31
8.270000000000001
  0
LINE
  5
89
330
17
100
AcDbEntity
  8
0
100
AcDbLine
 10
-7.002622
 20
-9.029864
 30
8.270000000000001
 11
-6.902851999999999
 21
-9.090716
 31
8.270000000000001
  0
LINE
  5
8A
330
17
100
AcDbEntity
  8
0
100
AcDbLine
 10
-6.902851999999999
 20
-9.090716
 30
8.270000000000001
 11
-6.795338
 21
-9.136762000000001
 31
8.270000000000001
  0
LINE
  5
8B
330
17
100
AcDbEntity
  8
0
100
AcDbLine
 10
-6.795338
 20
-9.136762000000001
 30
8.270000000000001
 11
-6.547068
 21
-9.189386
 31
8.270000000000001
  0
LINE
  5
8C
330
17
100
AcDbEntity
  8
0
100
AcDbLine
 10
-6.547068
 20
-9.189386
 30
8.270000000000001
 11
-6.406312
 21
-9.195964
 31
8.270000000000001
  0
LINE
  5
8D
330
17
100
AcDbEntity
  8
0
100
AcDbLine
 10
-6.406312
 20
-9.195964
 30
8.270000000000001
 11
-6.30993
 21
-9.192378
 31
8.270000000000001
  0
LINE
  5
8E
330
17
100
AcDbEntity
  8
0
100
AcDbLine
 10
-6.30993
 20
-9.192378
 30
8.270000000000001
 11
-6.13107
 21
-9.163602000000001
 31
8.270000000000001
  0
LINE
  5
8F
330
17
100
AcDbEntity
  8
0
100
AcDbLine
 10
-6.13107
 20
-9.163602000000001
 30
8.270000000000001
 11
-5.970822
 21
-9.106072
 31
8.270000000000001
  0
LINE
  5
90
330
17
100
AcDbEntity
  8
0
100
AcDbLine
 10
-5.970822
 20
-9.106072
 30
8.270000000000001
 11
-5.829164
 21
-9.019788
 31
8.270000000000001
  0
LINE
  5
91
330
17
100
AcDbEntity
  8
0
100
AcDbLine
 10
-5.829164
 20
-9.019788
 30
8.270000000000001
 11
-5.76532
 21
-8.965844
 31
8.270000000000001
  0
LINE
  5
92
330
17
100
AcDbEntity
  8
0
100
AcDbLine
 10
-5.76532
 20
-8.965844
 30
8.270000000000001
 11
-5.7076579999999995
 21
-8.906004
 31
8.270000000000001
  0
LINE
  5
93
330
17
100
AcDbEntity
  8
0
100
AcDbLine
 10
-5.7076579999999995
 20
-8.906004
 30
8.270000000000001
 11
-5.615368
 21
-8.77352
 31
8.270000000000001
  0
LINE
  5
94
330
17
100
AcDbEntity
  8
0
100
AcDbLine
 10
-5.615368
 20
-8.77352
 30
8.270000000000001
 11
-5.553833999999999
 21
-8.623986
 31
8.270000000000001
  0
LINE
  5
95
330
17
100
AcDbEntity
  8
0
100
AcDbLine
 10
-5.553833999999999
 20
-8.623986
 30
8.270000000000001
 11
-5.523078000000001
 21
-8.45738
 31
8.270000000000001
  0
LINE
  5
96
330
17
100
AcDbEntity
  8
0
100
AcDbLine
 10
-5.523078000000001
 20
-8.45738
 30
8.270000000000001
 11
-5.519228
 21
-8.367685999999999
 31
8.270000000000001
  0
LINE
  5
97
330
17
100
AcDbEntity
  8
0
100
AcDbLine
 10
-5.519228
 20
-8.367685999999999
 30
8.270000000000001
 11
-5.524046
 21
-8.259622
 31
8.270000000000001
  0
LINE
  5
98
330
17
100
AcDbEntity
  8
0
100
AcDbLine
 10
-5.524046
 20
-8.259622
 30
8.270000000000001
 11
-5.5624139999999995
 21
-8.06589
 31
8.270000000000001
  0
LINE
  5
99
330
17
100
AcDbEntity
  8
0
100
AcDbLine
 10
-5.5624139999999995
 20
-8.06589
 30
8.270000000000001
 11
-5.639194000000001
 21
-7.902012
 31
8.270000000000001
  0
LINE
  5
9A
330
17
100
AcDbEntity
  8
0
100
AcDbLine
 10
-5.639194000000001
 20
-7.902012
 30
8.270000000000001
 11
-5.754341999999999
 21
-7.767988
 31
8.270000000000001
  0
LINE
  5
9B
330
17
100
AcDbEntity
  8
0
100
AcDbLine
 10
-5.754341999999999
 20
-7.767988
 30
8.270000000000001
 11
-5.826304
 21
-7.712174
 31
8.270000000000001
  0
LINE
  5
9C
330
17
100
AcDbEntity
  8
0
100
AcDbLine
 10
-5.826304
 20
-7.712174
 30
8.270000000000001
 11
-5.908716
 21
-7.66318
 31
8.270000000000001
  0
LINE
  5
9D
330
17
100
AcDbEntity
  8
0
100
AcDbLine
 10
-5.908716
 20
-7.66318
 30
8.270000000000001
 11
-6.106363999999999
 21
-7.584772
 31
8.270000000000001
  0
LINE
  5
9E
330
17
100
AcDbEntity
  8
0
100
AcDbLine
 10
-6.106363999999999
 20
-7.584772
 30
8.270000000000001
 11
-6.347726
 21
-7.5325
 31
8.270000000000001
  0
LINE
  5
9F
330
17
100
AcDbEntity
  8
0
100
AcDbLine
 10
-6.347726
 20
-7.5325
 30
8.270000000000001
 11
-6.632823999999999
 21
-7.506364
 31
8.270000000000001
  0
LINE
  5
A0
330
17
100
AcDbEntity
  8
0
100
AcDbLine
 10
-6.632823999999999
 20
-7.506364
 30
8.270000000000001
 11
-6.791796
 21
-7.503108
 31
8.270000000000001
  0
LINE
  5
A1
330
17
100
AcDbEntity
  8
0
100
AcDbLine
 10
-6.791796
 20
-7.503108
 30
8.270000000000001
 11
-7.270912
 21
-7.503108
 31
8.270000000000001
  0
LINE
  5
A2
330
17
100
AcDbEntity
  8
0
100
AcDbLine
 10
-7.270912
 20
-7.503108
 30
8.270000000000001
 11
-7.270912
 21
-7.439946
 31
8.270000000000001
  0
LINE
  5
A3
330
17
100
AcDbEntity
  8
0
100
AcDbLine
 10
-7.270912
 20
-7.439946
 30
8.270000000000001
 11
-7.261386
 21
-7.349878
 31
8.270000000000001
  0
LINE
  5
A4
330
17
100
AcDbEntity
  8
0
100
AcDbLine
 10
-7.261386
 20
-7.349878
 30
8.270000000000001
 11
-7.185156
 21
-7.208682
 31
8.270000000000001
  0
LINE
  5
A5
330
17
100
AcDbEntity
  8
0
100
AcDbLine
 10
-7.185156
 20
-7.208682
 30
8.270000000000001
 11
-7.1184520000000004
 21
-7.157554
 31
8.270000000000001
  0
LINE
  5
A6
330
17
100
AcDbEntity
  8
0
100
AcDbLine
 10
-7.1184520000000004
 20
-7.157554
 30
8.270000000000001
 11
-7.031926
 21
-7.118174
 31
8.270000000000001
  0
LINE
  5
A7
330
17
100
AcDbEntity
  8
0
100
AcDbLine
 10
-7.031926
 20
-7.118174
 30
8.270000000000001
 11
-6.79492
 21
-7.073162
 31
8.270000000000001
  0
LINE
  5
A8
330
17
100
AcDbEntity
  8
0
100
AcDbLine
 10
-6.79492
 20
-7.073162
 30
8.270000000000001
 11
-6.644418
 21
-7.067552
 31
8.270000000000001
  0
LINE
  5
A9
330
17
100
AcDbEntity
  8
0
100
AcDbLine
 10
-6.644418
 20
-7.067552
 30
8.270000000000001
 11
-6.516356
 21
-7.0708079999999995
 31
8.270000000000001
  0
LINE
  5
AA
330
17
100
AcDbEntity
  8
0
100
AcDbLine
 10
-6.516356
 20
-7.0708079999999995
 30
8.270000000000001
 11
-6.27352
 21
-7.096944
 31
8.270000000000001
  0
LINE
  5
AB
330
17
100
AcDbEntity
  8
0
100
AcDbLine
 10
-6.27352
 20
-7.096944
 30
8.270000000000001
 11
-6.15879
 21
-7.119802
 31
8.270000000000001
  0
LINE
  5
AC
330
17
100
AcDbEntity
  8
0
100
AcDbLine
 10
-6.15879
 20
-7.119802
 30
8.270000000000001
 11
-6.04857
 21
-7.149216
 31
8.270000000000001
  0
LINE
  5
AD
330
17
100
AcDbEntity
  8
0
100
AcDbLine
 10
-6.04857
 20
-7.149216
 30
8.270000000000001
 11
-5.839878
 21
-7.227602
 31
8.270000000000001
  0
LINE
  5
AE
330
17
100
AcDbEntity
  8
0
100
AcDbLine
 10
-5.839878
 20
-7.227602
 30
8.270000000000001
 11
-5.7413620000000005
 21
-7.276618
 31
8.270000000000001
  0
LINE
  5
AF
330
17
100
AcDbEntity
  8
0
100
AcDbLine
 10
-5.7413620000000005
 20
-7.276618
 30
8.270000000000001
 11
-5.7413620000000005
 21
-6.657384
 31
8.270000000000001
  0
LINE
  5
B0
330
17
100
AcDbEntity
  8
0
100
AcDbLine
 10
-5.7413620000000005
 20
-6.657384
 30
8.270000000000001
 11
-6.003074000000001
 21
-6.601306
 31
8.270000000000001
  0
LINE
  5
B1
330
17
100
AcDbEntity
  8
0
100
AcDbLine
 10
-6.003074000000001
 20
-6.601306
 30
8.270000000000001
 11
-6.265490000000001
 21
-6.560848
 31
8.270000000000001
  0
LINE
  5
B2
330
17
100
AcDbEntity
  8
0
100
AcDbLine
 10
-6.265490000000001
 20
-6.560848
 30
8.270000000000001
 11
-6.52883
 21
-6.53634
 31
8.270000000000001
  0
LINE
  5
B3
330
17
100
AcDbEntity
  8
0
100
AcDbLine
 10
-6.52883
 20
-6.53634
 30
8.270000000000001
 11
-6.791796
 21
-6.5281780000000005
 31
8.270000000000001
  0
LINE
  5
B4
330
17
100
AcDbEntity
  8
0
100
AcDbLine
 10
-6.791796
 20
-6.5281780000000005
 30
8.270000000000001
 11
-6.957675999999999
 21
-6.532401999999999
 31
8.270000000000001
  0
LINE
  5
B5
330
17
100
AcDbEntity
  8
0
100
AcDbLine
 10
-6.957675999999999
 20
-6.532401999999999
 30
8.270000000000001
 11
-7.253576
 21
-6.56626
 31
8.270000000000001
  0
LINE
  5
B6
330
17
100
AcDbEntity
  8
0
100
AcDbLine
 10
-7.253576
 20
-6.56626
 30
8.270000000000001
 11
-7.50167
 21
-6.633954
 31
8.270000000000001
  0
LINE
  5
B7
330
17
100
AcDbEntity
  8
0
100
AcDbLine
 10
-7.50167
 20
-6.633954
 30
8.270000000000001
 11
-7.701936
 21
-6.735484
 31
8.270000000000001
  0
LINE
  5
B8
330
17
100
AcDbEntity
  8
0
100
AcDbLine
 10
-7.701936
 20
-6.735484
 30
8.270000000000001
 11
-7.784128000000001
 21
-6.798954
 31
8.270000000000001
  0
LINE
  5
B9
330
17
100
AcDbEntity
  8
0
100
AcDbLine
 10
-7.784128000000001
 20
-6.798954
 30
8.270000000000001
 11
-7.85576
 21
-6.87195
 31
8.270000000000001
  0
LINE
  5
BA
330
17
100
AcDbEntity
  8
0
100
AcDbLine
 10
-7.85576
 20
-6.87195
 30
8.270000000000001
 11
-7.9703800000000005
 21
-7.049798
 31
8.270000000000001
  0
LINE
  5
BB
330
17
100
AcDbEntity
  8
0
100
AcDbLine
 10
-7.9703800000000005
 20
-7.049798
 30
8.270000000000001
 11
-8.046764
 21
-7.270128
 31
8.270000000000001
  0
LINE
  5
BC
330
17
100
AcDbEntity
  8
0
100
AcDbLine
 10
-8.046764
 20
-7.270128
 30
8.270000000000001
 11
-8.084978
 21
-7.5329180000000004
 31
8.270000000000001
  0
LINE
  5
BD
330
17
100
AcDbEntity
  8
0
100
AcDbLine
 10
-8.084978
 20
-7.5329180000000004
 30
8.270000000000001
 11
-8.089751999999999
 21
-7.68023
 31
8.270000000000001
  0
LINE
  5
BE
330
17
100
AcDbEntity
  8
0
100
AcDbLine
 10
-6.848402
 20
-7.98658
 30
8.270000000000001
 11
-6.729227999999999
 21
-7.99197
 31
8.270000000000001
  0
LINE
  5
BF
330
17
100
AcDbEntity
  8
0
100
AcDbLine
 10
-6.729227999999999
 20
-7.99197
 30
8.270000000000001
 11
-6.5379380000000005
 21
-8.035156
 31
8.270000000000001
  0
LINE
  5
C0
330
17
100
AcDbEntity
  8
0
100
AcDbLine
 10
-6.5379380000000005
 20
-8.035156
 30
8.270000000000001
 11
-6.465844
 21
-8.072952
 31
8.270000000000001
  0
LINE
  5
C1
330
17
100
AcDbEntity
  8
0
100
AcDbLine
 10
-6.465844
 20
-8.072952
 30
8.270000000000001
 11
-6.409941999999999
 21
-8.120956
 31
8.270000000000001
  0
LINE
  5
C2
330
17
100
AcDbEntity
  8
0
100
AcDbLine
 10
-6.409941999999999
 20
-8.120956
 30
8.270000000000001
 11
-6.346076
 21
-8.248006
 31
8.270000000000001
  0
LINE
  5
C3
330
17
100
AcDbEntity
  8
0
100
AcDbLine
 10
-6.346076
 20
-8.248006
 30
8.270000000000001
 11
-6.338089999999999
 21
-8.32703
 31
8.270000000000001
  0
LINE
  5
C4
330
17
100
AcDbEntity
  8
0
100
AcDbLine
 10
-6.338089999999999
 20
-8.32703
 30
8.270000000000001
 11
-6.344536
 21
-8.39985
 31
8.270000000000001
  0
LINE
  5
C5
330
17
100
AcDbEntity
  8
0
100
AcDbLine
 10
-6.344536
 20
-8.39985
 30
8.270000000000001
 11
-6.396059999999999
 21
-8.520718
 31
8.270000000000001
  0
LINE
  5
C6
330
17
100
AcDbEntity
  8
0
100
AcDbLine
 10
-6.396059999999999
 20
-8.520718
 30
8.270000000000001
 11
-6.44116
 21
-8.568766
 31
8.270000000000001
  0
LINE
  5
C7
330
17
100
AcDbEntity
  8
0
100
AcDbLine
 10
-6.44116
 20
-8.568766
 30
8.270000000000001
 11
-6.498052
 21
-8.60687
 31
8.270000000000001
  0
LINE
  5
C8
330
17
100
AcDbEntity
  8
0
100
AcDbLine
 10
-6.498052
 20
-8.60687
 30
8.270000000000001
 11
-6.6418
 21
-8.65043
 31
8.270000000000001
  0
LINE
  5
C9
330
17
100
AcDbEntity
  8
0
100
AcDbLine
 10
-6.6418
 20
-8.65043
 30
8.270000000000001
 11
-6.728634
 21
-8.655886
 31
8.270000000000001
  0
LINE
  5
CA
330
17
100
AcDbEntity
  8
0
100
AcDbLine
 10
-6.728634
 20
-8.655886
 30
8.270000000000001
 11
-6.838480000000001
 21
-8.645612
 31
8.270000000000001
  0
LINE
  5
CB
330
17
100
AcDbEntity
  8
0
100
AcDbLine
 10
-6.838480000000001
 20
-8.645612
 30
8.270000000000001
 11
-7.0312
 21
-8.563596
 31
8.270000000000001
  0
LINE
  5
CC
330
17
100
AcDbEntity
  8
0
100
AcDbLine
 10
-7.0312
 20
-8.563596
 30
8.270000000000001
 11
-7.114096
 21
-8.49181
 31
8.270000000000001
  0
LINE
  5
CD
330
17
100
AcDbEntity
  8
0
100
AcDbLine
 10
-7.114096
 20
-8.49181
 30
8.270000000000001
 11
-7.182714000000001
 21
-8.40425
 31
8.270000000000001
  0
LINE
  5
CE
330
17
100
AcDbEntity
  8
0
100
AcDbLine
 10
-7.182714000000001
 20
-8.40425
 30
8.270000000000001
 11
-7.2611
 21
-8.198088
 31
8.270000000000001
  0
LINE
  5
CF
330
17
100
AcDbEntity
  8
0
100
AcDbLine
 10
-7.2611
 20
-8.198088
 30
8.270000000000001
 11
-7.270912
 21
-8.079486
 31
8.270000000000001
  0
LINE
  5
D0
330
17
100
AcDbEntity
  8
0
100
AcDbLine
 10
-7.270912
 20
-8.079486
 30
8.270000000000001
 11
-7.270912
 21
-7.98658
 31
8.270000000000001
  0
LINE
  5
D1
330
17
100
AcDbEntity
  8
0
100
AcDbLine
 10
-7.270912
 20
-7.98658
 30
8.270000000000001
 11
-6.848402
 21
-7.98658
 31
8.270000000000001
  0
LINE
  5
D2
330
17
100
AcDbEntity
  8
0
100
AcDbLine
 10
-4.956644
 20
-7.582946
 30
8.270000000000001
 11
-4.956644
 21
-9.129898
 31
8.270000000000001
  0
LINE
  5
D3
330
17
100
AcDbEntity
  8
0
100
AcDbLine
 10
-4.956644
 20
-9.129898
 30
8.270000000000001
 11
-4.139982
 21
-9.129898
 31
8.270000000000001
  0
LINE
  5
D4
330
17
100
AcDbEntity
  8
0
100
AcDbLine
 10
-4.139982
 20
-9.129898
 30
8.270000000000001
 11
-4.139982
 21
-7.945924
 31
8.270000000000001
  0
LINE
  5
D5
330
17
100
AcDbEntity
  8
0
100
AcDbLine
 10
-4.139982
 20
-7.945924
 30
8.270000000000001
 11
-4.136352
 21
-7.668064
 31
8.270000000000001
  0
LINE
  5
D6
330
17
100
AcDbEntity
  8
0
100
AcDbLine
 10
-4.136352
 20
-7.668064
 30
8.270000000000001
 11
-4.125462
 21
-7.492218
 31
8.270000000000001
  0
LINE
  5
D7
330
17
100
AcDbEntity
  8
0
100
AcDbLine
 10
-4.125462
 20
-7.492218
 30
8.270000000000001
 11
-4.105486
 21
-7.383868
 31
8.270000000000001
  0
LINE
  5
D8
330
17
100
AcDbEntity
  8
0
100
AcDbLine
 10
-4.105486
 20
-7.383868
 30
8.270000000000001
 11
-4.074642
 21
-7.308562
 31
8.270000000000001
  0
LINE
  5
D9
330
17
100
AcDbEntity
  8
0
100
AcDbLine
 10
-4.074642
 20
-7.308562
 30
8.270000000000001
 11
-4.04855
 21
-7.270854
 31
8.270000000000001
  0
LINE
  5
DA
330
17
100
AcDbEntity
  8
0
100
AcDbLine
 10
-4.04855
 20
-7.270854
 30
8.270000000000001
 11
-3.9835840000000005
 21
-7.208792
 31
8.270000000000001
  0
LINE
  5
DB
330
17
100
AcDbEntity
  8
0
100
AcDbLine
 10
-3.9835840000000005
 20
-7.208792
 30
8.270000000000001
 11
-3.9446879999999998
 21
-7.184416
 31
8.270000000000001
  0
LINE
  5
DC
330
17
100
AcDbEntity
  8
0
100
AcDbLine
 10
-3.9446879999999998
 20
-7.184416
 30
8.270000000000001
 11
-3.902602
 21
-7.165056
 31
8.270000000000001
  0
LINE
  5
DD
330
17
100
AcDbEntity
  8
0
100
AcDbLine
 10
-3.902602
 20
-7.165056
 30
8.270000000000001
 11
-3.809674
 21
-7.142902
 31
8.270000000000001
  0
LINE
  5
DE
330
17
100
AcDbEntity
  8
0
100
AcDbLine
 10
-3.809674
 20
-7.142902
 30
8.270000000000001
 11
-3.7588540000000004
 21
-7.14013
 31
8.270000000000001
  0
LINE
  5
DF
330
17
100
AcDbEntity
  8
0
100
AcDbLine
 10
-3.7588540000000004
 20
-7.14013
 30
8.270000000000001
 11
-3.697034
 21
-7.14321
 31
8.270000000000001
  0
LINE
  5
E0
330
17
100
AcDbEntity
  8
0
100
AcDbLine
 10
-3.697034
 20
-7.14321
 30
8.270000000000001
 11
-3.5836240000000004
 21
-7.167806
 31
8.270000000000001
  0
LINE
  5
E1
330
17
100
AcDbEntity
  8
0
100
AcDbLine
 10
-3.5836240000000004
 20
-7.167806
 30
8.270000000000001
 11
-3.48381
 21
-7.216976
 31
8.270000000000001
  0
LINE
  5
E2
330
17
100
AcDbEntity
  8
0
100
AcDbLine
 10
-3.48381
 20
-7.216976
 30
8.270000000000001
 11
-3.397592
 21
-7.290764
 31
8.270000000000001
  0
LINE
  5
E3
330
17
100
AcDbEntity
  8
0
100
AcDbLine
 10
-3.397592
 20
-7.290764
 30
8.270000000000001
 11
-3.359598
 21
-7.336854
 31
8.270000000000001
  0
LINE
  5
E4
330
17
100
AcDbEntity
  8
0
100
AcDbLine
 10
-3.359598
 20
-7.336854
 30
8.270000000000001
 11
-3.325564
 21
-7.388224
 31
8.270000000000001
  0
LINE
  5
E5
330
17
100
AcDbEntity
  8
0
100
AcDbLine
 10
-3.325564
 20
-7.388224
 30
8.270000000000001
 11
-3.271136
 21
-7.505088
 31
8.270000000000001
  0
LINE
  5
E6
330
17
100
AcDbEntity
  8
0
100
AcDbLine
 10
-3.271136
 20
-7.505088
 30
8.270000000000001
 11
-3.2234840000000005
 21
-7.715804
 31
8.270000000000001
  0
LINE
  5
E7
330
17
100
AcDbEntity
  8
0
100
AcDbLine
 10
-3.2234840000000005
 20
-7.715804
 30
8.270000000000001
 11
-3.2144199999999996
 21
-7.879858
 31
8.270000000000001
  0
LINE
  5
E8
330
17
100
AcDbEntity
  8
0
100
AcDbLine
 10
-3.2144199999999996
 20
-7.879858
 30
8.270000000000001
 11
-3.2144199999999996
 21
-9.129898
 31
8.270000000000001
  0
LINE
  5
E9
330
17
100
AcDbEntity
  8
0
100
AcDbLine
 10
-3.2144199999999996
 20
-9.129898
 30
8.270000000000001
 11
-2.402818
 21
-9.129898
 31
8.270000000000001
  0
LINE
  5
EA
330
17
100
AcDbEntity
  8
0
100
AcDbLine
 10
-2.402818
 20
-9.129898
 30
8.270000000000001
 11
-2.402818
 21
-6.589162
 31
8.270000000000001
  0
LINE
  5
EB
330
17
100
AcDbEntity
  8
0
100
AcDbLine
 10
-2.402818
 20
-6.589162
 30
8.270000000000001
 11
-3.2144199999999996
 21
-6.589162
 31
8.270000000000001
  0
LINE
  5
EC
330
17
100
AcDbEntity
  8
0
100
AcDbLine
 10
-3.2144199999999996
 20
-6.589162
 30
8.270000000000001
 11
-3.2144199999999996
 21
-6.96083
 31
8.270000000000001
  0
LINE
  5
ED
330
17
100
AcDbEntity
  8
0
100
AcDbLine
 10
-3.2144199999999996
 20
-6.96083
 30
8.270000000000001
 11
-3.307656
 21
-6.857078
 31
8.270000000000001
  0
LINE
  5
EE
330
17
100
AcDbEntity
  8
0
100
AcDbLine
 10
-3.307656
 20
-6.857078
 30
8.270000000000001
 11
-3.502554
 21
-6.693376
 31
8.270000000000001
  0
LINE
  5
EF
330
17
100
AcDbEntity
  8
0
100
AcDbLine
 10
-3.502554
 20
-6.693376
 30
8.270000000000001
 11
-3.604238
 21
-6.633448
 31
8.270000000000001
  0
LINE
  5
F0
330
17
100
AcDbEntity
  8
0
100
AcDbLine
 10
-3.604238
 20
-6.633448
 30
8.270000000000001
 11
-3.710366
 21
-6.58738
 31
8.270000000000001
  0
LINE
  5
F1
330
17
100
AcDbEntity
  8
0
100
AcDbLine
 10
-3.710366
 20
-6.58738
 30
8.270000000000001
 11
-3.93866
 21
-6.534756
 31
8.270000000000001
  0
LINE
  5
F2
330
17
100
AcDbEntity
  8
0
100
AcDbLine
 10
-3.93866
 20
-6.534756
 30
8.270000000000001
 11
-4.060848
 21
-6.5281780000000005
 31
8.270000000000001
  0
LINE
  5
F3
330
17
100
AcDbEntity
  8
0
100
AcDbLine
 10
-4.060848
 20
-6.5281780000000005
 30
8.270000000000001
 11
-4.167504
 21
-6.532401999999999
 31
8.270000000000001
  0
LINE
  5
F4
330
17
100
AcDbEntity
  8
0
100
AcDbLine
 10
-4.167504
 20
-6.532401999999999
 30
8.270000000000001
 11
-4.360972
 21
-6.56615
 31
8.270000000000001
  0
LINE
  5
F5
330
17
100
AcDbEntity
  8
0
100
AcDbLine
 10
-4.360972
 20
-6.56615
 30
8.270000000000001
 11
-4.52793
 21
-6.633668
 31
8.270000000000001
  0
LINE
  5
F6
330
17
100
AcDbEntity
  8
0
100
AcDbLine
 10
-4.52793
 20
-6.633668
 30
8.270000000000001
 11
-4.6684
 21
-6.734934
 31
8.270000000000001
  0
LINE
  5
F7
330
17
100
AcDbEntity
  8
0
100
AcDbLine
 10
-4.6684
 20
-6.734934
 30
8.270000000000001
 11
-4.728702
 21
-6.798228
 31
8.270000000000001
  0
LINE
  5
F8
330
17
100
AcDbEntity
  8
0
100
AcDbLine
 10
-4.728702
 20
-6.798228
 30
8.270000000000001
 11
-4.7821180000000005
 21
-6.869398
 31
8.270000000000001
  0
LINE
  5
F9
330
17
100
AcDbEntity
  8
0
100
AcDbLine
 10
-4.7821180000000005
 20
-6.869398
 30
8.270000000000001
 11
-4.86761
 21
-7.034816
 31
8.270000000000001
  0
LINE
  5
FA
330
17
100
AcDbEntity
  8
0
100
AcDbLine
 10
-4.86761
 20
-7.034816
 30
8.270000000000001
 11
-4.924589999999999
 21
-7.231012
 31
8.270000000000001
  0
LINE
  5
FB
330
17
100
AcDbEntity
  8
0
100
AcDbLine
 10
-4.924589999999999
 20
-7.231012
 30
8.270000000000001
 11
-4.95308
 21
-7.457942
 31
8.270000000000001
  0
LINE
  5
FC
330
17
100
AcDbEntity
  8
0
100
AcDbLine
 10
-4.95308
 20
-7.457942
 30
8.270000000000001
 11
-4.956644
 21
-7.582946
 31
8.270000000000001
  0
LINE
  5
FD
330
17
100
AcDbEntity
  8
0
100
AcDbLine
 10
0.932096
 20
-8.14047
 30
8.270000000000001
 11
0.932096
 21
-6.589162
 31
8.270000000000001
  0
LINE
  5
FE
330
17
100
AcDbEntity
  8
0
100
AcDbLine
 10
0.932096
 20
-6.589162
 30
8.270000000000001
 11
0.115412
 21
-6.589162
 31
8.270000000000001
  0
LINE
  5
FF
330
17
100
AcDbEntity
  8
0
100
AcDbLine
 10
0.115412
 20
-6.589162
 30
8.270000000000001
 11
0.115412
 21
-6.84324
 31
8.270000000000001
  0
LINE
  5
100
330
17
100
AcDbEntity
  8
0
100
AcDbLine
 10
0.115412
 20
-6.84324
 30
8.270000000000001
 11
0.115962
 21
-7.07589
 31
8.270000000000001
  0
LINE
  5
101
330
17
100
AcDbEntity
  8
0
100
AcDbLine
 10
0.115962
 20
-7.07589
 30
8.270000000000001
 11
0.11759
 21
-7.3615379999999995
 31
8.270000000000001
  0
LINE
  5
102
330
17
100
AcDbEntity
  8
0
100
AcDbLine
 10
0.11759
 20
-7.3615379999999995
 30
8.270000000000001
 11
0.11924000000000001
 21
-7.6216
 31
8.270000000000001
  0
LINE
  5
103
330
17
100
AcDbEntity
  8
0
100
AcDbLine
 10
0.11924000000000001
 20
-7.6216
 30
8.270000000000001
 11
0.119768
 21
-7.777492
 31
8.270000000000001
  0
LINE
  5
104
330
17
100
AcDbEntity
  8
0
100
AcDbLine
 10
0.119768
 20
-7.777492
 30
8.270000000000001
 11
0.115786
 21
-8.041008
 31
8.270000000000001
  0
LINE
  5
105
330
17
100
AcDbEntity
  8
0
100
AcDbLine
 10
0.115786
 20
-8.041008
 30
8.270000000000001
 11
0.10381800000000001
 21
-8.218878
 31
8.270000000000001
  0
LINE
  5
106
330
17
100
AcDbEntity
  8
0
100
AcDbLine
 10
0.10381800000000001
 20
-8.218878
 30
8.270000000000001
 11
0.082214
 21
-8.335566
 31
8.270000000000001
  0
LINE
  5
107
330
17
100
AcDbEntity
  8
0
100
AcDbLine
 10
0.082214
 20
-8.335566
 30
8.270000000000001
 11
0.049367999999999995
 21
-8.415602
 31
8.270000000000001
  0
LINE
  5
108
330
17
100
AcDbEntity
  8
0
100
AcDbLine
 10
0.049367999999999995
 20
-8.415602
 30
8.270000000000001
 11
0.022726000000000003
 21
-8.452936
 31
8.270000000000001
  0
LINE
  5
109
330
17
100
AcDbEntity
  8
0
100
AcDbLine
 10
0.022726000000000003
 20
-8.452936
 30
8.270000000000001
 11
-0.04224
 21
-8.514272
 31
8.270000000000001
  0
LINE
  5
10A
330
17
100
AcDbEntity
  8
0
100
AcDbLine
 10
-0.04224
 20
-8.514272
 30
8.270000000000001
 11
-0.080586
 21
-8.538274
 31
8.270000000000001
  0
LINE
  5
10B
330
17
100
AcDbEntity
  8
0
100
AcDbLine
 10
-0.080586
 20
-8.538274
 30
8.270000000000001
 11
-0.122364
 21
-8.557018
 31
8.270000000000001
  0
LINE
  5
10C
330
17
100
AcDbEntity
  8
0
100
AcDbLine
 10
-0.122364
 20
-8.557018
 30
8.270000000000001
 11
-0.214918
 21
-8.578424
 31
8.270000000000001
  0
LINE
  5
10D
330
17
100
AcDbEntity
  8
0
100
AcDbLine
 10
-0.214918
 20
-8.578424
 30
8.270000000000001
 11
-0.265694
 21
-8.581108
 31
8.270000000000001
  0
LINE
  5
10E
330
17
100
AcDbEntity
  8
0
100
AcDbLine
 10
-0.265694
 20
-8.581108
 30
8.270000000000001
 11
-0.32751399999999997
 21
-8.57805
 31
8.270000000000001
  0
LINE
  5
10F
330
17
100
AcDbEntity
  8
0
100
AcDbLine
 10
-0.32751399999999997
 20
-8.57805
 30
8.270000000000001
 11
-0.44092400000000004
 21
-8.553652
 31
8.270000000000001
  0
LINE
  5
110
330
17
100
AcDbEntity
  8
0
100
AcDbLine
 10
-0.44092400000000004
 20
-8.553652
 30
8.270000000000001
 11
-0.540738
 21
-8.504834
 31
8.270000000000001
  0
LINE
  5
111
330
17
100
AcDbEntity
  8
0
100
AcDbLine
 10
-0.540738
 20
-8.504834
 30
8.270000000000001
 11
-0.626956
 21
-8.431596
 31
8.270000000000001
  0
LINE
  5
112
330
17
100
AcDbEntity
  8
0
100
AcDbLine
 10
-0.626956
 20
-8.431596
 30
8.270000000000001
 11
-0.6649499999999999
 21
-8.385836
 31
8.270000000000001
  0
LINE
  5
113
330
17
100
AcDbEntity
  8
0
100
AcDbLine
 10
-0.6649499999999999
 20
-8.385836
 30
8.270000000000001
 11
-0.698984
 21
-8.334642
 31
8.270000000000001
  0
LINE
  5
114
330
17
100
AcDbEntity
  8
0
100
AcDbLine
 10
-0.698984
 20
-8.334642
 30
8.270000000000001
 11
-0.7534339999999999
 21
-8.218042
 31
8.270000000000001
  0
LINE
  5
115
330
17
100
AcDbEntity
  8
0
100
AcDbLine
 10
-0.7534339999999999
 20
-8.218042
 30
8.270000000000001
 11
-0.801064
 21
-8.007568
 31
8.270000000000001
  0
LINE
  5
116
330
17
100
AcDbEntity
  8
0
100
AcDbLine
 10
-0.801064
 20
-8.007568
 30
8.270000000000001
 11
-0.8101280000000001
 21
-7.843558
 31
8.270000000000001
  0
LINE
  5
117
330
17
100
AcDbEntity
  8
0
100
AcDbLine
 10
-0.8101280000000001
 20
-7.843558
 30
8.270000000000001
 11
-0.8101280000000001
 21
-6.589162
 31
8.270000000000001
  0
LINE
  5
118
330
17
100
AcDbEntity
  8
0
100
AcDbLine
 10
-0.8101280000000001
 20
-6.589162
 30
8.270000000000001
 11
-1.622456
 21
-6.589162
 31
8.270000000000001
  0
LINE
  5
119
330
17
100
AcDbEntity
  8
0
100
AcDbLine
 10
-1.622456
 20
-6.589162
 30
8.270000000000001
 11
-1.622456
 21
-9.129898
 31
8.270000000000001
  0
LINE
  5
11A
330
17
100
AcDbEntity
  8
0
100
AcDbLine
 10
-1.622456
 20
-9.129898
 30
8.270000000000001
 11
-0.8101280000000001
 21
-9.129898
 31
8.270000000000001
  0
LINE
  5
11B
330
17
100
AcDbEntity
  8
0
100
AcDbLine
 10
-0.8101280000000001
 20
-9.129898
 30
8.270000000000001
 11
-0.8101280000000001
 21
-8.762586
 31
8.270000000000001
  0
LINE
  5
11C
330
17
100
AcDbEntity
  8
0
100
AcDbLine
 10
-0.8101280000000001
 20
-8.762586
 30
8.270000000000001
 11
-0.716936
 21
-8.866404
 31
8.270000000000001
  0
LINE
  5
11D
330
17
100
AcDbEntity
  8
0
100
AcDbLine
 10
-0.716936
 20
-8.866404
 30
8.270000000000001
 11
-0.52239
 21
-9.030458
 31
8.270000000000001
  0
LINE
  5
11E
330
17
100
AcDbEntity
  8
0
100
AcDbLine
 10
-0.52239
 20
-9.030458
 30
8.270000000000001
 11
-0.42103599999999997
 21
-9.090716
 31
8.270000000000001
  0
LINE
  5
11F
330
17
100
AcDbEntity
  8
0
100
AcDbLine
 10
-0.42103599999999997
 20
-9.090716
 30
8.270000000000001
 11
-0.315744
 21
-9.136762000000001
 31
8.270000000000001
  0
LINE
  5
120
330
17
100
AcDbEntity
  8
0
100
AcDbLine
 10
-0.315744
 20
-9.136762000000001
 30
8.270000000000001
 11
-0.089606
 21
-9.189386
 31
8.270000000000001
  0
LINE
  5
121
330
17
100
AcDbEntity
  8
0
100
AcDbLine
 10
-0.089606
 20
-9.189386
 30
8.270000000000001
 11
0.031218
 21
-9.195964
 31
8.270000000000001
  0
LINE
  5
122
330
17
100
AcDbEntity
  8
0
100
AcDbLine
 10
0.031218
 20
-9.195964
 30
8.270000000000001
 11
0.138094
 21
-9.19174
 31
8.270000000000001
  0
LINE
  5
123
330
17
100
AcDbEntity
  8
0
100
AcDbLine
 10
0.138094
 20
-9.19174
 30
8.270000000000001
 11
0.33209
 21
-9.157992
 31
8.270000000000001
  0
LINE
  5
124
330
17
100
AcDbEntity
  8
0
100
AcDbLine
 10
0.33209
 20
-9.157992
 30
8.270000000000001
 11
0.49977400000000005
 21
-9.090474
 31
8.270000000000001
  0
LINE
  5
125
330
17
100
AcDbEntity
  8
0
100
AcDbLine
 10
0.49977400000000005
 20
-9.090474
 30
8.270000000000001
 11
0.641146
 21
-8.989208
 31
8.270000000000001
  0
LINE
  5
126
330
17
100
AcDbEntity
  8
0
100
AcDbLine
 10
0.641146
 20
-8.989208
 30
8.270000000000001
 11
0.7019759999999999
 21
-8.925914
 31
8.270000000000001
  0
LINE
  5
127
330
17
100
AcDbEntity
  8
0
100
AcDbLine
 10
0.7019759999999999
 20
-8.925914
 30
8.270000000000001
 11
0.755898
 21
-8.854568
 31
8.270000000000001
  0
LINE
  5
128
330
17
100
AcDbEntity
  8
0
100
AcDbLine
 10
0.755898
 20
-8.854568
 30
8.270000000000001
 11
0.842204
 21
-8.688886
 31
8.270000000000001
  0
LINE
  5
129
330
17
100
AcDbEntity
  8
0
100
AcDbLine
 10
0.842204
 20
-8.688886
 30
8.270000000000001
 11
0.899734
 21
-8.492514
 31
8.270000000000001
  0
LINE
  5
12A
330
17
100
AcDbEntity
  8
0
100
AcDbLine
 10
0.899734
 20
-8.492514
 30
8.270000000000001
 11
0.928488
 21
-8.265496
 31
8.270000000000001
  0
LINE
  5
12B
330
17
100
AcDbEntity
  8
0
100
AcDbLine
 10
0.928488
 20
-8.265496
 30
8.270000000000001
 11
0.932096
 21
-8.14047
 31
8.270000000000001
  0
LINE
  5
12C
330
17
100
AcDbEntity
  8
0
100
AcDbLine
 10
6.487623999999999
 20
-6.589162
 30
8.270000000000001
 11
5.675318
 21
-6.589162
 31
8.270000000000001
  0
LINE
  5
12D
330
17
100
AcDbEntity
  8
0
100
AcDbLine
 10
5.675318
 20
-6.589162
 30
8.270000000000001
 11
4.992218
 21
-8.313236
 31
8.270000000000001
  0
LINE
  5
12E
330
17
100
AcDbEntity
  8
0
100
AcDbLine
 10
4.992218
 20
-8.313236
 30
8.270000000000001
 11
4.411462
 21
-6.589162
 31
8.270000000000001
  0
LINE
  5
12F
330
17
100
AcDbEntity
  8
0
100
AcDbLine
 10
4.411462
 20
-6.589162
 30
8.270000000000001
 11
3.599882
 21
-6.589162
 31
8.270000000000001
  0
LINE
  5
130
330
17
100
AcDbEntity
  8
0
100
AcDbLine
 10
3.599882
 20
-6.589162
 30
8.270000000000001
 11
4.668444
 21
-9.370182
 31
8.270000000000001
  0
LINE
  5
131
330
17
100
AcDbEntity
  8
0
100
AcDbLine
 10
4.668444
 20
-9.370182
 30
8.270000000000001
 11
4.752066
 21
-9.566510000000001
 31
8.270000000000001
  0
LINE
  5
132
330
17
100
AcDbEntity
  8
0
100
AcDbLine
 10
4.752066
 20
-9.566510000000001
 30
8.270000000000001
 11
4.890248000000001
 21
-9.80092
 31
8.270000000000001
  0
LINE
  5
133
330
17
100
AcDbEntity
  8
0
100
AcDbLine
 10
4.890248000000001
 20
-9.80092
 30
8.270000000000001
 11
4.990876
 21
-9.917168
 31
8.270000000000001
  0
LINE
  5
134
330
17
100
AcDbEntity
  8
0
100
AcDbLine
 10
4.990876
 20
-9.917168
 30
8.270000000000001
 11
5.0437639999999995
 21
-9.96328
 31
8.270000000000001
  0
LINE
  5
135
330
17
100
AcDbEntity
  8
0
100
AcDbLine
 10
5.0437639999999995
 20
-9.96328
 30
8.270000000000001
 11
5.099424
 21
-10.002924
 31
8.270000000000001
  0
LINE
  5
136
330
17
100
AcDbEntity
  8
0
100
AcDbLine
 10
5.099424
 20
-10.002924
 30
8.270000000000001
 11
5.223658
 21
-10.06635
 31
8.270000000000001
  0
LINE
  5
137
330
17
100
AcDbEntity
  8
0
100
AcDbLine
 10
5.223658
 20
-10.06635
 30
8.270000000000001
 11
5.442162
 21
-10.121834
 31
8.270000000000001
  0
LINE
  5
138
330
17
100
AcDbEntity
  8
0
100
AcDbLine
 10
5.442162
 20
-10.121834
 30
8.270000000000001
 11
5.609252000000001
 21
-10.132416
 31
8.270000000000001
  0
LINE
  5
139
330
17
100
AcDbEntity
  8
0
100
AcDbLine
 10
5.609252000000001
 20
-10.132416
 30
8.270000000000001
 11
6.07893
 21
-10.132416
 31
8.270000000000001
  0
LINE
  5
13A
330
17
100
AcDbEntity
  8
0
100
AcDbLine
 10
6.07893
 20
-10.132416
 30
8.270000000000001
 11
6.07893
 21
-9.599575999999999
 31
8.270000000000001
  0
LINE
  5
13B
330
17
100
AcDbEntity
  8
0
100
AcDbLine
 10
6.07893
 20
-9.599575999999999
 30
8.270000000000001
 11
5.824852
 21
-9.599575999999999
 31
8.270000000000001
  0
LINE
  5
13C
330
17
100
AcDbEntity
  8
0
100
AcDbLine
 10
5.824852
 20
-9.599575999999999
 30
8.270000000000001
 11
5.728800000000001
 21
-9.595462
 31
8.270000000000001
  0
LINE
  5
13D
330
17
100
AcDbEntity
  8
0
100
AcDbLine
 10
5.728800000000001
 20
-9.595462
 30
8.270000000000001
 11
5.578892
 21
-9.562418000000001
 31
8.270000000000001
  0
LINE
  5
13E
330
17
100
AcDbEntity
  8
0
100
AcDbLine
 10
5.578892
 20
-9.562418000000001
 30
8.270000000000001
 11
5.525035999999999
 21
-9.533532000000001
 31
8.270000000000001
  0
LINE
  5
13F
330
17
100
AcDbEntity
  8
0
100
AcDbLine
 10
5.525035999999999
 20
-9.533532000000001
 30
8.270000000000001
 11
5.480486
 21
-9.494284
 31
8.270000000000001
  0
LINE
  5
140
330
17
100
AcDbEntity
  8
0
100
AcDbLine
 10
5.480486
 20
-9.494284
 30
8.270000000000001
 11
5.407182
 21
-9.37632
 31
8.270000000000001
  0
LINE
  5
141
330
17
100
AcDbEntity
  8
0
100
AcDbLine
 10
5.407182
 20
-9.37632
 30
8.270000000000001
 11
5.378406
 21
-9.297604
 31
8.270000000000001
  0
LINE
  5
142
330
17
100
AcDbEntity
  8
0
100
AcDbLine
 10
5.378406
 20
-9.297604
 30
8.270000000000001
 11
5.355174
 21
-9.227181999999999
 31
8.270000000000001
  0
LINE
  5
143
330
17
100
AcDbEntity
  8
0
100
AcDbLine
 10
5.355174
 20
-9.227181999999999
 30
8.270000000000001
 11
6.487623999999999
 21
-6.589162
 31
8.270000000000001
  0
LINE
  5
144
330
17
100
AcDbEntity
  8
0
100
AcDbLine
 10
2.238764
 20
-5.867584
 30
8.270000000000001
 11
2.238764
 21
-6.589162
 31
8.270000000000001
  0
LINE
  5
145
330
17
100
AcDbEntity
  8
0
100
AcDbLine
 10
2.238764
 20
-6.589162
 30
8.270000000000001
 11
1.401048
 21
-6.589162
 31
8.270000000000001
  0
LINE
  5
146
330
17
100
AcDbEntity
  8
0
100
AcDbLine
 10
1.401048
 20
-6.589162
 30
8.270000000000001
 11
1.401048
 21
-7.169896
 31
8.270000000000001
  0
LINE
  5
147
330
17
100
AcDbEntity
  8
0
100
AcDbLine
 10
1.401048
 20
-7.169896
 30
8.270000000000001
 11
2.238764
 21
-7.169896
 31
8.270000000000001
  0
LINE
  5
148
330
17
100
AcDbEntity
  8
0
100
AcDbLine
 10
2.238764
 20
-7.169896
 30
8.270000000000001
 11
2.238764
 21
-8.24717
 31
8.270000000000001
  0
LINE
  5
149
330
17
100
AcDbEntity
  8
0
100
AcDbLine
 10
2.238764
 20
-8.24717
 30
8.270000000000001
 11
2.234364
 21
-8.32857
 31
8.270000000000001
  0
LINE
  5
14A
330
17
100
AcDbEntity
  8
0
100
AcDbLine
 10
2.234364
 20
-8.32857
 30
8.270000000000001
 11
2.1991639999999997
 21
-8.44836
 31
8.270000000000001
  0
LINE
  5
14B
330
17
100
AcDbEntity
  8
0
100
AcDbLine
 10
2.1991639999999997
 20
-8.44836
 30
8.270000000000001
 11
2.168342
 21
-8.486728
 31
8.270000000000001
  0
LINE
  5
14C
330
17
100
AcDbEntity
  8
0
100
AcDbLine
 10
2.168342
 20
-8.486728
 30
8.270000000000001
 11
2.124474
 21
-8.514052
 31
8.270000000000001
  0
LINE
  5
14D
330
17
100
AcDbEntity
  8
0
100
AcDbLine
 10
2.124474
 20
-8.514052
 30
8.270000000000001
 11
1.98473
 21
-8.54527
 31
8.270000000000001
  0
LINE
  5
14E
330
17
100
AcDbEntity
  8
0
100
AcDbLine
 10
1.98473
 20
-8.54527
 30
8.270000000000001
 11
1.888876
 21
-8.549164
 31
8.270000000000001
  0
LINE
  5
14F
330
17
100
AcDbEntity
  8
0
100
AcDbLine
 10
1.888876
 20
-8.549164
 30
8.270000000000001
 11
1.471448
 21
-8.549164
 31
8.270000000000001
  0
LINE
  5
150
330
17
100
AcDbEntity
  8
0
100
AcDbLine
 10
1.471448
 20
-8.549164
 30
8.270000000000001
 11
1.471448
 21
-9.129898
 31
8.270000000000001
  0
LINE
  5
151
330
17
100
AcDbEntity
  8
0
100
AcDbLine
 10
1.471448
 20
-9.129898
 30
8.270000000000001
 11
2.168342
 21
-9.129898
 31
8.270000000000001
  0
LINE
  5
152
330
17
100
AcDbEntity
  8
0
100
AcDbLine
 10
2.168342
 20
-9.129898
 30
8.270000000000001
 11
2.284128
 21
-9.126774
 31
8.270000000000001
  0
LINE
  5
153
330
17
100
AcDbEntity
  8
0
100
AcDbLine
 10
2.284128
 20
-9.126774
 30
8.270000000000001
 11
2.489476
 21
-9.101738
 31
8.270000000000001
  0
LINE
  5
154
330
17
100
AcDbEntity
  8
0
100
AcDbLine
 10
2.489476
 20
-9.101738
 30
8.270000000000001
 11
2.659888
 21
-9.051644
 31
8.270000000000001
  0
LINE
  5
155
330
17
100
AcDbEntity
  8
0
100
AcDbLine
 10
2.659888
 20
-9.051644
 30
8.270000000000001
 11
2.795364
 21
-8.976514
 31
8.270000000000001
  0
LINE
  5
156
330
17
100
AcDbEntity
  8
0
100
AcDbLine
 10
2.795364
 20
-8.976514
 30
8.270000000000001
 11
2.84999
 21
-8.929544
 31
8.270000000000001
  0
LINE
  5
157
330
17
100
AcDbEntity
  8
0
100
AcDbLine
 10
2.84999
 20
-8.929544
 30
8.270000000000001
 11
2.89696
 21
-8.874896
 31
8.270000000000001
  0
LINE
  5
158
330
17
100
AcDbEntity
  8
0
100
AcDbLine
 10
2.89696
 20
-8.874896
 30
8.270000000000001
 11
2.9720899999999997
 21
-8.739332
 31
8.270000000000001
  0
LINE
  5
159
330
17
100
AcDbEntity
  8
0
100
AcDbLine
 10
2.9720899999999997
 20
-8.739332
 30
8.270000000000001
 11
3.0221839999999998
 21
-8.568744
 31
8.270000000000001
  0
LINE
  5
15A
330
17
100
AcDbEntity
  8
0
100
AcDbLine
 10
3.0221839999999998
 20
-8.568744
 30
8.270000000000001
 11
3.04722
 21
-8.363132
 31
8.270000000000001
  0
LINE
  5
15B
330
17
100
AcDbEntity
  8
0
100
AcDbLine
 10
3.04722
 20
-8.363132
 30
8.270000000000001
 11
3.050344
 21
-8.24717
 31
8.270000000000001
  0
LINE
  5
15C
330
17
100
AcDbEntity
  8
0
100
AcDbLine
 10
3.050344
 20
-8.24717
 30
8.270000000000001
 11
3.050344
 21
-7.169896
 31
8.270000000000001
  0
LINE
  5
15D
330
17
100
AcDbEntity
  8
0
100
AcDbLine
 10
3.050344
 20
-7.169896
 30
8.270000000000001
 11
3.454704
 21
-7.169896
 31
8.270000000000001
  0
LINE
  5
15E
330
17
100
AcDbEntity
  8
0
100
AcDbLine
 10
3.454704
 20
-7.169896
 30
8.270000000000001
 11
3.454704
 21
-6.589162
 31
8.270000000000001
  0
LINE
  5
15F
330
17
100
AcDbEntity
  8
0
100
AcDbLine
 10
3.454704
 20
-6.589162
 30
8.270000000000001
 11
3.050344
 21
-6.589162
 31
8.270000000000001
  0
LINE
  5
160
330
17
100
AcDbEntity
  8
0
100
AcDbLine
 10
3.050344
 20
-6.589162
 30
8.270000000000001
 11
3.050344
 21
-5.867584
 31
8.270000000000001
  0
LINE
  5
161
330
17
100
AcDbEntity
  8
0
100
AcDbLine
 10
3.050344
 20
-5.867584
 30
8.270000000000001
 11
2.238764
 21
-5.867584
 31
8.270000000000001
  0
LINE
  5
162
330
17
100
AcDbEntity
  8
0
100
AcDbLine
 10
8.640742000000001
 20
-7.010924
 30
8.270000000000001
 11
8.559826000000001
 21
-6.9
 31
8.270000000000001
  0
LINE
  5
163
330
17
100
AcDbEntity
  8
0
100
AcDbLine
 10
8.559826000000001
 20
-6.9
 30
8.270000000000001
 11
8.376543999999999
 21
-6.720326
 31
8.270000000000001
  0
LINE
  5
164
330
17
100
AcDbEntity
  8
0
100
AcDbLine
 10
8.376543999999999
 20
-6.720326
 30
8.270000000000001
 11
8.274134
 21
-6.651598
 31
8.270000000000001
  0
LINE
  5
165
330
17
100
AcDbEntity
  8
0
100
AcDbLine
 10
8.274134
 20
-6.651598
 30
8.270000000000001
 11
8.165519999999999
 21
-6.597588
 31
8.270000000000001
  0
LINE
  5
166
330
17
100
AcDbEntity
  8
0
100
AcDbLine
 10
8.165519999999999
 20
-6.597588
 30
8.270000000000001
 11
7.932496
 21
-6.5359
 31
8.270000000000001
  0
LINE
  5
167
330
17
100
AcDbEntity
  8
0
100
AcDbLine
 10
7.932496
 20
-6.5359
 30
8.270000000000001
 11
7.808085999999999
 21
-6.5281780000000005
 31
8.270000000000001
  0
LINE
  5
168
330
17
100
AcDbEntity
  8
0
100
AcDbLine
 10
7.808085999999999
 20
-6.5281780000000005
 30
8.270000000000001
 11
7.7019139999999995
 21
-6.532401999999999
 31
8.270000000000001
  0
LINE
  5
169
330
17
100
AcDbEntity
  8
0
100
AcDbLine
 10
7.7019139999999995
 20
-6.532401999999999
 30
8.270000000000001
 11
7.5090840000000005
 21
-6.56615
 31
8.270000000000001
  0
LINE
  5
16A
330
17
100
AcDbEntity
  8
0
100
AcDbLine
 10
7.5090840000000005
 20
-6.56615
 30
8.270000000000001
 11
7.342302
 21
-6.633668
 31
8.270000000000001
  0
LINE
  5
16B
330
17
100
AcDbEntity
  8
0
100
AcDbLine
 10
7.342302
 20
-6.633668
 30
8.270000000000001
 11
7.201568000000001
 21
-6.734934
 31
8.270000000000001
  0
LINE
  5
16C
330
17
100
AcDbEntity
  8
0
100
AcDbLine
 10
7.201568000000001
 20
-6.734934
 30
8.270000000000001
 11
7.140958
 21
-6.798228
 31
8.270000000000001
  0
LINE
  5
16D
330
17
100
AcDbEntity
  8
0
100
AcDbLine
 10
7.140958
 20
-6.798228
 30
8.270000000000001
 11
7.0871900000000005
 21
-6.869398
 31
8.270000000000001
  0
LINE
  5
16E
330
17
100
AcDbEntity
  8
0
100
AcDbLine
 10
7.0871900000000005
 20
-6.869398
 30
8.270000000000001
 11
7.00117
 21
-7.034816
 31
8.270000000000001
  0
LINE
  5
16F
330
17
100
AcDbEntity
  8
0
100
AcDbLine
 10
7.00117
 20
-7.034816
 30
8.270000000000001
 11
6.9438379999999995
 21
-7.231012
 31
8.270000000000001
  0
LINE
  5
170
330
17
100
AcDbEntity
  8
0
100
AcDbLine
 10
6.9438379999999995
 20
-7.231012
 30
8.270000000000001
 11
6.915150000000001
 21
-7.457942
 31
8.270000000000001
  0
LINE
  5
171
330
17
100
AcDbEntity
  8
0
100
AcDbLine
 10
6.915150000000001
 20
-7.457942
 30
8.270000000000001
 11
6.911564
 21
-7.582946
 31
8.270000000000001
  0
LINE
  5
172
330
17
100
AcDbEntity
  8
0
100
AcDbLine
 10
6.911564
 20
-7.582946
 30
8.270000000000001
 11
6.911564
 21
-9.129898
 31
8.270000000000001
  0
LINE
  5
173
330
17
100
AcDbEntity
  8
0
100
AcDbLine
 10
6.911564
 20
-9.129898
 30
8.270000000000001
 11
7.728248
 21
-9.129898
 31
8.270000000000001
  0
LINE
  5
174
330
17
100
AcDbEntity
  8
0
100
AcDbLine
 10
7.728248
 20
-9.129898
 30
8.270000000000001
 11
7.728248
 21
-7.80508
 31
8.270000000000001
  0
LINE
  5
175
330
17
100
AcDbEntity
  8
0
100
AcDbLine
 10
7.728248
 20
-7.80508
 30
8.270000000000001
 11
7.7264219999999995
 21
-7.774962
 31
8.270000000000001
  0
LINE
  5
176
330
17
100
AcDbEntity
  8
0
100
AcDbLine
 10
7.7264219999999995
 20
-7.774962
 30
8.270000000000001
 11
7.725344000000001
 21
-7.744118
 31
8.270000000000001
  0
LINE
  5
177
330
17
100
AcDbEntity
  8
0
100
AcDbLine
 10
7.725344000000001
 20
-7.744118
 30
8.270000000000001
 11
7.7242440000000006
 21
-7.705464
 31
8.270000000000001
  0
LINE
  5
178
330
17
100
AcDbEntity
  8
0
100
AcDbLine
 10
7.7242440000000006
 20
-7.705464
 30
8.270000000000001
 11
7.723892
 21
-7.653368
 31
8.270000000000001
  0
LINE
  5
179
330
17
100
AcDbEntity
  8
0
100
AcDbLine
 10
7.723892
 20
-7.653368
 30
8.270000000000001
 11
7.728864000000001
 21
-7.527638
 31
8.270000000000001
  0
LINE
  5
17A
330
17
100
AcDbEntity
  8
0
100
AcDbLine
 10
7.728864000000001
 20
-7.527638
 30
8.270000000000001
 11
7.768794000000001
 21
-7.332014
 31
8.270000000000001
  0
LINE
  5
17B
330
17
100
AcDbEntity
  8
0
100
AcDbLine
 10
7.768794000000001
 20
-7.332014
 30
8.270000000000001
 11
7.80373
 21
-7.262098
 31
8.270000000000001
  0
LINE
  5
17C
330
17
100
AcDbEntity
  8
0
100
AcDbLine
 10
7.80373
 20
-7.262098
 30
8.270000000000001
 11
7.849424
 21
-7.208748
 31
8.270000000000001
  0
LINE
  5
17D
330
17
100
AcDbEntity
  8
0
100
AcDbLine
 10
7.849424
 20
-7.208748
 30
8.270000000000001
 11
7.977552
 21
-7.1477640000000005
 31
8.270000000000001
  0
LINE
  5
17E
330
17
100
AcDbEntity
  8
0
100
AcDbLine
 10
7.977552
 20
-7.1477640000000005
 30
8.270000000000001
 11
8.059986
 21
-7.14013
 31
8.270000000000001
  0
LINE
  5
17F
330
17
100
AcDbEntity
  8
0
100
AcDbLine
 10
8.059986
 20
-7.14013
 30
8.270000000000001
 11
8.116064
 21
-7.143122
 31
8.270000000000001
  0
LINE
  5
180
330
17
100
AcDbEntity
  8
0
100
AcDbLine
 10
8.116064
 20
-7.143122
 30
8.270000000000001
 11
8.21843
 21
-7.166992
 31
8.270000000000001
  0
LINE
  5
181
330
17
100
AcDbEntity
  8
0
100
AcDbLine
 10
8.21843
 20
-7.166992
 30
8.270000000000001
 11
8.307706
 21
-7.21471
 31
8.270000000000001
  0
LINE
  5
182
330
17
100
AcDbEntity
  8
0
100
AcDbLine
 10
8.307706
 20
-7.21471
 30
8.270000000000001
 11
8.383936
 21
-7.28632
 31
8.270000000000001
  0
LINE
  5
183
330
17
100
AcDbEntity
  8
0
100
AcDbLine
 10
8.383936
 20
-7.28632
 30
8.270000000000001
 11
8.417156
 21
-7.331046
 31
8.270000000000001
  0
LINE
  5
184
330
17
100
AcDbEntity
  8
0
100
AcDbLine
 10
8.417156
 20
-7.331046
 30
8.270000000000001
 11
8.472398
 21
-7.436822
 31
8.270000000000001
  0
LINE
  5
185
330
17
100
AcDbEntity
  8
0
100
AcDbLine
 10
8.472398
 20
-7.436822
 30
8.270000000000001
 11
8.537738000000001
 21
-7.712306
 31
8.270000000000001
  0
LINE
  5
186
330
17
100
AcDbEntity
  8
0
100
AcDbLine
 10
8.537738000000001
 20
-7.712306
 30
8.270000000000001
 11
8.547814
 21
-7.882036
 31
8.270000000000001
  0
LINE
  5
187
330
17
100
AcDbEntity
  8
0
100
AcDbLine
 10
8.547814
 20
-7.882036
 30
8.270000000000001
 11
8.547814
 21
-9.129898
 31
8.270000000000001
  0
LINE
  5
188
330
17
100
AcDbEntity
  8
0
100
AcDbLine
 10
8.547814
 20
-9.129898
 30
8.270000000000001
 11
9.364476
 21
-9.129898
 31
8.270000000000001
  0
LINE
  5
189
330
17
100
AcDbEntity
  8
0
100
AcDbLine
 10
9.364476
 20
-9.129898
 30
8.270000000000001
 11
9.364476
 21
-7.80508
 31
8.270000000000001
  0
LINE
  5
18A
330
17
100
AcDbEntity
  8
0
100
AcDbLine
 10
9.364476
 20
-7.80508
 30
8.270000000000001
 11
9.36903
 21
-7.612998
 31
8.270000000000001
  0
LINE
  5
18B
330
17
100
AcDbEntity
  8
0
100
AcDbLine
 10
9.36903
 20
-7.612998
 30
8.270000000000001
 11
9.405308
 21
-7.341496
 31
8.270000000000001
  0
LINE
  5
18C
330
17
100
AcDbEntity
  8
0
100
AcDbLine
 10
9.405308
 20
-7.341496
 30
8.270000000000001
 11
9.437076
 21
-7.262098
 31
8.270000000000001
  0
LINE
  5
18D
330
17
100
AcDbEntity
  8
0
100
AcDbLine
 10
9.437076
 20
-7.262098
 30
8.270000000000001
 11
9.480459999999999
 21
-7.208748
 31
8.270000000000001
  0
LINE
  5
18E
330
17
100
AcDbEntity
  8
0
100
AcDbLine
 10
9.480459999999999
 20
-7.208748
 30
8.270000000000001
 11
9.609666
 21
-7.1477640000000005
 31
8.270000000000001
  0
LINE
  5
18F
330
17
100
AcDbEntity
  8
0
100
AcDbLine
 10
9.609666
 20
-7.1477640000000005
 30
8.270000000000001
 11
9.69551
 21
-7.14013
 31
8.270000000000001
  0
LINE
  5
190
330
17
100
AcDbEntity
  8
0
100
AcDbLine
 10
9.69551
 20
-7.14013
 30
8.270000000000001
 11
9.75227
 21
-7.143122
 31
8.270000000000001
  0
LINE
  5
191
330
17
100
AcDbEntity
  8
0
100
AcDbLine
 10
9.75227
 20
-7.143122
 30
8.270000000000001
 11
9.855801999999999
 21
-7.16708
 31
8.270000000000001
  0
LINE
  5
192
330
17
100
AcDbEntity
  8
0
100
AcDbLine
 10
9.855801999999999
 20
-7.16708
 30
8.270000000000001
 11
9.946002
 21
-7.214996
 31
8.270000000000001
  0
LINE
  5
193
330
17
100
AcDbEntity
  8
0
100
AcDbLine
 10
9.946002
 20
-7.214996
 30
8.270000000000001
 11
10.022870000000001
 21
-7.28687
 31
8.270000000000001
  0
LINE
  5
194
330
17
100
AcDbEntity
  8
0
100
AcDbLine
 10
10.022870000000001
 20
-7.28687
 30
8.270000000000001
 11
10.056288
 21
-7.331772
 31
8.270000000000001
  0
LINE
  5
195
330
17
100
AcDbEntity
  8
0
100
AcDbLine
 10
10.056288
 20
-7.331772
 30
8.270000000000001
 11
10.111882
 21
-7.4379
 31
8.270000000000001
  0
LINE
  5
196
330
17
100
AcDbEntity
  8
0
100
AcDbLine
 10
10.111882
 20
-7.4379
 30
8.270000000000001
 11
10.175396
 21
-7.711932
 31
8.270000000000001
  0
LINE
  5
197
330
17
100
AcDbEntity
  8
0
100
AcDbLine
 10
10.175396
 20
-7.711932
 30
8.270000000000001
 11
10.183338
 21
-7.879858
 31
8.270000000000001
  0
LINE
  5
198
330
17
100
AcDbEntity
  8
0
100
AcDbLine
 10
10.183338
 20
-7.879858
 30
8.270000000000001
 11
10.183338
 21
-9.129898
 31
8.270000000000001
  0
LINE
  5
199
330
17
100
AcDbEntity
  8
0
100
AcDbLine
 10
10.183338
 20
-9.129898
 30
8.270000000000001
 11
11.0
 21
-9.129898
 31
8.270000000000001
  0
LINE
  5
19A
330
17
100
AcDbEntity
  8
0
100
AcDbLine
 10
11.0
 20
-9.129898
 30
8.270000000000001
 11
11.0
 21
-6.589162
 31
8.270000000000001
  0
LINE
  5
19B
330
17
100
AcDbEntity
  8
0
100
AcDbLine
 10
11.0
 20
-6.589162
 30
8.270000000000001
 11
10.183338
 21
-6.589162
 31
8.270000000000001
  0
LINE
  5
19C
330
17
100
AcDbEntity
  8
0
100
AcDbLine
 10
10.183338
 20
-6.589162
 30
8.270000000000001
 11
10.183338
 21
-6.96083
 31
8.270000000000001
  0
LINE
  5
19D
330
17
100
AcDbEntity
  8
0
100
AcDbLine
 10
10.183338
 20
-6.96083
 30
8.270000000000001
 11
10.10548
 21
-6.8600259999999995
 31
8.270000000000001
  0
LINE
  5
19E
330
17
100
AcDbEntity
  8
0
100
AcDbLine
 10
10.10548
 20
-6.8600259999999995
 30
8.270000000000001
 11
9.93344
 21
-6.6981280000000005
 31
8.270000000000001
  0
LINE
  5
19F
330
17
100
AcDbEntity
  8
0
100
AcDbLine
 10
9.93344
 20
-6.6981280000000005
 30
8.270000000000001
 11
9.839236
 21
-6.637078
 31
8.270000000000001
  0
LINE
  5
1A0
330
17
100
AcDbEntity
  8
0
100
AcDbLine
 10
9.839236
 20
-6.637078
 30
8.270000000000001
 11
9.739840000000001
 21
-6.5894260000000004
 31
8.270000000000001
  0
LINE
  5
1A1
330
17
100
AcDbEntity
  8
0
100
AcDbLine
 10
9.739840000000001
 20
-6.5894260000000004
 30
8.270000000000001
 11
9.526044
 21
-6.534976
 31
8.270000000000001
  0
LINE
  5
1A2
330
17
100
AcDbEntity
  8
0
100
AcDbLine
 10
9.526044
 20
-6.534976
 30
8.270000000000001
 11
9.411666
 21
-6.5281780000000005
 31
8.270000000000001
  0
LINE
  5
1A3
330
17
100
AcDbEntity
  8
0
100
AcDbLine
 10
9.411666
 20
-6.5281780000000005
 30
8.270000000000001
 11
9.284088
 21
-6.53612
 31
8.270000000000001
  0
LINE
  5
1A4
330
17
100
AcDbEntity
  8
0
100
AcDbLine
 10
9.284088
 20
-6.53612
 30
8.270000000000001
 11
9.05179
 21
-6.599634
 31
8.270000000000001
  0
LINE
  5
1A5
330
17
100
AcDbEntity
  8
0
100
AcDbLine
 10
9.05179
 20
-6.599634
 30
8.270000000000001
 11
8.94707
 21
-6.655206
 31
8.270000000000001
  0
LINE
  5
1A6
330
17
100
AcDbEntity
  8
0
100
AcDbLine
 10
8.94707
 20
-6.655206
 30
8.270000000000001
 11
8.851986
 21
-6.725078
 31
8.270000000000001
  0
LINE
  5
1A7
330
17
100
AcDbEntity
  8
0
100
AcDbLine
 10
8.851986
 20
-6.725078
 30
8.270000000000001
 11
8.698799999999999
 21
-6.902948
 31
8.270000000000001
  0
LINE
  5
1A8
330
17
100
AcDbEntity
  8
0
100
AcDbLine
 10
8.698799999999999
 20
-6.902948
 30
8.270000000000001
 11
8.640742000000001
 21
-7.010924
 31
8.270000000000001
  0
LINE
  5
1A9
330
17
100
AcDbEntity
  8
0
100
AcDbLine
 10
-4.305168
 20
14.306011999999999
 30
8.270000000000001
 11
-4.717602
 21
14.303636000000001
 31
8.270000000000001
  0
LINE
  5
1AA
330
17
100
AcDbEntity
  8
0
100
AcDbLine
 10
-4.717602
 20
14.303636000000001
 30
8.270000000000001
 11
-4.973202000000001
 21
14.279786
 31
8.270000000000001
  0
LINE
  5
1AB
330
17
100
AcDbEntity
  8
0
100
AcDbLine
 10
-4.973202000000001
 20
14.279786
 30
8.270000000000001
 11
-5.307444
 21
14.232734
 31
8.270000000000001
  0
LINE
  5
1AC
330
17
100
AcDbEntity
  8
0
100
AcDbLine
 10
-5.307444
 20
14.232734
 30
8.270000000000001
 11
-5.857974
 21
14.100812000000001
 31
8.270000000000001
  0
LINE
  5
1AD
330
17
100
AcDbEntity
  8
0
100
AcDbLine
 10
-5.857974
 20
14.100812000000001
 30
8.270000000000001
 11
-6.113592
 21
14.004494000000001
 31
8.270000000000001
  0
LINE
  5
1AE
330
17
100
AcDbEntity
  8
0
100
AcDbLine
 10
-6.113592
 20
14.004494000000001
 30
8.270000000000001
 11
-6.231546
 21
13.960861999999999
 31
8.270000000000001
  0
LINE
  5
1AF
330
17
100
AcDbEntity
  8
0
100
AcDbLine
 10
-6.231546
 20
13.960861999999999
 30
8.270000000000001
 11
-6.821406
 21
13.651892
 31
8.270000000000001
  0
LINE
  5
1B0
330
17
100
AcDbEntity
  8
0
100
AcDbLine
 10
-6.821406
 20
13.651892
 30
8.270000000000001
 11
-6.900048
 21
13.598018
 31
8.270000000000001
  0
LINE
  5
1B1
330
17
100
AcDbEntity
  8
0
100
AcDbLine
 10
-6.900048
 20
13.598018
 30
8.270000000000001
 11
-6.989958
 21
13.539193999999998
 31
8.270000000000001
  0
LINE
  5
1B2
330
17
100
AcDbEntity
  8
0
100
AcDbLine
 10
-6.989958
 20
13.539193999999998
 30
8.270000000000001
 11
-7.3522799999999995
 21
13.25987
 31
8.270000000000001
  0
LINE
  5
1B3
330
17
100
AcDbEntity
  8
0
100
AcDbLine
 10
-7.3522799999999995
 20
13.25987
 30
8.270000000000001
 11
-7.799886000000001
 21
12.811706000000001
 31
8.270000000000001
  0
LINE
  5
1B4
330
17
100
AcDbEntity
  8
0
100
AcDbLine
 10
-7.799886000000001
 20
12.811706000000001
 30
8.270000000000001
 11
-8.145162
 21
12.379148
 31
8.270000000000001
  0
LINE
  5
1B5
330
17
100
AcDbEntity
  8
0
100
AcDbLine
 10
-8.145162
 20
12.379148
 30
8.270000000000001
 11
-8.178066
 21
12.319784
 31
8.270000000000001
  0
LINE
  5
1B6
330
17
100
AcDbEntity
  8
0
100
AcDbLine
 10
-8.178066
 20
12.319784
 30
8.270000000000001
 11
-8.338122
 21
12.064562
 31
8.270000000000001
  0
LINE
  5
1B7
330
17
100
AcDbEntity
  8
0
100
AcDbLine
 10
-8.338122
 20
12.064562
 30
8.270000000000001
 11
-8.658738
 21
11.39606
 31
8.270000000000001
  0
LINE
  5
1B8
330
17
100
AcDbEntity
  8
0
100
AcDbLine
 10
-8.658738
 20
11.39606
 30
8.270000000000001
 11
-8.712324
 21
11.238758
 31
8.270000000000001
  0
LINE
  5
1B9
330
17
100
AcDbEntity
  8
0
100
AcDbLine
 10
-8.712324
 20
11.238758
 30
8.270000000000001
 11
-8.74359
 21
11.160116
 31
8.270000000000001
  0
LINE
  5
1BA
330
17
100
AcDbEntity
  8
0
100
AcDbLine
 10
-8.74359
 20
11.160116
 30
8.270000000000001
 11
-8.753274
 21
11.120785999999999
 31
8.270000000000001
  0
LINE
  5
1BB
330
17
100
AcDbEntity
  8
0
100
AcDbLine
 10
-8.753274
 20
11.120785999999999
 30
8.270000000000001
 11
-8.784305999999999
 21
11.042144
 31
8.270000000000001
  0
LINE
  5
1BC
330
17
100
AcDbEntity
  8
0
100
AcDbLine
 10
-8.784305999999999
 20
11.042144
 30
8.270000000000001
 11
-8.797518
 21
10.983158
 31
8.270000000000001
  0
LINE
  5
1BD
330
17
100
AcDbEntity
  8
0
100
AcDbLine
 10
-8.797518
 20
10.983158
 30
8.270000000000001
 11
-8.83062
 21
10.88486
 31
8.270000000000001
  0
LINE
  5
1BE
330
17
100
AcDbEntity
  8
0
100
AcDbLine
 10
-8.83062
 20
10.88486
 30
8.270000000000001
 11
-8.827776
 21
10.84553
 31
8.270000000000001
  0
LINE
  5
1BF
330
17
100
AcDbEntity
  8
0
100
AcDbLine
 10
-8.827776
 20
10.84553
 30
8.270000000000001
 11
-8.8443
 21
10.8062
 31
8.270000000000001
  0
LINE
  5
1C0
330
17
100
AcDbEntity
  8
0
100
AcDbLine
 10
-8.8443
 20
10.8062
 30
8.270000000000001
 11
-8.863325999999999
 21
10.707902
 31
8.270000000000001
  0
LINE
  5
1C1
330
17
100
AcDbEntity
  8
0
100
AcDbLine
 10
-8.863325999999999
 20
10.707902
 30
8.270000000000001
 11
-8.920746
 21
10.432628
 31
8.270000000000001
  0
LINE
  5
1C2
330
17
100
AcDbEntity
  8
0
100
AcDbLine
 10
-8.920746
 20
10.432628
 30
8.270000000000001
 11
-8.94141
 21
10.275344
 31
8.270000000000001
  0
LINE
  5
1C3
330
17
100
AcDbEntity
  8
0
100
AcDbLine
 10
-8.94141
 20
10.275344
 30
8.270000000000001
 11
-8.969598
 21
10.059056
 31
8.270000000000001
  0
LINE
  5
1C4
330
17
100
AcDbEntity
  8
0
100
AcDbLine
 10
-8.969598
 20
10.059056
 30
8.270000000000001
 11
-8.984214
 21
9.870128
 31
8.270000000000001
  0
LINE
  5
1C5
330
17
100
AcDbEntity
  8
0
100
AcDbLine
 10
-8.984214
 20
9.870128
 30
8.270000000000001
 11
-8.985564
 21
9.803456
 31
8.270000000000001
  0
LINE
  5
1C6
330
17
100
AcDbEntity
  8
0
100
AcDbLine
 10
-8.985564
 20
9.803456
 30
8.270000000000001
 11
-8.996634
 21
9.547856
 31
8.270000000000001
  0
LINE
  5
1C7
330
17
100
AcDbEntity
  8
0
100
AcDbLine
 10
-8.996634
 20
9.547856
 30
8.270000000000001
 11
-9.0
 21
8.30915
 31
8.270000000000001
  0
LINE
  5
1C8
330
17
100
AcDbEntity
  8
0
100
AcDbLine
 10
-9.0
 20
8.30915
 30
8.270000000000001
 11
-8.984214
 21
2.8539440000000003
 31
8.270000000000001
  0
LINE
  5
1C9
330
17
100
AcDbEntity
  8
0
100
AcDbLine
 10
-8.984214
 20
2.8539440000000003
 30
8.270000000000001
 11
-8.958708
 21
2.7252079999999994
 31
8.270000000000001
  0
LINE
  5
1CA
330
17
100
AcDbEntity
  8
0
100
AcDbLine
 10
-8.958708
 20
2.7252079999999994
 30
8.270000000000001
 11
-8.944884
 21
2.6858779999999998
 31
8.270000000000001
  0
LINE
  5
1CB
330
17
100
AcDbEntity
  8
0
100
AcDbLine
 10
-8.944884
 20
2.6858779999999998
 30
8.270000000000001
 11
-8.835966
 21
2.410622
 31
8.270000000000001
  0
LINE
  5
1CC
330
17
100
AcDbEntity
  8
0
100
AcDbLine
 10
-8.835966
 20
2.410622
 30
8.270000000000001
 11
-8.74827
 21
2.2718059999999998
 31
8.270000000000001
  0
LINE
  5
1CD
330
17
100
AcDbEntity
  8
0
100
AcDbLine
 10
-8.74827
 20
2.2718059999999998
 30
8.270000000000001
 11
-8.652726
 21
2.1550220000000007
 31
8.270000000000001
  0
LINE
  5
1CE
330
17
100
AcDbEntity
  8
0
100
AcDbLine
 10
-8.652726
 20
2.1550220000000007
 30
8.270000000000001
 11
-8.49267
 21
2.0068099999999998
 31
8.270000000000001
  0
LINE
  5
1CF
330
17
100
AcDbEntity
  8
0
100
AcDbLine
 10
-8.49267
 20
2.0068099999999998
 30
8.270000000000001
 11
-8.315712
 21
1.887632
 31
8.270000000000001
  0
LINE
  5
1D0
330
17
100
AcDbEntity
  8
0
100
AcDbLine
 10
-8.315712
 20
1.887632
 30
8.270000000000001
 11
-8.178066
 21
1.8159019999999995
 31
8.270000000000001
  0
LINE
  5
1D1
330
17
100
AcDbEntity
  8
0
100
AcDbLine
 10
-8.178066
 20
1.8159019999999995
 30
8.270000000000001
 11
-8.085222
 21
1.7814319999999997
 31
8.270000000000001
  0
LINE
  5
1D2
330
17
100
AcDbEntity
  8
0
100
AcDbLine
 10
-8.085222
 20
1.7814319999999997
 30
8.270000000000001
 11
-7.883153999999999
 21
1.731464
 31
8.270000000000001
  0
LINE
  5
1D3
330
17
100
AcDbEntity
  8
0
100
AcDbLine
 10
-7.883153999999999
 20
1.731464
 30
8.270000000000001
 11
-7.529238
 21
1.6944920000000003
 31
8.270000000000001
  0
LINE
  5
1D4
330
17
100
AcDbEntity
  8
0
100
AcDbLine
 10
-7.529238
 20
1.6944920000000003
 30
8.270000000000001
 11
-7.273638
 21
1.7128160000000001
 31
8.270000000000001
  0
LINE
  5
1D5
330
17
100
AcDbEntity
  8
0
100
AcDbLine
 10
-7.273638
 20
1.7128160000000001
 30
8.270000000000001
 11
-7.0573500000000005
 21
1.7583020000000005
 31
8.270000000000001
  0
LINE
  5
1D6
330
17
100
AcDbEntity
  8
0
100
AcDbLine
 10
-7.0573500000000005
 20
1.7583020000000005
 30
8.270000000000001
 11
-6.703434
 21
1.9196900000000001
 31
8.270000000000001
  0
LINE
  5
1D7
330
17
100
AcDbEntity
  8
0
100
AcDbLine
 10
-6.703434
 20
1.9196900000000001
 30
8.270000000000001
 11
-6.48333
 21
2.096036
 31
8.270000000000001
  0
LINE
  5
1D8
330
17
100
AcDbEntity
  8
0
100
AcDbLine
 10
-6.48333
 20
2.096036
 30
8.270000000000001
 11
-6.346026
 21
2.2533200000000004
 31
8.270000000000001
  0
LINE
  5
1D9
330
17
100
AcDbEntity
  8
0
100
AcDbLine
 10
-6.346026
 20
2.2533200000000004
 30
8.270000000000001
 11
-6.1407
 21
2.6858779999999998
 31
8.270000000000001
  0
LINE
  5
1DA
330
17
100
AcDbEntity
  8
0
100
AcDbLine
 10
-6.1407
 20
2.6858779999999998
 30
8.270000000000001
 11
-6.122718
 21
2.764538
 31
8.270000000000001
  0
LINE
  5
1DB
330
17
100
AcDbEntity
  8
0
100
AcDbLine
 10
-6.122718
 20
2.764538
 30
8.270000000000001
 11
-6.091092
 21
3.05945
 31
8.270000000000001
  0
LINE
  5
1DC
330
17
100
AcDbEntity
  8
0
100
AcDbLine
 10
-6.091092
 20
3.05945
 30
8.270000000000001
 11
-6.088392
 21
4.455439999999999
 31
8.270000000000001
  0
LINE
  5
1DD
330
17
100
AcDbEntity
  8
0
100
AcDbLine
 10
-6.088392
 20
4.455439999999999
 30
8.270000000000001
 11
-6.092028000000001
 21
8.623754
 31
8.270000000000001
  0
LINE
  5
1DE
330
17
100
AcDbEntity
  8
0
100
AcDbLine
 10
-6.092028000000001
 20
8.623754
 30
8.270000000000001
 11
-6.068448
 21
9.882098
 31
8.270000000000001
  0
LINE
  5
1DF
330
17
100
AcDbEntity
  8
0
100
AcDbLine
 10
-6.068448
 20
9.882098
 30
8.270000000000001
 11
-6.0045660000000005
 21
10.236014
 31
8.270000000000001
  0
LINE
  5
1E0
330
17
100
AcDbEntity
  8
0
100
AcDbLine
 10
-6.0045660000000005
 20
10.236014
 30
8.270000000000001
 11
-5.974884
 21
10.314656
 31
8.270000000000001
  0
LINE
  5
1E1
330
17
100
AcDbEntity
  8
0
100
AcDbLine
 10
-5.974884
 20
10.314656
 30
8.270000000000001
 11
-5.928444
 21
10.452302
 31
8.270000000000001
  0
LINE
  5
1E2
330
17
100
AcDbEntity
  8
0
100
AcDbLine
 10
-5.928444
 20
10.452302
 30
8.270000000000001
 11
-5.868684
 21
10.570256
 31
8.270000000000001
  0
LINE
  5
1E3
330
17
100
AcDbEntity
  8
0
100
AcDbLine
 10
-5.868684
 20
10.570256
 30
8.270000000000001
 11
-5.838318
 21
10.631726
 31
8.270000000000001
  0
LINE
  5
1E4
330
17
100
AcDbEntity
  8
0
100
AcDbLine
 10
-5.838318
 20
10.631726
 30
8.270000000000001
 11
-5.772348000000001
 21
10.727558
 31
8.270000000000001
  0
LINE
  5
1E5
330
17
100
AcDbEntity
  8
0
100
AcDbLine
 10
-5.772348000000001
 20
10.727558
 30
8.270000000000001
 11
-5.675148
 21
10.865186000000001
 31
8.270000000000001
  0
LINE
  5
1E6
330
17
100
AcDbEntity
  8
0
100
AcDbLine
 10
-5.675148
 20
10.865186000000001
 30
8.270000000000001
 11
-5.520816
 21
11.022488
 31
8.270000000000001
  0
LINE
  5
1E7
330
17
100
AcDbEntity
  8
0
100
AcDbLine
 10
-5.520816
 20
11.022488
 30
8.270000000000001
 11
-5.268132
 21
11.20409
 31
8.270000000000001
  0
LINE
  5
1E8
330
17
100
AcDbEntity
  8
0
100
AcDbLine
 10
-5.268132
 20
11.20409
 30
8.270000000000001
 11
-5.2091460000000005
 21
11.228732
 31
8.270000000000001
  0
LINE
  5
1E9
330
17
100
AcDbEntity
  8
0
100
AcDbLine
 10
-5.2091460000000005
 20
11.228732
 30
8.270000000000001
 11
-4.992858
 21
11.321971999999999
 31
8.270000000000001
  0
LINE
  5
1EA
330
17
100
AcDbEntity
  8
0
100
AcDbLine
 10
-4.992858
 20
11.321971999999999
 30
8.270000000000001
 11
-4.953546
 21
11.323718
 31
8.270000000000001
  0
LINE
  5
1EB
330
17
100
AcDbEntity
  8
0
100
AcDbLine
 10
-4.953546
 20
11.323718
 30
8.270000000000001
 11
-4.914216
 21
11.340116
 31
8.270000000000001
  0
LINE
  5
1EC
330
17
100
AcDbEntity
  8
0
100
AcDbLine
 10
-4.914216
 20
11.340116
 30
8.270000000000001
 11
-4.841442000000001
 21
11.35673
 31
8.270000000000001
  0
LINE
  5
1ED
330
17
100
AcDbEntity
  8
0
100
AcDbLine
 10
-4.841442000000001
 20
11.35673
 30
8.270000000000001
 11
-4.658615999999999
 21
11.377088
 31
8.270000000000001
  0
LINE
  5
1EE
330
17
100
AcDbEntity
  8
0
100
AcDbLine
 10
-4.658615999999999
 20
11.377088
 30
8.270000000000001
 11
-4.422672
 21
11.367098
 31
8.270000000000001
  0
LINE
  5
1EF
330
17
100
AcDbEntity
  8
0
100
AcDbLine
 10
-4.422672
 20
11.367098
 30
8.270000000000001
 11
-4.175172
 21
11.317418
 31
8.270000000000001
  0
LINE
  5
1F0
330
17
100
AcDbEntity
  8
0
100
AcDbLine
 10
-4.175172
 20
11.317418
 30
8.270000000000001
 11
-4.147398
 21
11.301722
 31
8.270000000000001
  0
LINE
  5
1F1
330
17
100
AcDbEntity
  8
0
100
AcDbLine
 10
-4.147398
 20
11.301722
 30
8.270000000000001
 11
-4.1204160000000005
 21
11.297744
 31
8.270000000000001
  0
LINE
  5
1F2
330
17
100
AcDbEntity
  8
0
100
AcDbLine
 10
-4.1204160000000005
 20
11.297744
 30
8.270000000000001
 11
-4.088412
 21
11.28095
 31
8.270000000000001
  0
LINE
  5
1F3
330
17
100
AcDbEntity
  8
0
100
AcDbLine
 10
-4.088412
 20
11.28095
 30
8.270000000000001
 11
-4.0672619999999995
 21
11.278088
 31
8.270000000000001
  0
LINE
  5
1F4
330
17
100
AcDbEntity
  8
0
100
AcDbLine
 10
-4.0672619999999995
 20
11.278088
 30
8.270000000000001
 11
-4.0420620000000005
 21
11.258431999999999
 31
8.270000000000001
  0
LINE
  5
1F5
330
17
100
AcDbEntity
  8
0
100
AcDbLine
 10
-4.0420620000000005
 20
11.258431999999999
 30
8.270000000000001
 11
-4.024026
 21
11.258431999999999
 31
8.270000000000001
  0
LINE
  5
1F6
330
17
100
AcDbEntity
  8
0
100
AcDbLine
 10
-4.024026
 20
11.258431999999999
 30
8.270000000000001
 11
-3.990114
 21
11.23694
 31
8.270000000000001
  0
LINE
  5
1F7
330
17
100
AcDbEntity
  8
0
100
AcDbLine
 10
-3.990114
 20
11.23694
 30
8.270000000000001
 11
-3.785004
 21
11.10113
 31
8.270000000000001
  0
LINE
  5
1F8
330
17
100
AcDbEntity
  8
0
100
AcDbLine
 10
-3.785004
 20
11.10113
 30
8.270000000000001
 11
-3.7529100000000004
 21
11.081474
 31
8.270000000000001
  0
LINE
  5
1F9
330
17
100
AcDbEntity
  8
0
100
AcDbLine
 10
-3.7529100000000004
 20
11.081474
 30
8.270000000000001
 11
-3.596868
 21
10.913912
 31
8.270000000000001
  0
LINE
  5
1FA
330
17
100
AcDbEntity
  8
0
100
AcDbLine
 10
-3.596868
 20
10.913912
 30
8.270000000000001
 11
-3.3597360000000003
 21
10.491614
 31
8.270000000000001
  0
LINE
  5
1FB
330
17
100
AcDbEntity
  8
0
100
AcDbLine
 10
-3.3597360000000003
 20
10.491614
 30
8.270000000000001
 11
-3.2681880000000003
 21
10.137698
 31
8.270000000000001
  0
LINE
  5
1FC
330
17
100
AcDbEntity
  8
0
100
AcDbLine
 10
-3.2681880000000003
 20
10.137698
 30
8.270000000000001
 11
-3.2232960000000004
 21
9.657512
 31
8.270000000000001
  0
LINE
  5
1FD
330
17
100
AcDbEntity
  8
0
100
AcDbLine
 10
-3.2232960000000004
 20
9.657512
 30
8.270000000000001
 11
-3.220506
 21
8.997326
 31
8.270000000000001
  0
LINE
  5
1FE
330
17
100
AcDbEntity
  8
0
100
AcDbLine
 10
-3.220506
 20
8.997326
 30
8.270000000000001
 11
-3.221838
 21
6.677234
 31
8.270000000000001
  0
LINE
  5
1FF
330
17
100
AcDbEntity
  8
0
100
AcDbLine
 10
-3.221838
 20
6.677234
 30
8.270000000000001
 11
-3.1839839999999997
 21
5.769584
 31
8.270000000000001
  0
LINE
  5
200
330
17
100
AcDbEntity
  8
0
100
AcDbLine
 10
-3.1839839999999997
 20
5.769584
 30
8.270000000000001
 11
-3.152286
 21
5.59583
 31
8.270000000000001
  0
LINE
  5
201
330
17
100
AcDbEntity
  8
0
100
AcDbLine
 10
-3.152286
 20
5.59583
 30
8.270000000000001
 11
-3.130776
 21
5.497514
 31
8.270000000000001
  0
LINE
  5
202
330
17
100
AcDbEntity
  8
0
100
AcDbLine
 10
-3.130776
 20
5.497514
 30
8.270000000000001
 11
-2.9870460000000003
 21
5.0453
 31
8.270000000000001
  0
LINE
  5
203
330
17
100
AcDbEntity
  8
0
100
AcDbLine
 10
-2.9870460000000003
 20
5.0453
 30
8.270000000000001
 11
-2.925018
 21
4.907672
 31
8.270000000000001
  0
LINE
  5
204
330
17
100
AcDbEntity
  8
0
100
AcDbLine
 10
-2.925018
 20
4.907672
 30
8.270000000000001
 11
-2.8890540000000002
 21
4.821866
 31
8.270000000000001
  0
LINE
  5
205
330
17
100
AcDbEntity
  8
0
100
AcDbLine
 10
-2.8890540000000002
 20
4.821866
 30
8.270000000000001
 11
-2.8619820000000002
 21
4.770026
 31
8.270000000000001
  0
LINE
  5
206
330
17
100
AcDbEntity
  8
0
100
AcDbLine
 10
-2.8619820000000002
 20
4.770026
 30
8.270000000000001
 11
-2.771082
 21
4.5864080000000005
 31
8.270000000000001
  0
LINE
  5
207
330
17
100
AcDbEntity
  8
0
100
AcDbLine
 10
-2.771082
 20
4.5864080000000005
 30
8.270000000000001
 11
-2.7022500000000003
 21
4.475114
 31
8.270000000000001
  0
LINE
  5
208
330
17
100
AcDbEntity
  8
0
100
AcDbLine
 10
-2.7022500000000003
 20
4.475114
 30
8.270000000000001
 11
-2.6275139999999997
 21
4.357142
 31
8.270000000000001
  0
LINE
  5
209
330
17
100
AcDbEntity
  8
0
100
AcDbLine
 10
-2.6275139999999997
 20
4.357142
 30
8.270000000000001
 11
-2.259864
 21
3.9024079999999994
 31
8.270000000000001
  0
LINE
  5
20A
330
17
100
AcDbEntity
  8
0
100
AcDbLine
 10
-2.259864
 20
3.9024079999999994
 30
8.270000000000001
 11
-2.004264
 21
3.6644300000000003
 31
8.270000000000001
  0
LINE
  5
20B
330
17
100
AcDbEntity
  8
0
100
AcDbLine
 10
-2.004264
 20
3.6644300000000003
 30
8.270000000000001
 11
-1.899936
 21
3.590324
 31
8.270000000000001
  0
LINE
  5
20C
330
17
100
AcDbEntity
  8
0
100
AcDbLine
 10
-1.899936
 20
3.590324
 30
8.270000000000001
 11
-1.8252000000000002
 21
3.531338
 31
8.270000000000001
  0
LINE
  5
20D
330
17
100
AcDbEntity
  8
0
100
AcDbLine
 10
-1.8252000000000002
 20
3.531338
 30
8.270000000000001
 11
-1.335762
 21
3.2599340000000003
 31
8.270000000000001
  0
LINE
  5
20E
330
17
100
AcDbEntity
  8
0
100
AcDbLine
 10
-1.335762
 20
3.2599340000000003
 30
8.270000000000001
 11
-1.2824280000000001
 21
3.236408
 31
8.270000000000001
  0
LINE
  5
20F
330
17
100
AcDbEntity
  8
0
100
AcDbLine
 10
-1.2824280000000001
 20
3.236408
 30
8.270000000000001
 11
-0.863874
 21
3.08483
 31
8.270000000000001
  0
LINE
  5
210
330
17
100
AcDbEntity
  8
0
100
AcDbLine
 10
-0.863874
 20
3.08483
 30
8.270000000000001
 11
-0.7459199999999999
 21
3.0565160000000002
 31
8.270000000000001
  0
LINE
  5
211
330
17
100
AcDbEntity
  8
0
100
AcDbLine
 10
-0.7459199999999999
 20
3.0565160000000002
 30
8.270000000000001
 11
-0.39200399999999996
 21
2.999366
 31
8.270000000000001
  0
LINE
  5
212
330
17
100
AcDbEntity
  8
0
100
AcDbLine
 10
-0.39200399999999996
 20
2.999366
 30
8.270000000000001
 11
0.13887
 21
2.9783420000000005
 31
8.270000000000001
  0
LINE
  5
213
330
17
100
AcDbEntity
  8
0
100
AcDbLine
 10
0.13887
 20
2.9783420000000005
 30
8.270000000000001
 11
0.5124420000000001
 21
3.0096439999999998
 31
8.270000000000001
  0
LINE
  5
214
330
17
100
AcDbEntity
  8
0
100
AcDbLine
 10
0.5124420000000001
 20
3.0096439999999998
 30
8.270000000000001
 11
0.709056
 21
3.04343
 31
8.270000000000001
  0
LINE
  5
215
330
17
100
AcDbEntity
  8
0
100
AcDbLine
 10
0.709056
 20
3.04343
 30
8.270000000000001
 11
1.161288
 21
3.1703840000000003
 31
8.270000000000001
  0
LINE
  5
216
330
17
100
AcDbEntity
  8
0
100
AcDbLine
 10
1.161288
 20
3.1703840000000003
 30
8.270000000000001
 11
1.7511299999999999
 21
3.457034
 31
8.270000000000001
  0
LINE
  5
217
330
17
100
AcDbEntity
  8
0
100
AcDbLine
 10
1.7511299999999999
 20
3.457034
 30
8.270000000000001
 11
1.858158
 21
3.531338
 31
8.270000000000001
  0
LINE
  5
218
330
17
100
AcDbEntity
  8
0
100
AcDbLine
 10
1.858158
 20
3.531338
 30
8.270000000000001
 11
1.962126
 21
3.60998
 31
8.270000000000001
  0
LINE
  5
219
330
17
100
AcDbEntity
  8
0
100
AcDbLine
 10
1.962126
 20
3.60998
 30
8.270000000000001
 11
2.284506
 21
3.8852539999999998
 31
8.270000000000001
  0
LINE
  5
21A
330
17
100
AcDbEntity
  8
0
100
AcDbLine
 10
2.284506
 20
3.8852539999999998
 30
8.270000000000001
 11
2.46105
 21
4.081868
 31
8.270000000000001
  0
LINE
  5
21B
330
17
100
AcDbEntity
  8
0
100
AcDbLine
 10
2.46105
 20
4.081868
 30
8.270000000000001
 11
2.646576
 21
4.337468
 31
8.270000000000001
  0
LINE
  5
21C
330
17
100
AcDbEntity
  8
0
100
AcDbLine
 10
2.646576
 20
4.337468
 30
8.270000000000001
 11
2.758572
 21
4.514426
 31
8.270000000000001
  0
LINE
  5
21D
330
17
100
AcDbEntity
  8
0
100
AcDbLine
 10
2.758572
 20
4.514426
 30
8.270000000000001
 11
2.839986
 21
4.671728
 31
8.270000000000001
  0
LINE
  5
21E
330
17
100
AcDbEntity
  8
0
100
AcDbLine
 10
2.839986
 20
4.671728
 30
8.270000000000001
 11
2.900718
 21
4.7897
 31
8.270000000000001
  0
LINE
  5
21F
330
17
100
AcDbEntity
  8
0
100
AcDbLine
 10
2.900718
 20
4.7897
 30
8.270000000000001
 11
2.9165400000000004
 21
4.8290120000000005
 31
8.270000000000001
  0
LINE
  5
220
330
17
100
AcDbEntity
  8
0
100
AcDbLine
 10
2.9165400000000004
 20
4.8290120000000005
 30
8.270000000000001
 11
3.016026
 21
5.084630000000001
 31
8.270000000000001
  0
LINE
  5
221
330
17
100
AcDbEntity
  8
0
100
AcDbLine
 10
3.016026
 20
5.084630000000001
 30
8.270000000000001
 11
3.0881339999999997
 21
5.295698
 31
8.270000000000001
  0
LINE
  5
222
330
17
100
AcDbEntity
  8
0
100
AcDbLine
 10
3.0881339999999997
 20
5.295698
 30
8.270000000000001
 11
3.0951
 21
5.320556
 31
8.270000000000001
  0
LINE
  5
223
330
17
100
AcDbEntity
  8
0
100
AcDbLine
 10
3.0951
 20
5.320556
 30
8.270000000000001
 11
3.122496
 21
5.418872
 31
8.270000000000001
  0
LINE
  5
224
330
17
100
AcDbEntity
  8
0
100
AcDbLine
 10
3.122496
 20
5.418872
 30
8.270000000000001
 11
3.135816
 21
5.477858
 31
8.270000000000001
  0
LINE
  5
225
330
17
100
AcDbEntity
  8
0
100
AcDbLine
 10
3.135816
 20
5.477858
 30
8.270000000000001
 11
3.233484
 21
5.949745999999999
 31
8.270000000000001
  0
LINE
  5
226
330
17
100
AcDbEntity
  8
0
100
AcDbLine
 10
3.233484
 20
5.949745999999999
 30
8.270000000000001
 11
3.261168
 21
6.323318
 31
8.270000000000001
  0
LINE
  5
227
330
17
100
AcDbEntity
  8
0
100
AcDbLine
 10
3.261168
 20
6.323318
 30
8.270000000000001
 11
3.258792
 21
6.854191999999999
 31
8.270000000000001
  0
LINE
  5
228
330
17
100
AcDbEntity
  8
0
100
AcDbLine
 10
3.258792
 20
6.854191999999999
 30
8.270000000000001
 11
3.275352
 21
9.941084
 31
8.270000000000001
  0
LINE
  5
229
330
17
100
AcDbEntity
  8
0
100
AcDbLine
 10
3.275352
 20
9.941084
 30
8.270000000000001
 11
3.324078
 21
10.219508
 31
8.270000000000001
  0
LINE
  5
22A
330
17
100
AcDbEntity
  8
0
100
AcDbLine
 10
3.324078
 20
10.219508
 30
8.270000000000001
 11
3.436164
 21
10.570256
 31
8.270000000000001
  0
LINE
  5
22B
330
17
100
AcDbEntity
  8
0
100
AcDbLine
 10
3.436164
 20
10.570256
 30
8.270000000000001
 11
3.475134
 21
10.648916
 31
8.270000000000001
  0
LINE
  5
22C
330
17
100
AcDbEntity
  8
0
100
AcDbLine
 10
3.475134
 20
10.648916
 30
8.270000000000001
 11
3.5286479999999996
 21
10.747214
 31
8.270000000000001
  0
LINE
  5
22D
330
17
100
AcDbEntity
  8
0
100
AcDbLine
 10
3.5286479999999996
 20
10.747214
 30
8.270000000000001
 11
3.835296
 21
11.090366
 31
8.270000000000001
  0
LINE
  5
22E
330
17
100
AcDbEntity
  8
0
100
AcDbLine
 10
3.835296
 20
11.090366
 30
8.270000000000001
 11
4.03191
 21
11.22488
 31
8.270000000000001
  0
LINE
  5
22F
330
17
100
AcDbEntity
  8
0
100
AcDbLine
 10
4.03191
 20
11.22488
 30
8.270000000000001
 11
4.113792
 21
11.258431999999999
 31
8.270000000000001
  0
LINE
  5
230
330
17
100
AcDbEntity
  8
0
100
AcDbLine
 10
4.113792
 20
11.258431999999999
 30
8.270000000000001
 11
4.208868
 21
11.30246
 31
8.270000000000001
  0
LINE
  5
231
330
17
100
AcDbEntity
  8
0
100
AcDbLine
 10
4.208868
 20
11.30246
 30
8.270000000000001
 11
4.28751
 21
11.320352
 31
8.270000000000001
  0
LINE
  5
232
330
17
100
AcDbEntity
  8
0
100
AcDbLine
 10
4.28751
 20
11.320352
 30
8.270000000000001
 11
4.346496
 21
11.341358
 31
8.270000000000001
  0
LINE
  5
233
330
17
100
AcDbEntity
  8
0
100
AcDbLine
 10
4.346496
 20
11.341358
 30
8.270000000000001
 11
4.385826
 21
11.342024
 31
8.270000000000001
  0
LINE
  5
234
330
17
100
AcDbEntity
  8
0
100
AcDbLine
 10
4.385826
 20
11.342024
 30
8.270000000000001
 11
4.4251380000000005
 21
11.357792
 31
8.270000000000001
  0
LINE
  5
235
330
17
100
AcDbEntity
  8
0
100
AcDbLine
 10
4.4251380000000005
 20
11.357792
 30
8.270000000000001
 11
4.720068
 21
11.366972
 31
8.270000000000001
  0
LINE
  5
236
330
17
100
AcDbEntity
  8
0
100
AcDbLine
 10
4.720068
 20
11.366972
 30
8.270000000000001
 11
5.014998
 21
11.312756
 31
8.270000000000001
  0
LINE
  5
237
330
17
100
AcDbEntity
  8
0
100
AcDbLine
 10
5.014998
 20
11.312756
 30
8.270000000000001
 11
5.093640000000001
 21
11.281652000000001
 31
8.270000000000001
  0
LINE
  5
238
330
17
100
AcDbEntity
  8
0
100
AcDbLine
 10
5.093640000000001
 20
11.281652000000001
 30
8.270000000000001
 11
5.13297
 21
11.268584
 31
8.270000000000001
  0
LINE
  5
239
330
17
100
AcDbEntity
  8
0
100
AcDbLine
 10
5.13297
 20
11.268584
 30
8.270000000000001
 11
5.253083999999999
 21
11.219102
 31
8.270000000000001
  0
LINE
  5
23A
330
17
100
AcDbEntity
  8
0
100
AcDbLine
 10
5.253083999999999
 20
11.219102
 30
8.270000000000001
 11
5.545872
 21
11.014946
 31
8.270000000000001
  0
LINE
  5
23B
330
17
100
AcDbEntity
  8
0
100
AcDbLine
 10
5.545872
 20
11.014946
 30
8.270000000000001
 11
5.64966
 21
10.924171999999999
 31
8.270000000000001
  0
LINE
  5
23C
330
17
100
AcDbEntity
  8
0
100
AcDbLine
 10
5.64966
 20
10.924171999999999
 30
8.270000000000001
 11
5.939100000000001
 21
10.490804
 31
8.270000000000001
  0
LINE
  5
23D
330
17
100
AcDbEntity
  8
0
100
AcDbLine
 10
5.939100000000001
 20
10.490804
 30
8.270000000000001
 11
6.027858
 21
10.25567
 31
8.270000000000001
  0
LINE
  5
23E
330
17
100
AcDbEntity
  8
0
100
AcDbLine
 10
6.027858
 20
10.25567
 30
8.270000000000001
 11
6.106698
 21
9.941084
 31
8.270000000000001
  0
LINE
  5
23F
330
17
100
AcDbEntity
  8
0
100
AcDbLine
 10
6.106698
 20
9.941084
 30
8.270000000000001
 11
6.13035
 21
9.74447
 31
8.270000000000001
  0
LINE
  5
240
330
17
100
AcDbEntity
  8
0
100
AcDbLine
 10
6.13035
 20
9.74447
 30
8.270000000000001
 11
6.140016
 21
9.547856
 31
8.270000000000001
  0
LINE
  5
241
330
17
100
AcDbEntity
  8
0
100
AcDbLine
 10
6.140016
 20
9.547856
 30
8.270000000000001
 11
6.138054
 21
7.188434
 31
8.270000000000001
  0
LINE
  5
242
330
17
100
AcDbEntity
  8
0
100
AcDbLine
 10
6.138054
 20
7.188434
 30
8.270000000000001
 11
6.151014
 21
2.8628360000000006
 31
8.270000000000001
  0
LINE
  5
243
330
17
100
AcDbEntity
  8
0
100
AcDbLine
 10
6.151014
 20
2.8628360000000006
 30
8.270000000000001
 11
6.245748000000001
 21
2.50892
 31
8.270000000000001
  0
LINE
  5
244
330
17
100
AcDbEntity
  8
0
100
AcDbLine
 10
6.245748000000001
 20
2.50892
 30
8.270000000000001
 11
6.4503
 21
2.1744259999999995
 31
8.270000000000001
  0
LINE
  5
245
330
17
100
AcDbEntity
  8
0
100
AcDbLine
 10
6.4503
 20
2.1744259999999995
 30
8.270000000000001
 11
6.6397319999999995
 21
1.9977200000000002
 31
8.270000000000001
  0
LINE
  5
246
330
17
100
AcDbEntity
  8
0
100
AcDbLine
 10
6.6397319999999995
 20
1.9977200000000002
 30
8.270000000000001
 11
6.78456
 21
1.895912000000001
 31
8.270000000000001
  0
LINE
  5
247
330
17
100
AcDbEntity
  8
0
100
AcDbLine
 10
6.78456
 20
1.895912000000001
 30
8.270000000000001
 11
6.941844
 21
1.8120319999999994
 31
8.270000000000001
  0
LINE
  5
248
330
17
100
AcDbEntity
  8
0
100
AcDbLine
 10
6.941844
 20
1.8120319999999994
 30
8.270000000000001
 11
7.33509
 21
1.7099899999999995
 31
8.270000000000001
  0
LINE
  5
249
330
17
100
AcDbEntity
  8
0
100
AcDbLine
 10
7.33509
 20
1.7099899999999995
 30
8.270000000000001
 11
7.669332
 21
1.693988
 31
8.270000000000001
  0
LINE
  5
24A
330
17
100
AcDbEntity
  8
0
100
AcDbLine
 10
7.669332
 20
1.693988
 30
8.270000000000001
 11
7.885619999999999
 21
1.7181259999999998
 31
8.270000000000001
  0
LINE
  5
24B
330
17
100
AcDbEntity
  8
0
100
AcDbLine
 10
7.885619999999999
 20
1.7181259999999998
 30
8.270000000000001
 11
8.063262
 21
1.7617760000000002
 31
8.270000000000001
  0
LINE
  5
24C
330
17
100
AcDbEntity
  8
0
100
AcDbLine
 10
8.063262
 20
1.7617760000000002
 30
8.270000000000001
 11
8.160876
 21
1.791512
 31
8.270000000000001
  0
LINE
  5
24D
330
17
100
AcDbEntity
  8
0
100
AcDbLine
 10
8.160876
 20
1.791512
 30
8.270000000000001
 11
8.219862
 21
1.8224359999999997
 31
8.270000000000001
  0
LINE
  5
24E
330
17
100
AcDbEntity
  8
0
100
AcDbLine
 10
8.219862
 20
1.8224359999999997
 30
8.270000000000001
 11
8.357508
 21
1.889018
 31
8.270000000000001
  0
LINE
  5
24F
330
17
100
AcDbEntity
  8
0
100
AcDbLine
 10
8.357508
 20
1.889018
 30
8.270000000000001
 11
8.609976
 21
2.096036
 31
8.270000000000001
  0
LINE
  5
250
330
17
100
AcDbEntity
  8
0
100
AcDbLine
 10
8.609976
 20
2.096036
 30
8.270000000000001
 11
8.745732
 21
2.2533200000000004
 31
8.270000000000001
  0
LINE
  5
251
330
17
100
AcDbEntity
  8
0
100
AcDbLine
 10
8.745732
 20
2.2533200000000004
 30
8.270000000000001
 11
8.809722
 21
2.3556679999999997
 31
8.270000000000001
  0
LINE
  5
252
330
17
100
AcDbEntity
  8
0
100
AcDbLine
 10
8.809722
 20
2.3556679999999997
 30
8.270000000000001
 11
8.849052
 21
2.4159500000000005
 31
8.270000000000001
  0
LINE
  5
253
330
17
100
AcDbEntity
  8
0
100
AcDbLine
 10
8.849052
 20
2.4159500000000005
 30
8.270000000000001
 11
8.861076
 21
2.449934
 31
8.270000000000001
  0
LINE
  5
254
330
17
100
AcDbEntity
  8
0
100
AcDbLine
 10
8.861076
 20
2.449934
 30
8.270000000000001
 11
8.895528
 21
2.528594
 31
8.270000000000001
  0
LINE
  5
255
330
17
100
AcDbEntity
  8
0
100
AcDbLine
 10
8.895528
 20
2.528594
 30
8.270000000000001
 11
8.944362
 21
2.6858779999999998
 31
8.270000000000001
  0
LINE
  5
256
330
17
100
AcDbEntity
  8
0
100
AcDbLine
 10
8.944362
 20
2.6858779999999998
 30
8.270000000000001
 11
8.972676
 21
2.8038499999999997
 31
8.270000000000001
  0
LINE
  5
257
330
17
100
AcDbEntity
  8
0
100
AcDbLine
 10
8.972676
 20
2.8038499999999997
 30
8.270000000000001
 11
8.983584
 21
2.9218219999999997
 31
8.270000000000001
  0
LINE
  5
258
330
17
100
AcDbEntity
  8
0
100
AcDbLine
 10
8.983584
 20
2.9218219999999997
 30
8.270000000000001
 11
9.0
 21
3.197096
 31
8.270000000000001
  0
LINE
  5
259
330
17
100
AcDbEntity
  8
0
100
AcDbLine
 10
9.0
 20
3.197096
 30
8.270000000000001
 11
8.973594
 21
10.314656
 31
8.270000000000001
  0
LINE
  5
25A
330
17
100
AcDbEntity
  8
0
100
AcDbLine
 10
8.973594
 20
10.314656
 30
8.270000000000001
 11
8.963964
 21
10.393316
 31
8.270000000000001
  0
LINE
  5
25B
330
17
100
AcDbEntity
  8
0
100
AcDbLine
 10
8.963964
 20
10.393316
 30
8.270000000000001
 11
8.959518
 21
10.452302
 31
8.270000000000001
  0
LINE
  5
25C
330
17
100
AcDbEntity
  8
0
100
AcDbLine
 10
8.959518
 20
10.452302
 30
8.270000000000001
 11
8.903268
 21
10.727558
 31
8.270000000000001
  0
LINE
  5
25D
330
17
100
AcDbEntity
  8
0
100
AcDbLine
 10
8.903268
 20
10.727558
 30
8.270000000000001
 11
8.881542
 21
10.84553
 31
8.270000000000001
  0
LINE
  5
25E
330
17
100
AcDbEntity
  8
0
100
AcDbLine
 10
8.881542
 20
10.84553
 30
8.270000000000001
 11
8.862983999999999
 21
10.904516000000001
 31
8.270000000000001
  0
LINE
  5
25F
330
17
100
AcDbEntity
  8
0
100
AcDbLine
 10
8.862983999999999
 20
10.904516000000001
 30
8.270000000000001
 11
8.834795999999999
 21
11.002832
 31
8.270000000000001
  0
LINE
  5
260
330
17
100
AcDbEntity
  8
0
100
AcDbLine
 10
8.834795999999999
 20
11.002832
 30
8.270000000000001
 11
8.823834
 21
11.022488
 31
8.270000000000001
  0
LINE
  5
261
330
17
100
AcDbEntity
  8
0
100
AcDbLine
 10
8.823834
 20
11.022488
 30
8.270000000000001
 11
8.820504
 21
11.061818
 31
8.270000000000001
  0
LINE
  5
262
330
17
100
AcDbEntity
  8
0
100
AcDbLine
 10
8.820504
 20
11.061818
 30
8.270000000000001
 11
8.804466
 21
11.081474
 31
8.270000000000001
  0
LINE
  5
263
330
17
100
AcDbEntity
  8
0
100
AcDbLine
 10
8.804466
 20
11.081474
 30
8.270000000000001
 11
8.797086
 21
11.14046
 31
8.270000000000001
  0
LINE
  5
264
330
17
100
AcDbEntity
  8
0
100
AcDbLine
 10
8.797086
 20
11.14046
 30
8.270000000000001
 11
8.767944
 21
11.199446
 31
8.270000000000001
  0
LINE
  5
265
330
17
100
AcDbEntity
  8
0
100
AcDbLine
 10
8.767944
 20
11.199446
 30
8.270000000000001
 11
8.764884
 21
11.238758
 31
8.270000000000001
  0
LINE
  5
266
330
17
100
AcDbEntity
  8
0
100
AcDbLine
 10
8.764884
 20
11.238758
 30
8.270000000000001
 11
8.738856
 21
11.297744
 31
8.270000000000001
  0
LINE
  5
267
330
17
100
AcDbEntity
  8
0
100
AcDbLine
 10
8.738856
 20
11.297744
 30
8.270000000000001
 11
8.705736
 21
11.376404
 31
8.270000000000001
  0
LINE
  5
268
330
17
100
AcDbEntity
  8
0
100
AcDbLine
 10
8.705736
 20
11.376404
 30
8.270000000000001
 11
8.69175
 21
11.423366
 31
8.270000000000001
  0
LINE
  5
269
330
17
100
AcDbEntity
  8
0
100
AcDbLine
 10
8.69175
 20
11.423366
 30
8.270000000000001
 11
8.651862
 21
11.514032
 31
8.270000000000001
  0
LINE
  5
26A
330
17
100
AcDbEntity
  8
0
100
AcDbLine
 10
8.651862
 20
11.514032
 30
8.270000000000001
 11
8.608824
 21
11.632004
 31
8.270000000000001
  0
LINE
  5
26B
330
17
100
AcDbEntity
  8
0
100
AcDbLine
 10
8.608824
 20
11.632004
 30
8.270000000000001
 11
8.586936
 21
11.671334
 31
8.270000000000001
  0
LINE
  5
26C
330
17
100
AcDbEntity
  8
0
100
AcDbLine
 10
8.586936
 20
11.671334
 30
8.270000000000001
 11
8.534466
 21
11.781854
 31
8.270000000000001
  0
LINE
  5
26D
330
17
100
AcDbEntity
  8
0
100
AcDbLine
 10
8.534466
 20
11.781854
 30
8.270000000000001
 11
8.152704
 21
12.418478
 31
8.270000000000001
  0
LINE
  5
26E
330
17
100
AcDbEntity
  8
0
100
AcDbLine
 10
8.152704
 20
12.418478
 30
8.270000000000001
 11
8.121564
 21
12.467366
 31
8.270000000000001
  0
LINE
  5
26F
330
17
100
AcDbEntity
  8
0
100
AcDbLine
 10
8.121564
 20
12.467366
 30
8.270000000000001
 11
8.081514
 21
12.516776
 31
8.270000000000001
  0
LINE
  5
270
330
17
100
AcDbEntity
  8
0
100
AcDbLine
 10
8.081514
 20
12.516776
 30
8.270000000000001
 11
7.974558
 21
12.654422
 31
8.270000000000001
  0
LINE
  5
271
330
17
100
AcDbEntity
  8
0
100
AcDbLine
 10
7.974558
 20
12.654422
 30
8.270000000000001
 11
7.885619999999999
 21
12.75587
 31
8.270000000000001
  0
LINE
  5
272
330
17
100
AcDbEntity
  8
0
100
AcDbLine
 10
7.885619999999999
 20
12.75587
 30
8.270000000000001
 11
7.649676
 21
13.001768
 31
8.270000000000001
  0
LINE
  5
273
330
17
100
AcDbEntity
  8
0
100
AcDbLine
 10
7.649676
 20
13.001768
 30
8.270000000000001
 11
7.33509
 21
13.289786
 31
8.270000000000001
  0
LINE
  5
274
330
17
100
AcDbEntity
  8
0
100
AcDbLine
 10
7.33509
 20
13.289786
 30
8.270000000000001
 11
7.194978
 21
13.401565999999999
 31
8.270000000000001
  0
LINE
  5
275
330
17
100
AcDbEntity
  8
0
100
AcDbLine
 10
7.194978
 20
13.401565999999999
 30
8.270000000000001
 11
7.07949
 21
13.491098000000001
 31
8.270000000000001
  0
LINE
  5
276
330
17
100
AcDbEntity
  8
0
100
AcDbLine
 10
7.07949
 20
13.491098000000001
 30
8.270000000000001
 11
7.00083
 21
13.542758
 31
8.270000000000001
  0
LINE
  5
277
330
17
100
AcDbEntity
  8
0
100
AcDbLine
 10
7.00083
 20
13.542758
 30
8.270000000000001
 11
6.430644
 21
13.868396
 31
8.270000000000001
  0
LINE
  5
278
330
17
100
AcDbEntity
  8
0
100
AcDbLine
 10
6.430644
 20
13.868396
 30
8.270000000000001
 11
6.017741999999999
 21
14.044633999999999
 31
8.270000000000001
  0
LINE
  5
279
330
17
100
AcDbEntity
  8
0
100
AcDbLine
 10
6.017741999999999
 20
14.044633999999999
 30
8.270000000000001
 11
5.880114
 21
14.087150000000001
 31
8.270000000000001
  0
LINE
  5
27A
330
17
100
AcDbEntity
  8
0
100
AcDbLine
 10
5.880114
 20
14.087150000000001
 30
8.270000000000001
 11
5.762142
 21
14.122412
 31
8.270000000000001
  0
LINE
  5
27B
330
17
100
AcDbEntity
  8
0
100
AcDbLine
 10
5.762142
 20
14.122412
 30
8.270000000000001
 11
4.988988000000001
 21
14.266682
 31
8.270000000000001
  0
LINE
  5
27C
330
17
100
AcDbEntity
  8
0
100
AcDbLine
 10
4.988988000000001
 20
14.266682
 30
8.270000000000001
 11
4.798710000000001
 21
14.282234
 31
8.270000000000001
  0
LINE
  5
27D
330
17
100
AcDbEntity
  8
0
100
AcDbLine
 10
4.798710000000001
 20
14.282234
 30
8.270000000000001
 11
4.228524
 21
14.29073
 31
8.270000000000001
  0
LINE
  5
27E
330
17
100
AcDbEntity
  8
0
100
AcDbLine
 10
4.228524
 20
14.29073
 30
8.270000000000001
 11
3.73698
 21
14.246072
 31
8.270000000000001
  0
LINE
  5
27F
330
17
100
AcDbEntity
  8
0
100
AcDbLine
 10
3.73698
 20
14.246072
 30
8.270000000000001
 11
3.2257800000000003
 21
14.13899
 31
8.270000000000001
  0
LINE
  5
280
330
17
100
AcDbEntity
  8
0
100
AcDbLine
 10
3.2257800000000003
 20
14.13899
 30
8.270000000000001
 11
2.67525
 21
13.9355
 31
8.270000000000001
  0
LINE
  5
281
330
17
100
AcDbEntity
  8
0
100
AcDbLine
 10
2.67525
 20
13.9355
 30
8.270000000000001
 11
2.1425039999999997
 21
13.637509999999999
 31
8.270000000000001
  0
LINE
  5
282
330
17
100
AcDbEntity
  8
0
100
AcDbLine
 10
2.1425039999999997
 20
13.637509999999999
 30
8.270000000000001
 11
1.888776
 21
13.453712
 31
8.270000000000001
  0
LINE
  5
283
330
17
100
AcDbEntity
  8
0
100
AcDbLine
 10
1.888776
 20
13.453712
 30
8.270000000000001
 11
1.308348
 21
12.870692
 31
8.270000000000001
  0
LINE
  5
284
330
17
100
AcDbEntity
  8
0
100
AcDbLine
 10
1.308348
 20
12.870692
 30
8.270000000000001
 11
1.220274
 21
12.743378
 31
8.270000000000001
  0
LINE
  5
285
330
17
100
AcDbEntity
  8
0
100
AcDbLine
 10
1.220274
 20
12.743378
 30
8.270000000000001
 11
1.114884
 21
12.595436
 31
8.270000000000001
  0
LINE
  5
286
330
17
100
AcDbEntity
  8
0
100
AcDbLine
 10
1.114884
 20
12.595436
 30
8.270000000000001
 11
1.082628
 21
12.540338
 31
8.270000000000001
  0
LINE
  5
287
330
17
100
AcDbEntity
  8
0
100
AcDbLine
 10
1.082628
 20
12.540338
 30
8.270000000000001
 11
1.031472
 21
12.45779
 31
8.270000000000001
  0
LINE
  5
288
330
17
100
AcDbEntity
  8
0
100
AcDbLine
 10
1.031472
 20
12.45779
 30
8.270000000000001
 11
1.010286
 21
12.418478
 31
8.270000000000001
  0
LINE
  5
289
330
17
100
AcDbEntity
  8
0
100
AcDbLine
 10
1.010286
 20
12.418478
 30
8.270000000000001
 11
0.971496
 21
12.339818000000001
 31
8.270000000000001
  0
LINE
  5
28A
330
17
100
AcDbEntity
  8
0
100
AcDbLine
 10
0.971496
 20
12.339818000000001
 30
8.270000000000001
 11
0.856062
 21
12.103892
 31
8.270000000000001
  0
LINE
  5
28B
330
17
100
AcDbEntity
  8
0
100
AcDbLine
 10
0.856062
 20
12.103892
 30
8.270000000000001
 11
0.846702
 21
12.071311999999999
 31
8.270000000000001
  0
LINE
  5
28C
330
17
100
AcDbEntity
  8
0
100
AcDbLine
 10
0.846702
 20
12.071311999999999
 30
8.270000000000001
 11
0.839142
 21
12.044906000000001
 31
8.270000000000001
  0
LINE
  5
28D
330
17
100
AcDbEntity
  8
0
100
AcDbLine
 10
0.839142
 20
12.044906000000001
 30
8.270000000000001
 11
0.7757280000000001
 21
11.887604
 31
8.270000000000001
  0
LINE
  5
28E
330
17
100
AcDbEntity
  8
0
100
AcDbLine
 10
0.7757280000000001
 20
11.887604
 30
8.270000000000001
 11
0.762552
 21
11.848274
 31
8.270000000000001
  0
LINE
  5
28F
330
17
100
AcDbEntity
  8
0
100
AcDbLine
 10
0.762552
 20
11.848274
 30
8.270000000000001
 11
0.6894
 21
11.599964
 31
8.270000000000001
  0
LINE
  5
290
330
17
100
AcDbEntity
  8
0
100
AcDbLine
 10
0.6894
 20
11.599964
 30
8.270000000000001
 11
0.675954
 21
11.573018000000001
 31
8.270000000000001
  0
LINE
  5
291
330
17
100
AcDbEntity
  8
0
100
AcDbLine
 10
0.675954
 20
11.573018000000001
 30
8.270000000000001
 11
0.677106
 21
11.533688
 31
8.270000000000001
  0
LINE
  5
292
330
17
100
AcDbEntity
  8
0
100
AcDbLine
 10
0.677106
 20
11.533688
 30
8.270000000000001
 11
0.658242
 21
11.474702
 31
8.270000000000001
  0
LINE
  5
293
330
17
100
AcDbEntity
  8
0
100
AcDbLine
 10
0.658242
 20
11.474702
 30
8.270000000000001
 11
0.6366419999999999
 21
11.337074
 31
8.270000000000001
  0
LINE
  5
294
330
17
100
AcDbEntity
  8
0
100
AcDbLine
 10
0.6366419999999999
 20
11.337074
 30
8.270000000000001
 11
0.61893
 21
11.238758
 31
8.270000000000001
  0
LINE
  5
295
330
17
100
AcDbEntity
  8
0
100
AcDbLine
 10
0.61893
 20
11.238758
 30
8.270000000000001
 11
0.5996520000000001
 21
11.10113
 31
8.270000000000001
  0
LINE
  5
296
330
17
100
AcDbEntity
  8
0
100
AcDbLine
 10
0.5996520000000001
 20
11.10113
 30
8.270000000000001
 11
0.56196
 21
10.393316
 31
8.270000000000001
  0
LINE
  5
297
330
17
100
AcDbEntity
  8
0
100
AcDbLine
 10
0.56196
 20
10.393316
 30
8.270000000000001
 11
0.5381819999999999
 21
5.910416
 31
8.270000000000001
  0
LINE
  5
298
330
17
100
AcDbEntity
  8
0
100
AcDbLine
 10
0.5381819999999999
 20
5.910416
 30
8.270000000000001
 11
0.50418
 21
5.792444
 31
8.270000000000001
  0
LINE
  5
299
330
17
100
AcDbEntity
  8
0
100
AcDbLine
 10
0.50418
 20
5.792444
 30
8.270000000000001
 11
0.48564
 21
5.733458
 31
8.270000000000001
  0
LINE
  5
29A
330
17
100
AcDbEntity
  8
0
100
AcDbLine
 10
0.48564
 20
5.733458
 30
8.270000000000001
 11
0.45345599999999997
 21
5.659459999999999
 31
8.270000000000001
  0
LINE
  5
29B
330
17
100
AcDbEntity
  8
0
100
AcDbLine
 10
0.45345599999999997
 20
5.659459999999999
 30
8.270000000000001
 11
0.312354
 21
5.477858
 31
8.270000000000001
  0
LINE
  5
29C
330
17
100
AcDbEntity
  8
0
100
AcDbLine
 10
0.312354
 20
5.477858
 30
8.270000000000001
 11
0.256842
 21
5.438618
 31
8.270000000000001
  0
LINE
  5
29D
330
17
100
AcDbEntity
  8
0
100
AcDbLine
 10
0.256842
 20
5.438618
 30
8.270000000000001
 11
0.23671799999999998
 21
5.438528
 31
8.270000000000001
  0
LINE
  5
29E
330
17
100
AcDbEntity
  8
0
100
AcDbLine
 10
0.23671799999999998
 20
5.438528
 30
8.270000000000001
 11
0.197856
 21
5.412914000000001
 31
8.270000000000001
  0
LINE
  5
29F
330
17
100
AcDbEntity
  8
0
100
AcDbLine
 10
0.197856
 20
5.412914000000001
 30
8.270000000000001
 11
0.04055399999999999
 21
5.38586
 31
8.270000000000001
  0
LINE
  5
2A0
330
17
100
AcDbEntity
  8
0
100
AcDbLine
 10
0.04055399999999999
 20
5.38586
 30
8.270000000000001
 11
-0.11673
 21
5.396966
 31
8.270000000000001
  0
LINE
  5
2A1
330
17
100
AcDbEntity
  8
0
100
AcDbLine
 10
-0.11673
 20
5.396966
 30
8.270000000000001
 11
-0.218358
 21
5.438528
 31
8.270000000000001
  0
LINE
  5
2A2
330
17
100
AcDbEntity
  8
0
100
AcDbLine
 10
-0.218358
 20
5.438528
 30
8.270000000000001
 11
-0.40266
 21
5.615486
 31
8.270000000000001
  0
LINE
  5
2A3
330
17
100
AcDbEntity
  8
0
100
AcDbLine
 10
-0.40266
 20
5.615486
 30
8.270000000000001
 11
-0.498672
 21
5.851430000000001
 31
8.270000000000001
  0
LINE
  5
2A4
330
17
100
AcDbEntity
  8
0
100
AcDbLine
 10
-0.498672
 20
5.851430000000001
 30
8.270000000000001
 11
-0.517968
 21
6.008732
 31
8.270000000000001
  0
LINE
  5
2A5
330
17
100
AcDbEntity
  8
0
100
AcDbLine
 10
-0.517968
 20
6.008732
 30
8.270000000000001
 11
-0.524322
 21
6.814862
 31
8.270000000000001
  0
LINE
  5
2A6
330
17
100
AcDbEntity
  8
0
100
AcDbLine
 10
-0.524322
 20
6.814862
 30
8.270000000000001
 11
-0.52371
 21
9.44954
 31
8.270000000000001
  0
LINE
  5
2A7
330
17
100
AcDbEntity
  8
0
100
AcDbLine
 10
-0.52371
 20
9.44954
 30
8.270000000000001
 11
-0.546408
 21
10.963502
 31
8.270000000000001
  0
LINE
  5
2A8
330
17
100
AcDbEntity
  8
0
100
AcDbLine
 10
-0.546408
 20
10.963502
 30
8.270000000000001
 11
-0.707382
 21
11.769632
 31
8.270000000000001
  0
LINE
  5
2A9
330
17
100
AcDbEntity
  8
0
100
AcDbLine
 10
-0.707382
 20
11.769632
 30
8.270000000000001
 11
-0.7361639999999999
 21
11.848274
 31
8.270000000000001
  0
LINE
  5
2AA
330
17
100
AcDbEntity
  8
0
100
AcDbLine
 10
-0.7361639999999999
 20
11.848274
 30
8.270000000000001
 11
-0.76059
 21
11.926934
 31
8.270000000000001
  0
LINE
  5
2AB
330
17
100
AcDbEntity
  8
0
100
AcDbLine
 10
-0.76059
 20
11.926934
 30
8.270000000000001
 11
-0.818046
 21
12.064562
 31
8.270000000000001
  0
LINE
  5
2AC
330
17
100
AcDbEntity
  8
0
100
AcDbLine
 10
-0.818046
 20
12.064562
 30
8.270000000000001
 11
-0.8334539999999999
 21
12.103892
 31
8.270000000000001
  0
LINE
  5
2AD
330
17
100
AcDbEntity
  8
0
100
AcDbLine
 10
-0.8334539999999999
 20
12.103892
 30
8.270000000000001
 11
-0.8551979999999999
 21
12.162878
 31
8.270000000000001
  0
LINE
  5
2AE
330
17
100
AcDbEntity
  8
0
100
AcDbLine
 10
-0.8551979999999999
 20
12.162878
 30
8.270000000000001
 11
-0.886446
 21
12.221864
 31
8.270000000000001
  0
LINE
  5
2AF
330
17
100
AcDbEntity
  8
0
100
AcDbLine
 10
-0.886446
 20
12.221864
 30
8.270000000000001
 11
-0.981846
 21
12.409316
 31
8.270000000000001
  0
LINE
  5
2B0
330
17
100
AcDbEntity
  8
0
100
AcDbLine
 10
-0.981846
 20
12.409316
 30
8.270000000000001
 11
-1.010916
 21
12.45779
 31
8.270000000000001
  0
LINE
  5
2B1
330
17
100
AcDbEntity
  8
0
100
AcDbLine
 10
-1.010916
 20
12.45779
 30
8.270000000000001
 11
-1.032282
 21
12.497119999999999
 31
8.270000000000001
  0
LINE
  5
2B2
330
17
100
AcDbEntity
  8
0
100
AcDbLine
 10
-1.032282
 20
12.497119999999999
 30
8.270000000000001
 11
-1.099818
 21
12.607046
 31
8.270000000000001
  0
LINE
  5
2B3
330
17
100
AcDbEntity
  8
0
100
AcDbLine
 10
-1.099818
 20
12.607046
 30
8.270000000000001
 11
-1.1449259999999999
 21
12.674078
 31
8.270000000000001
  0
LINE
  5
2B4
330
17
100
AcDbEntity
  8
0
100
AcDbLine
 10
-1.1449259999999999
 20
12.674078
 30
8.270000000000001
 11
-1.198134
 21
12.753476
 31
8.270000000000001
  0
LINE
  5
2B5
330
17
100
AcDbEntity
  8
0
100
AcDbLine
 10
-1.198134
 20
12.753476
 30
8.270000000000001
 11
-1.473606
 21
13.08698
 31
8.270000000000001
  0
LINE
  5
2B6
330
17
100
AcDbEntity
  8
0
100
AcDbLine
 10
-1.473606
 20
13.08698
 30
8.270000000000001
 11
-1.787994
 21
13.375357999999999
 31
8.270000000000001
  0
LINE
  5
2B7
330
17
100
AcDbEntity
  8
0
100
AcDbLine
 10
-1.787994
 20
13.375357999999999
 30
8.270000000000001
 11
-2.03022
 21
13.55885
 31
8.270000000000001
  0
LINE
  5
2B8
330
17
100
AcDbEntity
  8
0
100
AcDbLine
 10
-2.03022
 20
13.55885
 30
8.270000000000001
 11
-2.2991940000000004
 21
13.737878
 31
8.270000000000001
  0
LINE
  5
2B9
330
17
100
AcDbEntity
  8
0
100
AcDbLine
 10
-2.2991940000000004
 20
13.737878
 30
8.270000000000001
 11
-3.105324
 21
14.098904000000001
 31
8.270000000000001
  0
LINE
  5
2BA
330
17
100
AcDbEntity
  8
0
100
AcDbLine
 10
-3.105324
 20
14.098904000000001
 30
8.270000000000001
 11
-3.16431
 21
14.116562
 31
8.270000000000001
  0
LINE
  5
2BB
330
17
100
AcDbEntity
  8
0
100
AcDbLine
 10
-3.16431
 20
14.116562
 30
8.270000000000001
 11
-3.813156
 21
14.259518
 31
8.270000000000001
  0
LINE
  5
2BC
330
17
100
AcDbEntity
  8
0
100
AcDbLine
 10
-3.813156
 20
14.259518
 30
8.270000000000001
 11
-4.2457139999999995
 21
14.302484
 31
8.270000000000001
  0
LINE
  5
2BD
330
17
100
AcDbEntity
  8
0
100
AcDbLine
 10
-4.2457139999999995
 20
14.302484
 30
8.270000000000001
 11
-4.305168
 21
14.306011999999999
 31
8.270000000000001
  0
ENDSEC
  0
SECTION
  2
OBJECTS
  0
DICTIONARY
  5
A
330
0
100
AcDbDictionary
281
1
  3
ACAD_COLOR
350
B
  3
ACAD_GROUP
350
C
  3
ACAD_LAYOUT
350
D
  3
ACAD_MATERIAL
350
E
  3
ACAD_MLEADERSTYLE
350
F
  3
ACAD_MLINESTYLE
350
10
  3
ACAD_PLOTSETTINGS
350
11
  3
ACAD_PLOTSTYLENAME
350
12
  3
ACAD_SCALELIST
350
14
  3
ACAD_TABLESTYLE
350
15
  3
ACAD_VISUALSTYLE
350
16
  3
EZDXF_META
350
2D
  0
DICTIONARY
  5
B
330
A
100
AcDbDictionary
281
1
  0
DICTIONARY
  5
C
330
A
100
AcDbDictionary
281
1
  0
DICTIONARY
  5
D
330
A
100
AcDbDictionary
281
1
  3
Model
350
1A
  3
Layout1
350
1E
  0
DICTIONARY
  5
E
330
A
100
AcDbDictionary
281
1
  3
ByBlock
350
1F
  3
ByLayer
350
20
  3
Global
350
21
  0
DICTIONARY
  5
F
330
A
100
AcDbDictionary
281
1
  3
Standard
350
2C
  0
DICTIONARY
  5
10
330
A
100
AcDbDictionary
281
1
  3
Standard
350
22
  0
DICTIONARY
  5
11
330
A
100
AcDbDictionary
281
1
  0
ACDBDICTIONARYWDFLT
  5
12
330
A
100
AcDbDictionary
281
1
  3
Normal
350
13
100
AcDbDictionaryWithDefault
340
13
  0
ACDBPLACEHOLDER
  5
13
330
12
  0
DICTIONARY
  5
14
330
A
100
AcDbDictionary
281
1
  0
DICTIONARY
  5
15
330
A
100
AcDbDictionary
281
1
  0
DICTIONARY
  5
16
330
A
100
AcDbDictionary
281
1
  0
LAYOUT
  5
1A
330
D
100
AcDbPlotSettings
  1

  4
A3
  6

 40
7.5
 41
20.0
 42
7.5
 43
20.0
 44
420.0
 45
297.0
 46
0.0
 47
0.0
 48
0.0
 49
0.0
140
0.0
141
0.0
142
1.0
143
1.0
 70
1024
 72
1
 73
0
 74
5
  7

 75
16
 76
0
 77
2
 78
300
147
1.0
148
0.0
149
0.0
100
AcDbLayout
  1
Model
 70
1
 71
0
 10
0.0
 20
0.0
 11
420.0
 21
297.0
 12
0.0
 22
0.0
 32
0.0
 14
1e+20
 24
1e+20
 34
1e+20
 15
-1e+20
 25
-1e+20
 35
-1e+20
146
0.0
 13
0.0
 23
0.0
 33
0.0
 16
1.0
 26
0.0
 36
0.0
 17
0.0
 27
1.0
 37
0.0
 76
1
330
17
  0
LAYOUT
  5
1E
330
D
100
AcDbPlotSettings
  1

  4
A3
  6

 40
7.5
 41
20.0
 42
7.5
 43
20.0
 44
420.0
 45
297.0
 46
0.0
 47
0.0
 48
0.0
 49
0.0
140
0.0
141
0.0
142
1.0
143
1.0
 70
0
 72
1
 73
0
 74
5
  7

 75
16
 76
0
 77
2
 78
300
147
1.0
148
0.0
149
0.0
100
AcDbLayout
  1
Layout1
 70
1
 71
1
 10
0.0
 20
0.0
 11
420.0
 21
297.0
 12
0.0
 22
0.0
 32
0.0
 14
1e+20
 24
1e+20
 34
1e+20
 15
-1e+20
 25
-1e+20
 35
-1e+20
146
0.0
 13
0.0
 23
0.0
 33
0.0
 16
1.0
 26
0.0
 36
0.0
 17
0.0
 27
1.0
 37
0.0
 76
1
330
1B
  0
MATERIAL
  5
1F
102
{ACAD_REACTORS
330
E
102
}
330
E
100
AcDbMaterial
  1
ByBlock
  2

 70
0
 40
1.0
 71
1
 41
1.0
 91
-1023410177
 42
1.0
 72
1
  3

 73
1
 74
1
 75
1
 44
0.5
 73
0
 45
1.0
 46
1.0
 77
1
  4

 78
1
 79
1
170
1
 48
1.0
171
1
  6

172
1
173
1
174
1
140
1.0
141
1.0
175
1
  7

176
1
177
1
178
1
143
1.0
179
1
  8

270
1
271
1
272
1
145
1.0
146
1.0
273
1
  9

274
1
275
1
276
1
 42
1.0
 72
1
  3

 73
1
 74
1
 75
1
 94
63
  0
MATERIAL
  5
20
102
{ACAD_REACTORS
330
E
102
}
330
E
100
AcDbMaterial
  1
ByLayer
  2

 70
0
 40
1.0
 71
1
 41
1.0
 91
-1023410177
 42
1.0
 72
1
  3

 73
1
 74
1
 75
1
 44
0.5
 73
0
 45
1.0
 46
1.0
 77
1
  4

 78
1
 79
1
170
1
 48
1.0
171
1
  6

172
1
173
1
174
1
140
1.0
141
1.0
175
1
  7

176
1
177
1
178
1
143
1.0
179
1
  8

270
1
271
1
272
1
145
1.0
146
1.0
273
1
  9

274
1
275
1
276
1
 42
1.0
 72
1
  3

 73
1
 74
1
 75
1
 94
63
  0
MATERIAL
  5
21
102
{ACAD_REACTORS
330
E
102
}
330
E
100
AcDbMaterial
  1
Global
  2

 70
0
 40
1.0
 71
1
 41
1.0
 91
-1023410177
 42
1.0
 72
1
  3

 73
1
 74
1
 75
1
 44
0.5
 73
0
 45
1.0
 46
1.0
 77
1
  4

 78
1
 79
1
170
1
 48
1.0
171
1
  6

172
1
173
1
174
1
140
1.0
141
1.0
175
1
  7

176
1
177
1
178
1
143
1.0
179
1
  8

270
1
271
1
272
1
145
1.0
146
1.0
273
1
  9

274
1
275
1
276
1
 42
1.0
 72
1
  3

 73
1
 74
1
 75
1
 94
63
  0
MLINESTYLE
  5
22
102
{ACAD_REACTORS
330
10
102
}
330
10
100
AcDbMlineStyle
  2
Standard
 70
0
  3

 62
256
 51
90.0
 52
90.0
 71
2
 49
0.5
 62
256
  6
BYLAYER
 49
-0.5
 62
256
  6
BYLAYER
  0
MLEADERSTYLE
  5
2C
102
{ACAD_REACTORS
330
F
102
}
330
F
100
AcDbMLeaderStyle
179
2
170
2
171
1
172
0
 90
2
 40
0.0
 41
0.0
173
1
 91
-1056964608
 92
-2
290
1
 42
2.0
291
1
 43
8.0
  3
Standard
 44
4.0
300

342
29
174
1
175
1
176
0
178
1
 93
-1056964608
 45
4.0
292
0
297
0
 46
4.0
 94
-1056964608
 47
1.0
 49
1.0
140
1.0
294
1
141
0.0
177
0
142
1.0
295
0
296
0
143
3.75
271
0
272
9
273
9
  0
DICTIONARY
  5
2D
330
A
100
AcDbDictionary
280
1
281
1
  3
CREATED_BY_EZDXF
350
2E
  3
WRITTEN_BY_EZDXF
350
2C1
  0
DICTIONARYVAR
  5
2E
330
2D
100
DictionaryVariables
280
0
  1
1.4.4 @ 2026-09-12T15:34:29.723996+00:00
  0
DICTIONARYVAR
  5
2C1
330
2D
100
DictionaryVariables
280
0
  1
1.4.4 @ 2026-09-12T15:34:29.753279+00:00
  0
ENDSEC
  0
EOF
