<svg xmlns="http://www.w3.org/2000/svg" viewBox="-20 -20 40 40"><title>mytunas waveform logo and wordmark</title><path fill="#182329" fill-rule="evenodd" d="M 5.74022,-14.40802 L 6.29014,-14.40485 L 6.63094,-14.37305 L 7.07659,-14.31031 L 7.81063,-14.13442 L 8.15146,-14.00599 L 8.30873,-13.94782 L 9.09521,-13.53586 L 9.20006,-13.46402 L 9.31994,-13.38559 L 9.80304,-13.01316 L 10.39985,-12.41561 L 10.86022,-11.83886 L 10.90409,-11.75971 L 11.11750,-11.41942 L 11.54498,-10.52808 L 11.61643,-10.31834 L 11.65812,-10.21349 L 11.67103,-10.16105 L 11.71241,-10.05619 L 11.73002,-9.97754 L 11.77416,-9.84648 L 11.77037,-9.79404 L 11.79240,-9.74160 L 11.81777,-9.61054 L 11.89433,-9.24350 L 11.92188,-9.03379 L 11.95946,-8.74541 L 11.97895,-8.49350 L 11.98075,-8.40461 L 11.99551,-8.06381 L 12.00000,-6.41220 L 11.97895,0.86141 L 11.94494,1.03306 L 11.92651,1.08550 L 11.78129,1.45250 L 11.66436,1.63759 L 11.53697,1.79330 L 11.32356,1.99092 L 11.08762,2.14982 L 10.90409,2.24546 L 10.78030,2.29142 L 10.51087,2.35805 L 10.03898,2.40734 L 9.69818,2.38291 L 9.40980,2.32226 L 8.93791,2.10708 L 8.64444,1.87195 L 8.46137,1.66224 L 8.18760,1.08550 L 8.16362,0.98062 L 8.12146,0.58740 L 8.11786,-1.27392 L 8.12270,-6.83167 L 8.09126,-8.50946 L 8.00609,-8.98135 L 7.96651,-9.08621 L 7.90459,-9.26974 L 7.82491,-9.42701 L 7.78442,-9.50897 L 7.69646,-9.63674 L 7.56686,-9.82025 L 7.36109,-10.02998 L 7.02418,-10.27212 L 6.94553,-10.30498 L 6.65714,-10.42930 L 6.60473,-10.43162 L 6.55229,-10.45349 L 6.45526,-10.47564 L 6.21149,-10.50278 L 5.89690,-10.48946 L 5.56690,-10.42322 L 5.52986,-10.40230 L 5.49389,-10.39699 L 5.45122,-10.37460 L 5.42302,-10.37078 L 5.38942,-10.34458 L 5.36537,-10.34458 L 5.32015,-10.31592 L 5.04667,-10.13484 L 5.00388,-10.10863 L 4.79582,-9.88522 L 4.47965,-9.32215 L 4.35758,-8.85026 L 4.29773,-8.21002 L 4.29401,-7.32977 L 4.29578,-4.23631 L 4.24531,-3.02611 L 4.20305,-2.79444 L 4.17437,-2.66335 L 3.98273,-2.06040 L 3.90002,-1.87690 L 3.85207,-1.76249 L 3.81598,-1.69337 L 3.69478,-1.44854 L 3.60300,-1.30015 L 3.50335,-1.14286 L 3.01315,-0.53654 L 2.67235,-0.21924 L 2.53325,-0.12043 L 2.43360,-0.04178 L 1.78102,0.32009 L 1.70990,0.35146 L 1.15183,0.55356 L 0.99456,0.59131 L 0.52267,0.66751 L -0.18516,0.69554 L -0.68326,0.65381 L -0.94541,0.60876 L -1.54838,0.43949 L -2.33484,0.05729 L -2.47754,-0.04178 L -2.61617,-0.14664 L -3.04601,-0.51367 L -3.28140,-0.77582 L -3.52877,-1.11662 L -3.67810,-1.35257 L -3.78665,-1.56230 L -3.86762,-1.71960 L -3.88872,-1.77202 L -4.02137,-2.11284 L -4.11751,-2.39426 L -4.12680,-2.42741 L -4.16333,-2.55850 L -4.18109,-2.63714 L -4.31131,-3.26633 L -4.34822,-3.76442 L -4.34506,-4.47226 L -4.36714,-8.58811 L -4.43210,-8.95934 L -4.58155,-9.42701 L -4.63351,-9.53189 L -4.70486,-9.66295 L -5.11373,-10.12049 L -5.37588,-10.29984 L -5.48506,-10.34458 L -5.61182,-10.40328 L -5.71668,-10.42714 L -5.79533,-10.45514 L -5.84777,-10.45603 L -5.90018,-10.47706 L -6.29342,-10.48930 L -6.68666,-10.41701 L -6.79152,-10.37554 L -6.84396,-10.35811 L -7.00411,-10.29214 L -7.39450,-10.01993 L -7.53288,-9.89890 L -7.91880,-9.32107 L -8.03714,-9.00756 L -8.14226,-8.58811 L -8.17380,-8.32596 L -8.18669,-8.06381 L -8.18407,-4.91791 L -8.20135,0.84955 L -8.32766,1.32144 L -8.60040,1.76743 L -8.85298,2.00304 L -9.04608,2.13878 L -9.25579,2.25062 L -9.78012,2.38668 L -10.22578,2.40802 L -10.51416,2.37583 L -10.75102,2.31763 L -10.88117,2.27798 L -10.95982,2.23675 L -11.14334,2.14798 L -11.47997,1.87195 L -11.66098,1.66224 L -11.74630,1.52578 L -11.79874,1.44540 L -11.81477,1.40009 L -11.86070,1.29521 L -11.92582,1.08550 L -11.96357,0.92820 L -11.97811,0.77090 L -12.00000,0.40387 L -11.96479,-9.08621 L -11.95195,-9.19109 L -11.94602,-9.26974 L -11.87102,-9.63674 L -11.84206,-9.79404 L -11.81731,-9.87269 L -11.77973,-10.00378 L -11.76511,-10.02998 L -11.76067,-10.08242 L -11.73929,-10.10863 L -11.72945,-10.18728 L -11.69059,-10.26593 L -11.68651,-10.31834 L -11.65181,-10.39699 L -11.60765,-10.50187 L -11.58900,-10.56449 L -11.53582,-10.68538 L -11.47843,-10.84267 L -11.44925,-10.89511 L -11.37929,-11.04247 L -10.87027,-11.89130 L -10.82875,-11.95649 L -10.77535,-12.02237 L -10.63274,-12.20590 L -10.51416,-12.34116 L -10.19957,-12.66902 L -9.78012,-13.05305 L -9.59330,-13.20209 L -9.43932,-13.32146 L -9.33444,-13.39034 L -8.57419,-13.82453 L -8.02366,-14.05951 L -7.84015,-14.11620 L -7.68286,-14.16322 L -6.65198,-14.35558 L -6.39828,-14.37631 L -5.63803,-14.38764 L -4.98264,-14.32810 L -4.30104,-14.18532 L -3.56700,-13.91400 L -2.85667,-13.51668 L -2.51837,-13.27162 L -1.74446,-12.49426 L -1.62703,-12.32450 L -1.48651,-12.12725 L -1.44350,-12.05378 L -1.37530,-11.94372 L -1.34705,-11.89130 L -1.29533,-11.78642 L -1.14142,-11.47186 L -1.12894,-11.42842 L -1.11886,-11.39321 L -1.03430,-11.18347 L -1.01674,-11.13103 L -0.91920,-10.79995 L -0.90127,-10.76402 L -0.90281,-10.71158 L -0.87766,-10.63294 L -0.84886,-10.44943 L -0.82524,-10.31834 L -0.79954,-10.13484 L -0.74928,-9.19109 L -0.71758,-3.21389 L -0.67224,-3.05659 L -0.64752,-2.97794 L -0.60461,-2.87928 L -0.41647,-2.63714 L -0.34246,-2.58482 L -0.31562,-2.58470 L -0.26381,-2.55055 L -0.05407,-2.51448 L 0.15564,-2.52929 L 0.29114,-2.58470 L 0.53688,-2.82065 L 0.66490,-3.13524 L 0.69062,-3.34498 L 0.69910,-4.41982 L 0.69828,-7.93272 L 0.72854,-9.95134 L 0.94318,-11.02618 L 0.98155,-11.13103 L 1.01412,-11.23591 L 1.09073,-11.41942 L 1.11127,-11.47186 L 1.14026,-11.55050 L 1.18193,-11.62915 L 1.30913,-11.87909 L 1.34789,-11.94372 L 1.37638,-11.99616 L 1.46642,-12.14273 L 1.52657,-12.23210 L 1.59751,-12.33797 L 1.96481,-12.78264 L 2.38399,-13.16714 L 2.70696,-13.41180 L 3.06559,-13.65050 L 4.14043,-14.13187 L 4.21908,-14.15542 L 5.08421,-14.34602 L 5.66095,-14.40331 L 5.74022,-14.40802 L 5.74022,-14.40802 Z M -10.21179,7.83109 L -10.11616,7.70000 L -9.89955,7.48766 L -9.77852,7.40643 L -9.65016,7.34260 L -9.37477,7.26970 L -9.22774,7.26057 L -9.10226,7.26557 L -8.87437,7.30545 L -8.67727,7.38524 L -8.51094,7.50492 L -8.43931,7.57972 L -8.37577,7.66383 L -8.27411,7.85933 L -8.20635,8.09120 L -8.17245,8.35939 L -8.16821,8.50712 L -8.16821,10.33533 L -9.13338,10.33533 L -9.13338,8.76964 L -9.13123,8.73405 L -9.12995,8.69759 L -9.12865,8.65191 L -9.12824,8.59034 L -9.13411,8.44175 L -9.18130,8.21056 L -9.22259,8.12793 L -9.27659,8.06488 L -9.42802,7.99281 L -9.52544,7.98379 L -9.59171,7.98733 L -9.71269,8.01554 L -9.81820,8.07193 L -9.90829,8.15656 L -9.94755,8.20942 L -10.01283,8.33443 L -10.09005,8.66000 L -10.10196,8.86059 L -10.10196,10.33533 L -11.06711,10.33533 L -11.06711,8.76964 L -11.07249,8.54263 L -11.11536,8.22177 L -11.15291,8.12793 L -11.20418,8.06488 L -11.35688,7.99281 L -11.45833,7.98379 L -11.52541,7.98733 L -11.64777,8.01564 L -11.75437,8.07227 L -11.84521,8.15721 L -11.88470,8.21028 L -11.95041,8.33570 L -12.02547,8.65956 L -12.03485,8.85801 L -12.03485,10.33533 L -13.00000,10.33533 L -13.00000,7.33265 L -12.03485,7.33265 L -12.03485,7.77189 L -11.94284,7.65276 L -11.73952,7.46142 L -11.62819,7.38927 L -11.51072,7.33296 L -11.25805,7.26861 L -11.12288,7.26057 L -10.97210,7.26996 L -10.69757,7.34502 L -10.57381,7.41070 L -10.46144,7.49327 L -10.28040,7.70348 L -10.21179,7.83109 Z M -7.66719,7.33265 L -6.70719,7.33265 L -5.89989,9.37019 L -5.21355,7.33265 L -4.25441,7.33265 L -5.51725,10.61931 L -5.61608,10.85133 L -5.77938,11.12836 L -5.89831,11.26574 L -5.96081,11.32024 L -6.02659,11.36709 L -6.17341,11.44205 L -6.43165,11.50762 L -6.62912,11.52013 L -7.18419,11.52013 L -7.18419,10.89041 L -6.88392,10.89041 L -6.77040,10.88555 L -6.59324,10.84649 L -6.52959,10.81236 L -6.47694,10.76597 L -6.39031,10.62656 L -6.35630,10.53353 L -6.32884,10.45031 L -7.66719,7.33265 Z M -2.64581,6.47987 L -2.64581,7.33265 L -1.65578,7.33265 L -1.65578,8.01897 L -2.64581,8.01897 L -2.64581,9.29211 L -2.64061,9.38831 L -2.59901,9.52988 L -2.56259,9.57522 L -2.51074,9.60752 L -2.34559,9.64441 L -2.23231,9.64901 L -1.73898,9.64901 L -1.73898,10.33533 L -2.56259,10.33533 L -2.69942,10.33164 L -2.94211,10.30205 L -3.14350,10.24285 L -3.30361,10.15406 L -3.36817,10.09855 L -3.42368,10.03397 L -3.51247,9.87376 L -3.57167,9.67215 L -3.60126,9.42916 L -3.60495,9.29211 L -3.60495,8.01897 L -4.08283,8.01897 L -4.08283,7.33265 L -3.60495,7.33265 L -3.60495,6.47987 L -2.64581,6.47987 Z M -1.10157,9.16601 L -1.10157,7.33265 L -0.13640,7.33265 L -0.13640,7.63292 L -0.13705,7.90787 L -0.13897,8.24545 L -0.14092,8.55280 L -0.14154,8.73704 L -0.13684,9.04846 L -0.12269,9.25867 L -0.09716,9.39658 L -0.05834,9.49117 L -0.02686,9.53529 L 0.04992,9.60778 L 0.09524,9.63614 L 0.14461,9.65829 L 0.25399,9.68359 L 0.31400,9.68676 L 0.38706,9.68315 L 0.52109,9.65432 L 0.63905,9.59662 L 0.74095,9.51007 L 0.78585,9.45599 L 0.82607,9.39549 L 0.89042,9.25769 L 0.94671,9.00894 L 0.95742,8.81511 L 0.95742,7.33265 L 1.91745,7.33265 L 1.91745,10.33533 L 0.95742,10.33533 L 0.95742,9.90124 L 0.84729,10.02393 L 0.61737,10.21781 L 0.49759,10.28903 L 0.37315,10.34345 L 0.10590,10.40564 L -0.03689,10.41341 L -0.16320,10.40842 L -0.39247,10.36854 L -0.59064,10.28874 L -0.75772,10.16906 L -0.82961,10.09426 L -0.89333,10.00994 L -0.99533,9.81414 L -1.06332,9.58206 L -1.09730,9.31377 L -1.10157,9.16601 Z M 5.85785,8.50712 L 5.85785,10.33533 L 4.89271,10.33533 L 4.89271,10.03766 L 4.89271,8.93609 L 4.88842,8.60771 L 4.87555,8.39989 L 4.85194,8.27184 L 4.81549,8.18285 L 4.78465,8.13828 L 4.70787,8.06494 L 4.66190,8.03613 L 4.61217,8.01325 L 4.50234,7.98707 L 4.44228,7.98379 L 4.36922,7.98743 L 4.23519,8.01650 L 4.11723,8.07461 L 4.01534,8.16181 L 3.97043,8.21628 L 3.93021,8.27699 L 3.86589,8.41510 L 3.80957,8.66413 L 3.79886,8.85801 L 3.79886,10.33533 L 2.83969,10.33533 L 2.83969,7.33265 L 3.79886,7.33265 L 3.79886,7.77189 L 3.90905,7.64927 L 4.13938,7.45581 L 4.25955,7.38498 L 4.38498,7.33054 L 4.65478,7.26835 L 4.79918,7.26057 L 4.92523,7.26557 L 5.15388,7.30545 L 5.35119,7.38524 L 5.51720,7.50492 L 5.58847,7.57972 L 5.65159,7.66383 L 5.75263,7.85933 L 5.81997,8.09120 L 5.85364,8.35939 L 5.85785,8.50712 Z M 8.09357,8.98414 L 7.95272,8.99051 L 7.72665,9.04155 L 7.64145,9.08622 L 7.57539,9.14295 L 7.49991,9.29310 L 7.49047,9.38649 L 7.49809,9.47255 L 7.55898,9.61539 L 7.61228,9.67218 L 7.67952,9.71721 L 7.84940,9.76869 L 7.95202,9.77514 L 8.08184,9.76300 L 8.30960,9.66607 L 8.40757,9.58123 L 8.48866,9.47775 L 8.58130,9.23410 L 8.59290,9.09394 L 8.59290,8.98414 L 8.09357,8.98414 Z M 9.56062,8.62209 L 9.56062,10.33533 L 8.59290,10.33533 L 8.59290,9.89008 L 8.49332,10.01764 L 8.27583,10.21711 L 8.15792,10.28903 L 8.03085,10.34345 L 7.73744,10.40564 L 7.57110,10.41341 L 7.45719,10.40917 L 7.24581,10.37517 L 7.05643,10.30718 L 6.88901,10.20520 L 6.81356,10.14145 L 6.74541,10.07073 L 6.63634,9.91416 L 6.56362,9.73744 L 6.52727,9.54054 L 6.52272,9.43454 L 6.52842,9.30683 L 6.57376,9.07787 L 6.66450,8.88420 L 6.80059,8.72580 L 6.88563,8.65984 L 6.98303,8.60194 L 7.21661,8.50928 L 7.50186,8.44750 L 7.83879,8.41661 L 8.02667,8.41276 L 8.59290,8.41276 L 8.59290,8.33812 L 8.58164,8.23167 L 8.49155,8.06481 L 8.41272,8.00438 L 8.31046,7.95784 L 8.03036,7.90465 L 7.85249,7.89802 L 7.70115,7.90186 L 7.41416,7.93275 L 7.27857,7.95977 L 7.14831,7.99453 L 6.90167,8.08717 L 6.78525,8.14509 L 6.78525,7.41327 L 7.09454,7.34700 L 7.40467,7.29918 L 7.71589,7.27022 L 8.02667,7.26057 L 8.22271,7.26557 L 8.57241,7.30558 L 8.86561,7.38558 L 9.10229,7.50557 L 9.19942,7.58058 L 9.28408,7.66685 L 9.41954,7.87703 L 9.50981,8.13742 L 9.55497,8.44799 L 9.56062,8.62209 Z M 12.79925,7.42614 L 12.79925,8.15539 L 12.49641,8.04278 L 12.20385,7.96234 L 12.06257,7.93421 L 11.79188,7.90202 L 11.66251,7.89802 L 11.53446,7.90231 L 11.33114,7.93663 L 11.25587,7.96663 L 11.19804,8.00553 L 11.13200,8.11062 L 11.12374,8.17684 L 11.13000,8.23136 L 11.18021,8.32015 L 11.22412,8.35442 L 11.28429,8.38294 L 11.46444,8.42842 L 11.58443,8.44537 L 11.75346,8.46939 L 12.09211,8.52371 L 12.48671,8.63353 L 12.67414,8.72565 L 12.74520,8.77736 L 12.80492,8.83482 L 12.90047,8.97262 L 12.96417,9.14097 L 12.99602,9.33990 L 13.00000,9.45084 L 12.99446,9.56701 L 12.95018,9.77709 L 12.86160,9.95748 L 12.72872,10.10815 L 12.64567,10.17234 L 12.55186,10.22884 L 12.33159,10.31924 L 12.06780,10.37951 L 11.76045,10.40964 L 11.59044,10.41341 L 11.28759,10.40161 L 10.97447,10.36622 L 10.65254,10.30746 L 10.32158,10.22554 L 10.32158,9.49631 L 10.46614,9.56150 L 10.76041,9.66617 L 10.91012,9.70564 L 11.06165,9.73603 L 11.36793,9.77080 L 11.52268,9.77514 L 11.65499,9.77030 L 11.86692,9.73169 L 11.94648,9.69792 L 12.00878,9.65416 L 12.07999,9.53833 L 12.08888,9.46628 L 12.08277,9.40607 L 12.03389,9.31041 L 11.99110,9.27495 L 11.93002,9.24536 L 11.73484,9.19646 L 11.60073,9.17716 L 11.43173,9.15571 L 11.13525,9.10686 L 10.78046,9.00161 L 10.60384,8.91014 L 10.53348,8.85801 L 10.47316,8.80022 L 10.37665,8.66351 L 10.31230,8.49856 L 10.28014,8.30544 L 10.27611,8.19829 L 10.28123,8.08288 L 10.32208,7.87527 L 10.40380,7.69854 L 10.52639,7.55268 L 10.60298,7.49135 L 10.69034,7.43727 L 10.89764,7.35072 L 11.14836,7.29302 L 11.44252,7.26419 L 11.60588,7.26057 L 11.87828,7.27066 L 12.16353,7.30090 L 12.46874,7.35194 L 12.79925,7.42614 Z"/></svg>
