<svg xmlns="http://www.w3.org/2000/svg" viewBox="-32 -64 64 128"><title>mytunas front engraving, millimetres</title><path fill="#244658" fill-rule="evenodd" d="M 11.00000,15.70400 L 7.48000,13.32800 L 3.08000,12.27200 L -0.44000,12.18400 L -3.08000,9.54400 L -2.55200,12.53600 L -5.72000,13.94400 L -7.48000,15.08800 L -11.00000,11.30400 L -9.76800,15.70400 L -11.00000,20.10400 L -7.48000,16.32000 L -4.84000,17.72800 L -0.44000,18.87200 L 3.08000,18.96000 L 1.32000,20.45600 L 5.72000,18.16800 L 8.36000,17.20000 L 11.00000,15.70400 Z M 6.60000,14.51600 L 7.56800,15.00000 L 6.77600,15.57200 L 6.60000,14.51600 Z M 3.08000,14.03200 L -3.08000,16.76000 L -0.17600,16.58400 L 3.08000,14.03200 Z M -9.16049,25.93841 L -9.06402,25.78404 L -8.84431,25.54047 L -8.72102,25.45125 L -8.58763,25.38269 L -8.28699,25.30435 L -8.11976,25.29455 L -8.00662,25.29963 L -7.80029,25.34041 L -7.62059,25.42197 L -7.46750,25.54428 L -7.40094,25.62074 L -7.34167,25.70639 L -7.24682,25.90354 L -7.18357,26.13520 L -7.15196,26.40133 L -7.14801,26.54734 L -7.14801,28.34690 L -7.64025,28.34690 L -7.64025,26.56353 L -7.64980,26.36318 L -7.69982,26.11455 L -7.75698,25.98338 L -7.79272,25.92818 L -7.83311,25.87949 L -7.92881,25.80156 L -8.04441,25.74960 L -8.17995,25.72361 L -8.25516,25.72037 L -8.34785,25.72433 L -8.51828,25.75595 L -8.66882,25.81918 L -8.79946,25.91403 L -8.85730,25.97333 L -8.90898,26.03922 L -8.99171,26.18838 L -9.04684,26.36062 L -9.07442,26.55598 L -9.07787,26.66231 L -9.07787,28.34690 L -9.57014,28.34690 L -9.57014,26.56353 L -9.57962,26.36210 L -9.62934,26.11268 L -9.68620,25.98151 L -9.72173,25.92647 L -9.76221,25.87817 L -9.85865,25.80090 L -9.97577,25.74935 L -10.11351,25.72359 L -10.19015,25.72037 L -10.28162,25.72435 L -10.45014,25.75607 L -10.59941,25.81952 L -10.72939,25.91470 L -10.78716,25.97418 L -10.83887,26.04044 L -10.92157,26.18992 L -10.97673,26.36193 L -11.00428,26.55656 L -11.00773,26.66231 L -11.00773,28.34690 L -11.50000,28.34690 L -11.50000,25.36608 L -11.00773,25.36608 L -11.00773,25.82939 L -10.91969,25.70126 L -10.71871,25.49900 L -10.60576,25.42485 L -10.48317,25.36785 L -10.20510,25.30269 L -10.04962,25.29455 L -9.89308,25.30488 L -9.61671,25.38749 L -9.49688,25.45976 L -9.39060,25.55132 L -9.22238,25.79064 L -9.16049,25.93841 Z M -4.93198,28.62369 L -5.03486,28.86668 L -5.18701,29.14434 L -5.28696,29.27155 L -5.33653,29.31780 L -5.44318,29.38896 L -5.70635,29.47029 L -5.86284,29.48046 L -6.25462,29.48046 L -6.25462,29.07083 L -5.96675,29.07083 L -5.87146,29.06480 L -5.71476,29.01669 L -5.65333,28.97457 L -5.59569,28.91054 L -5.47177,28.68443 L -5.40551,28.52235 L -5.31778,28.29920 L -6.52289,25.36608 L -6.00422,25.36608 L -5.07251,27.69708 L -4.14078,25.36608 L -3.62213,25.36608 L -4.93198,28.62369 Z M -2.46130,24.51954 L -2.46130,25.36608 L -1.45293,25.36608 L -1.45293,25.74678 L -2.46130,25.74678 L -2.46130,27.36494 L -2.45507,27.53091 L -2.40525,27.76512 L -2.36166,27.83336 L -2.29890,27.87881 L -2.09578,27.93076 L -1.95541,27.93725 L -1.45293,27.93725 L -1.45293,28.34690 L -1.95541,28.34690 L -2.09171,28.34361 L -2.33135,28.31721 L -2.52703,28.26440 L -2.67874,28.18519 L -2.73810,28.13569 L -2.78859,28.07725 L -2.86939,27.92789 L -2.92325,27.73522 L -2.95021,27.49919 L -2.95357,27.36494 L -2.95357,25.74678 L -3.31297,25.74678 L -3.31297,25.36608 L -2.95357,25.36608 L -2.95357,24.51954 L -2.46130,24.51954 Z M -0.85933,27.17075 L -0.85933,25.36608 L -0.36963,25.36608 L -0.36963,27.15203 L -0.35935,27.35045 L -0.30542,27.59862 L -0.24378,27.73106 L -0.20525,27.78736 L -0.16137,27.83685 L -0.05810,27.91607 L 0.06583,27.96888 L 0.21038,27.99528 L 0.29042,27.99857 L 0.38684,27.99461 L 0.56407,27.96301 L 0.72057,27.89976 L 0.85631,27.80491 L 0.91639,27.74564 L 0.97049,27.67951 L 1.05703,27.53006 L 1.11474,27.35758 L 1.14358,27.16213 L 1.14719,27.05578 L 1.14719,25.36608 L 1.63689,25.36608 L 1.63689,28.34690 L 1.14719,28.34690 L 1.14719,27.88872 L 1.05457,28.01582 L 0.84762,28.21767 L 0.73329,28.29239 L 0.61097,28.35015 L 0.33757,28.41616 L 0.18651,28.42441 L 0.06198,28.41942 L -0.16392,28.37949 L -0.35894,28.29966 L -0.52311,28.17988 L -0.59361,28.10504 L -0.65589,28.02058 L -0.75553,27.82395 L -0.82195,27.59036 L -0.85519,27.31986 L -0.85933,27.17075 Z M 5.12359,26.54734 L 5.12359,28.34690 L 4.63390,28.34690 L 4.63390,26.56353 L 4.62358,26.36525 L 4.56936,26.11793 L 4.50740,25.98646 L 4.46867,25.93073 L 4.42481,25.88144 L 4.32163,25.80255 L 4.19794,25.74995 L 4.05368,25.72366 L 3.97385,25.72037 L 3.87727,25.72433 L 3.69980,25.75595 L 3.54331,25.81918 L 3.40777,25.91403 L 3.34788,25.97333 L 3.29420,26.03922 L 3.20827,26.18838 L 3.15100,26.36062 L 3.12236,26.55598 L 3.11878,26.66231 L 3.11878,28.34690 L 2.62653,28.34690 L 2.62653,25.36608 L 3.11878,25.36608 L 3.11878,25.82939 L 3.21078,25.70335 L 3.41773,25.50236 L 3.53269,25.42740 L 3.65652,25.36928 L 3.93160,25.30285 L 4.08287,25.29455 L 4.20734,25.29952 L 4.43281,25.33922 L 4.62700,25.41864 L 4.78989,25.53775 L 4.85958,25.61223 L 4.92147,25.69631 L 5.02046,25.89262 L 5.08647,26.12641 L 5.11948,26.39765 L 5.12359,26.54734 Z M 7.45460,26.84882 L 7.18058,26.85729 L 6.85499,26.90172 L 6.69486,26.95250 L 6.63189,26.98425 L 6.57821,27.02111 L 6.49228,27.11286 L 6.43501,27.22869 L 6.40637,27.36857 L 6.40281,27.44756 L 6.41355,27.57114 L 6.49957,27.77809 L 6.57483,27.86146 L 6.66853,27.92814 L 6.90186,28.00439 L 7.04154,28.01391 L 7.14099,28.00940 L 7.32474,27.97331 L 7.48827,27.90112 L 7.63156,27.79286 L 7.69562,27.72519 L 7.75330,27.65005 L 7.84560,27.48194 L 7.90715,27.29012 L 7.93790,27.07454 L 7.94176,26.95784 L 7.94176,26.84882 L 7.45460,26.84882 Z M 8.43145,26.64615 L 8.43145,28.34690 L 7.94176,28.34690 L 7.94176,27.89468 L 7.85271,28.02125 L 7.64361,28.22139 L 7.52358,28.29495 L 7.39142,28.35159 L 7.08524,28.41632 L 6.91125,28.42441 L 6.79981,28.42039 L 6.59447,28.38823 L 6.41242,28.32393 L 6.25370,28.22749 L 6.18307,28.16720 L 6.11979,28.10018 L 6.01855,27.94988 L 5.95107,27.77784 L 5.91730,27.58409 L 5.91309,27.47907 L 5.91836,27.35731 L 5.96040,27.13694 L 6.04449,26.94744 L 6.17065,26.78881 L 6.24949,26.72108 L 6.33898,26.66119 L 6.54891,26.56539 L 6.80016,26.50152 L 7.09269,26.46957 L 7.25445,26.46557 L 7.94176,26.46557 L 7.94176,26.41704 L 7.93829,26.33491 L 7.91050,26.18502 L 7.85491,26.05429 L 7.77156,25.94271 L 7.71947,25.89411 L 7.66109,25.85081 L 7.52749,25.78151 L 7.28495,25.72086 L 7.09520,25.70931 L 6.96824,25.71313 L 6.71913,25.74381 L 6.59697,25.77063 L 6.47721,25.80513 L 6.24471,25.89710 L 6.13196,25.95458 L 6.13196,25.50150 L 6.39642,25.41079 L 6.65319,25.34651 L 6.90271,25.30755 L 7.14546,25.29455 L 7.30213,25.29979 L 7.58478,25.34172 L 7.82644,25.42563 L 8.02712,25.55146 L 8.11208,25.63010 L 8.18694,25.71920 L 8.30670,25.92988 L 8.38656,26.18389 L 8.42646,26.48121 L 8.43145,26.64615 Z M 11.33990,25.45380 L 11.33990,25.91711 L 11.23534,25.86723 L 11.01988,25.78760 L 10.90895,25.75784 L 10.79631,25.73438 L 10.56466,25.70754 L 10.44563,25.70420 L 10.27477,25.71117 L 10.00139,25.76695 L 9.89888,25.81575 L 9.81914,25.87857 L 9.72801,26.04635 L 9.71663,26.15132 L 9.72477,26.23192 L 9.78990,26.36561 L 9.84692,26.41874 L 9.92857,26.46670 L 10.19089,26.55911 L 10.37155,26.60355 L 10.53934,26.64102 L 10.78109,26.70256 L 11.07307,26.81641 L 11.22062,26.90669 L 11.28028,26.95614 L 11.33178,27.00954 L 11.41416,27.13144 L 11.46911,27.27345 L 11.49657,27.43557 L 11.50000,27.52419 L 11.49487,27.62539 L 11.45377,27.81160 L 11.37159,27.97619 L 11.24831,28.11916 L 11.17126,28.18255 L 11.08522,28.23922 L 10.89009,28.32993 L 10.66418,28.39040 L 10.40752,28.42062 L 10.26764,28.42441 L 10.02322,28.41271 L 9.76856,28.37756 L 9.50199,28.31923 L 9.22180,28.23788 L 9.22180,27.73200 L 9.35711,27.79828 L 9.62453,27.90431 L 9.75665,27.94406 L 9.88795,27.97462 L 10.14900,28.00954 L 10.27872,28.01391 L 10.44159,28.00650 L 10.70730,27.94732 L 10.81016,27.89553 L 10.89174,27.83025 L 10.98501,27.66334 L 10.99667,27.56166 L 10.98825,27.46782 L 10.92098,27.31496 L 10.86210,27.25592 L 10.77513,27.20318 L 10.48046,27.10056 L 10.27274,27.05067 L 10.10243,27.01065 L 9.89078,26.95651 L 9.63240,26.85117 L 9.49955,26.76482 L 9.44493,26.71682 L 9.39764,26.66491 L 9.32195,26.54727 L 9.27148,26.41122 L 9.24625,26.25675 L 9.24310,26.17262 L 9.24775,26.07043 L 9.28501,25.88413 L 9.35953,25.72189 L 9.47131,25.58371 L 9.54118,25.52365 L 9.61961,25.46995 L 9.79996,25.38404 L 10.01158,25.32677 L 10.25453,25.29811 L 10.38772,25.29455 L 10.65068,25.30456 L 10.89788,25.33457 L 11.12846,25.38397 L 11.33990,25.45380 Z"/></svg>
